# MagicaVoxel @ ephtracy

# material
mtllib fisherMan.mtl
usemtl palette

# normals
vn -1 0 0
vn 1 0 0
vn 0 0 1
vn 0 0 -1
vn 0 -1 0
vn 0 1 0

# texcoords
vt 0.0332031 0.5
vt 0.0605469 0.5
vt 0.201172 0.5
vt 0.228516 0.5
vt 0.521484 0.5
vt 0.611328 0.5
vt 0.634766 0.5
vt 0.978516 0.5
vt 0.982422 0.5
vt 0.986328 0.5
vt 0.994141 0.5

# verts
v -5 8 2.5
v -5 8 -2.5
v -5 10 2.5
v -5 10 -2.5
v -4 3 2.5
v -4 3 -0.5
v -4 4 2.5
v -4 4 -0.5
v -4 7 3.5
v -4 7 2.5
v -4 8 3.5
v -4 8 2.5
v -4 8 -2.5
v -4 8 -3.5
v -4 10 3.5
v -4 10 2.5
v -4 10 -2.5
v -4 10 -3.5
v -4 11 2.5
v -4 11 -2.5
v -3 0 2.5
v -3 0 -2.5
v -3 3 3.5
v -3 3 2.5
v -3 3 -0.5
v -3 4 3.5
v -3 4 2.5
v -3 4 -0.5
v -3 5 2.5
v -3 5 -2.5
v -3 7 2.5
v -3 8 4.5
v -3 8 3.5
v -3 8 2.5
v -3 8 -2.5
v -3 8 -3.5
v -3 8 -4.5
v -3 9 2.5
v -3 9 -2.5
v -3 10 4.5
v -3 10 3.5
v -3 10 2.5
v -3 10 -2.5
v -3 10 -3.5
v -3 10 -4.5
v -3 11 3.5
v -3 11 2.5
v -3 11 -2.5
v -3 11 -3.5
v -3 12 2.5
v -3 12 -2.5
v -2 0 4.5
v -2 0 2.5
v -2 1 4.5
v -2 1 3.5
v -2 2 3.5
v -2 2 2.5
v -1 2 3.5
v -1 2 2.5
v -1 3 4.5
v -1 3 3.5
v -1 3 2.5
v -1 4 4.5
v -1 4 3.5
v 1 0 4.5
v 1 0 2.5
v 1 1 4.5
v 1 1 3.5
v 1 2 3.5
v 1 2 2.5
v 1 7 3.5
v 1 7 2.5
v 1 8 3.5
v 1 8 2.5
v 3 8 3.5
v 3 8 2.5
v 3 8 -2.5
v 3 8 -3.5
v 3 9 3.5
v 3 9 2.5
v 3 9 -2.5
v 3 9 -3.5
v 4 8 2.5
v 4 8 -2.5
v 4 9 2.5
v 4 9 -2.5
v -4 8 2.5
v -4 8 -2.5
v -4 9 2.5
v -4 9 -2.5
v -3 8 3.5
v -3 8 2.5
v -3 8 -2.5
v -3 8 -3.5
v -3 9 3.5
v -3 9 2.5
v -3 9 -2.5
v -3 9 -3.5
v -1 0 4.5
v -1 0 2.5
v -1 1 4.5
v -1 1 3.5
v -1 2 3.5
v -1 2 2.5
v -1 7 3.5
v -1 7 2.5
v -1 8 3.5
v -1 8 2.5
v 1 2 3.5
v 1 2 2.5
v 1 3 4.5
v 1 3 3.5
v 1 3 2.5
v 1 4 4.5
v 1 4 3.5
v 2 0 4.5
v 2 0 2.5
v 2 1 4.5
v 2 1 3.5
v 2 2 3.5
v 2 2 2.5
v 3 0 2.5
v 3 0 -2.5
v 3 3 3.5
v 3 3 2.5
v 3 3 -0.5
v 3 4 3.5
v 3 4 2.5
v 3 4 -0.5
v 3 5 2.5
v 3 5 -2.5
v 3 7 2.5
v 3 8 4.5
v 3 8 3.5
v 3 8 2.5
v 3 8 -2.5
v 3 8 -3.5
v 3 8 -4.5
v 3 9 2.5
v 3 9 -2.5
v 3 10 4.5
v 3 10 3.5
v 3 10 2.5
v 3 10 -2.5
v 3 10 -3.5
v 3 10 -4.5
v 3 11 3.5
v 3 11 2.5
v 3 11 -2.5
v 3 11 -3.5
v 3 12 2.5
v 3 12 -2.5
v 4 3 2.5
v 4 3 -0.5
v 4 4 2.5
v 4 4 -0.5
v 4 7 3.5
v 4 7 2.5
v 4 8 3.5
v 4 8 2.5
v 4 8 -2.5
v 4 8 -3.5
v 4 10 3.5
v 4 10 2.5
v 4 10 -2.5
v 4 10 -3.5
v 4 11 2.5
v 4 11 -2.5
v 5 8 2.5
v 5 8 -2.5
v 5 10 2.5
v 5 10 -2.5
v -3 8 4.5
v -3 10 4.5
v -2 0 4.5
v -2 1 4.5
v -1 0 4.5
v -1 1 4.5
v -1 3 4.5
v -1 4 4.5
v 1 0 4.5
v 1 1 4.5
v 1 3 4.5
v 1 4 4.5
v 2 0 4.5
v 2 1 4.5
v 3 8 4.5
v 3 10 4.5
v -4 7 3.5
v -4 8 3.5
v -4 10 3.5
v -3 3 3.5
v -3 4 3.5
v -3 8 3.5
v -3 10 3.5
v -3 11 3.5
v -2 1 3.5
v -2 2 3.5
v -2 7 3.5
v -2 8 3.5
v -1 1 3.5
v -1 2 3.5
v -1 3 3.5
v -1 4 3.5
v -1 7 3.5
v -1 8 3.5
v 1 1 3.5
v 1 2 3.5
v 1 3 3.5
v 1 4 3.5
v 1 7 3.5
v 1 8 3.5
v 2 1 3.5
v 2 2 3.5
v 2 7 3.5
v 2 8 3.5
v 3 3 3.5
v 3 4 3.5
v 3 8 3.5
v 3 10 3.5
v 3 11 3.5
v 4 7 3.5
v 4 8 3.5
v 4 10 3.5
v -5 8 2.5
v -5 10 2.5
v -4 3 2.5
v -4 4 2.5
v -4 8 2.5
v -4 10 2.5
v -4 11 2.5
v -3 0 2.5
v -3 3 2.5
v -3 4 2.5
v -3 5 2.5
v -3 7 2.5
v -3 8 2.5
v -3 9 2.5
v -3 10 2.5
v -3 11 2.5
v -3 12 2.5
v -2 0 2.5
v -2 2 2.5
v -2 6 2.5
v -2 7 2.5
v -2 8 2.5
v -1 0 2.5
v -1 2 2.5
v -1 3 2.5
v -1 4 2.5
v -1 6 2.5
v -1 7 2.5
v -1 8 2.5
v 1 0 2.5
v 1 2 2.5
v 1 3 2.5
v 1 4 2.5
v 1 6 2.5
v 1 7 2.5
v 1 8 2.5
v 2 0 2.5
v 2 2 2.5
v 2 6 2.5
v 2 7 2.5
v 2 8 2.5
v 3 0 2.5
v 3 3 2.5
v 3 4 2.5
v 3 5 2.5
v 3 7 2.5
v 3 8 2.5
v 3 9 2.5
v 3 10 2.5
v 3 11 2.5
v 3 12 2.5
v 4 3 2.5
v 4 4 2.5
v 4 8 2.5
v 4 10 2.5
v 4 11 2.5
v 5 8 2.5
v 5 10 2.5
v -4 8 -2.5
v -4 9 -2.5
v -3 8 -2.5
v -3 9 -2.5
v 3 8 -2.5
v 3 9 -2.5
v 4 8 -2.5
v 4 9 -2.5
v -3 8 -3.5
v -3 9 -3.5
v 3 8 -3.5
v 3 9 -3.5
v -3 8 3.5
v -3 9 3.5
v -2 8 3.5
v -1 8 3.5
v 1 8 3.5
v 2 8 3.5
v 3 8 3.5
v 3 9 3.5
v -4 7 2.5
v -4 8 2.5
v -4 9 2.5
v -3 7 2.5
v -3 8 2.5
v -3 9 2.5
v 3 7 2.5
v 3 8 2.5
v 3 9 2.5
v 4 7 2.5
v 4 8 2.5
v 4 9 2.5
v -4 3 -0.5
v -4 4 -0.5
v -3 3 -0.5
v -3 4 -0.5
v 3 3 -0.5
v 3 4 -0.5
v 4 3 -0.5
v 4 4 -0.5
v -5 8 -2.5
v -5 10 -2.5
v -4 8 -2.5
v -4 10 -2.5
v -4 11 -2.5
v -3 0 -2.5
v -3 5 -2.5
v -3 8 -2.5
v -3 9 -2.5
v -3 10 -2.5
v -3 11 -2.5
v -3 12 -2.5
v 3 0 -2.5
v 3 5 -2.5
v 3 8 -2.5
v 3 9 -2.5
v 3 10 -2.5
v 3 11 -2.5
v 3 12 -2.5
v 4 8 -2.5
v 4 10 -2.5
v 4 11 -2.5
v 5 8 -2.5
v 5 10 -2.5
v -4 8 -3.5
v -4 10 -3.5
v -3 8 -3.5
v -3 10 -3.5
v -3 11 -3.5
v 3 8 -3.5
v 3 10 -3.5
v 3 11 -3.5
v 4 8 -3.5
v 4 10 -3.5
v -3 8 -4.5
v -3 10 -4.5
v 3 8 -4.5
v 3 10 -4.5
v -2 0 4.5
v -1 0 4.5
v 1 0 4.5
v 2 0 4.5
v -3 0 2.5
v -2 0 2.5
v -1 0 2.5
v 1 0 2.5
v 2 0 2.5
v 3 0 2.5
v -3 0 -2.5
v 3 0 -2.5
v -1 2 3.5
v 1 2 3.5
v -1 2 2.5
v 1 2 2.5
v -1 3 4.5
v 1 3 4.5
v -3 3 3.5
v -1 3 3.5
v 1 3 3.5
v 3 3 3.5
v -4 3 2.5
v -3 3 2.5
v -1 3 2.5
v 1 3 2.5
v 3 3 2.5
v 4 3 2.5
v -4 3 -0.5
v -3 3 -0.5
v 3 3 -0.5
v 4 3 -0.5
v -4 7 3.5
v -2 7 3.5
v -1 7 3.5
v 1 7 3.5
v 2 7 3.5
v 4 7 3.5
v -4 7 2.5
v -3 7 2.5
v -2 7 2.5
v -1 7 2.5
v 1 7 2.5
v 2 7 2.5
v 3 7 2.5
v 4 7 2.5
v -3 8 4.5
v 3 8 4.5
v -3 8 3.5
v -2 8 3.5
v -1 8 3.5
v 1 8 3.5
v 2 8 3.5
v 3 8 3.5
v -5 8 2.5
v -4 8 2.5
v 4 8 2.5
v 5 8 2.5
v -5 8 -2.5
v -4 8 -2.5
v -3 8 -2.5
v 3 8 -2.5
v 4 8 -2.5
v 5 8 -2.5
v -4 8 -3.5
v -3 8 -3.5
v 3 8 -3.5
v 4 8 -3.5
v -3 8 -4.5
v 3 8 -4.5
v -3 9 3.5
v 3 9 3.5
v -4 9 2.5
v -3 9 2.5
v 3 9 2.5
v 4 9 2.5
v -4 9 -2.5
v -3 9 -2.5
v 3 9 -2.5
v 4 9 -2.5
v -3 9 -3.5
v 3 9 -3.5
v -2 1 4.5
v -1 1 4.5
v 1 1 4.5
v 2 1 4.5
v -2 1 3.5
v -1 1 3.5
v 1 1 3.5
v 2 1 3.5
v -2 2 3.5
v -1 2 3.5
v 1 2 3.5
v 2 2 3.5
v -2 2 2.5
v -1 2 2.5
v 1 2 2.5
v 2 2 2.5
v -1 4 4.5
v 1 4 4.5
v -3 4 3.5
v -1 4 3.5
v 1 4 3.5
v 3 4 3.5
v -4 4 2.5
v -3 4 2.5
v -1 4 2.5
v 1 4 2.5
v 3 4 2.5
v 4 4 2.5
v -4 4 -0.5
v -3 4 -0.5
v 3 4 -0.5
v 4 4 -0.5
v -3 8 3.5
v -2 8 3.5
v -1 8 3.5
v 1 8 3.5
v 2 8 3.5
v 3 8 3.5
v -3 8 2.5
v -2 8 2.5
v -1 8 2.5
v 1 8 2.5
v 2 8 2.5
v 3 8 2.5
v -3 10 4.5
v 3 10 4.5
v -4 10 3.5
v -3 10 3.5
v 3 10 3.5
v 4 10 3.5
v -5 10 2.5
v -4 10 2.5
v -3 10 2.5
v 3 10 2.5
v 4 10 2.5
v 5 10 2.5
v -5 10 -2.5
v -4 10 -2.5
v -3 10 -2.5
v 3 10 -2.5
v 4 10 -2.5
v 5 10 -2.5
v -4 10 -3.5
v -3 10 -3.5
v 3 10 -3.5
v 4 10 -3.5
v -3 10 -4.5
v 3 10 -4.5
v -3 11 3.5
v 3 11 3.5
v -4 11 2.5
v -3 11 2.5
v 3 11 2.5
v 4 11 2.5
v -4 11 -2.5
v -3 11 -2.5
v 3 11 -2.5
v 4 11 -2.5
v -3 11 -3.5
v 3 11 -3.5
v -3 12 2.5
v 3 12 2.5
v -3 12 -2.5
v 3 12 -2.5

# faces
f 3/3/1 2/3/1 1/3/1
f 4/3/1 2/3/1 3/3/1
f 7/3/1 6/3/1 5/3/1
f 8/3/1 6/3/1 7/3/1
f 11/9/1 10/9/1 9/9/1
f 12/9/1 10/9/1 11/9/1
f 15/3/1 12/3/1 11/3/1
f 16/3/1 12/3/1 15/3/1
f 17/3/1 14/3/1 13/3/1
f 18/3/1 14/3/1 17/3/1
f 19/3/1 17/3/1 16/3/1
f 20/3/1 17/3/1 19/3/1
f 24/4/1 22/4/1 21/4/1
f 25/4/1 22/4/1 24/4/1
f 26/3/1 24/3/1 23/3/1
f 27/3/1 24/3/1 26/3/1
f 28/4/1 22/4/1 25/4/1
f 29/4/1 28/4/1 27/4/1
f 30/4/1 22/4/1 28/4/1
f 30/4/1 28/4/1 29/4/1
f 31/1/1 30/1/1 29/1/1
f 34/1/1 30/1/1 31/1/1
f 35/1/1 30/1/1 34/1/1
f 38/1/1 35/1/1 34/1/1
f 39/1/1 35/1/1 38/1/1
f 40/3/1 33/3/1 32/3/1
f 41/3/1 33/3/1 40/3/1
f 44/3/1 37/3/1 36/3/1
f 45/3/1 37/3/1 44/3/1
f 46/3/1 42/3/1 41/3/1
f 47/3/1 42/3/1 46/3/1
f 48/3/1 44/3/1 43/3/1
f 49/3/1 44/3/1 48/3/1
f 50/3/1 48/3/1 47/3/1
f 51/3/1 48/3/1 50/3/1
f 54/10/1 53/10/1 52/10/1
f 55/10/1 53/10/1 54/10/1
f 56/10/1 53/10/1 55/10/1
f 57/10/1 53/10/1 56/10/1
f 61/1/1 59/1/1 58/1/1
f 62/1/1 59/1/1 61/1/1
f 63/1/1 61/1/1 60/1/1
f 64/1/1 61/1/1 63/1/1
f 67/10/1 66/10/1 65/10/1
f 68/10/1 66/10/1 67/10/1
f 69/10/1 66/10/1 68/10/1
f 70/10/1 66/10/1 69/10/1
f 73/9/1 72/9/1 71/9/1
f 74/9/1 72/9/1 73/9/1
f 79/3/1 76/3/1 75/3/1
f 80/3/1 76/3/1 79/3/1
f 81/3/1 78/3/1 77/3/1
f 82/3/1 78/3/1 81/3/1
f 85/3/1 84/3/1 83/3/1
f 86/3/1 84/3/1 85/3/1
f 87/3/2 88/3/2 89/3/2
f 89/3/2 88/3/2 90/3/2
f 91/3/2 92/3/2 95/3/2
f 95/3/2 92/3/2 96/3/2
f 93/3/2 94/3/2 97/3/2
f 97/3/2 94/3/2 98/3/2
f 99/10/2 100/10/2 101/10/2
f 101/10/2 100/10/2 102/10/2
f 102/10/2 100/10/2 103/10/2
f 103/10/2 100/10/2 104/10/2
f 105/8/2 106/8/2 107/8/2
f 107/8/2 106/8/2 108/8/2
f 109/1/2 110/1/2 112/1/2
f 112/1/2 110/1/2 113/1/2
f 111/1/2 112/1/2 114/1/2
f 114/1/2 112/1/2 115/1/2
f 116/10/2 117/10/2 118/10/2
f 118/10/2 117/10/2 119/10/2
f 119/10/2 117/10/2 120/10/2
f 120/10/2 117/10/2 121/10/2
f 122/4/2 123/4/2 125/4/2
f 125/4/2 123/4/2 126/4/2
f 124/3/2 125/3/2 127/3/2
f 127/3/2 125/3/2 128/3/2
f 126/4/2 123/4/2 129/4/2
f 128/4/2 129/4/2 130/4/2
f 129/4/2 123/4/2 131/4/2
f 130/4/2 129/4/2 131/4/2
f 130/1/2 131/1/2 132/1/2
f 132/1/2 131/1/2 135/1/2
f 135/1/2 131/1/2 136/1/2
f 135/1/2 136/1/2 139/1/2
f 139/1/2 136/1/2 140/1/2
f 133/3/2 134/3/2 141/3/2
f 141/3/2 134/3/2 142/3/2
f 137/3/2 138/3/2 145/3/2
f 145/3/2 138/3/2 146/3/2
f 142/3/2 143/3/2 147/3/2
f 147/3/2 143/3/2 148/3/2
f 144/3/2 145/3/2 149/3/2
f 149/3/2 145/3/2 150/3/2
f 148/3/2 149/3/2 151/3/2
f 151/3/2 149/3/2 152/3/2
f 153/3/2 154/3/2 155/3/2
f 155/3/2 154/3/2 156/3/2
f 157/8/2 158/8/2 159/8/2
f 159/8/2 158/8/2 160/8/2
f 159/3/2 160/3/2 163/3/2
f 163/3/2 160/3/2 164/3/2
f 161/3/2 162/3/2 165/3/2
f 165/3/2 162/3/2 166/3/2
f 164/3/2 165/3/2 167/3/2
f 167/3/2 165/3/2 168/3/2
f 169/3/2 170/3/2 171/3/2
f 171/3/2 170/3/2 172/3/2
f 177/10/3 176/10/3 175/10/3
f 178/10/3 176/10/3 177/10/3
f 183/1/3 180/1/3 179/1/3
f 184/1/3 180/1/3 183/1/3
f 185/10/3 182/10/3 181/10/3
f 186/10/3 182/10/3 185/10/3
f 187/3/3 174/3/3 173/3/3
f 188/3/3 174/3/3 187/3/3
f 194/9/3 190/9/3 189/9/3
f 194/3/3 191/3/3 190/3/3
f 195/3/3 191/3/3 194/3/3
f 199/9/3 194/9/3 189/9/3
f 200/9/3 194/9/3 199/9/3
f 201/10/3 198/10/3 197/10/3
f 202/10/3 198/10/3 201/10/3
f 203/3/3 193/3/3 192/3/3
f 204/3/3 193/3/3 203/3/3
f 205/8/3 200/8/3 199/8/3
f 206/8/3 200/8/3 205/8/3
f 208/1/3 203/1/3 202/1/3
f 209/1/3 203/1/3 208/1/3
f 213/10/3 208/10/3 207/10/3
f 214/10/3 208/10/3 213/10/3
f 215/9/3 212/9/3 211/9/3
f 216/9/3 212/9/3 215/9/3
f 217/3/3 210/3/3 209/3/3
f 218/3/3 210/3/3 217/3/3
f 219/8/3 216/8/3 215/8/3
f 220/3/3 196/3/3 195/3/3
f 221/3/3 196/3/3 220/3/3
f 222/8/3 219/8/3 215/8/3
f 223/3/3 220/3/3 219/3/3
f 223/8/3 219/8/3 222/8/3
f 224/3/3 220/3/3 223/3/3
f 229/3/3 226/3/3 225/3/3
f 230/3/3 226/3/3 229/3/3
f 233/3/3 228/3/3 227/3/3
f 234/3/3 228/3/3 233/3/3
f 239/3/3 231/3/3 230/3/3
f 240/3/3 231/3/3 239/3/3
f 242/4/3 233/4/3 232/4/3
f 243/4/3 233/4/3 242/4/3
f 244/1/3 236/1/3 235/1/3
f 245/1/3 236/1/3 244/1/3
f 246/1/3 238/1/3 237/1/3
f 248/4/3 233/4/3 243/4/3
f 249/4/3 233/4/3 248/4/3
f 250/4/3 235/4/3 234/4/3
f 251/11/3 245/11/3 244/11/3
f 251/1/3 244/1/3 235/1/3
f 252/11/3 245/11/3 251/11/3
f 253/1/3 238/1/3 246/1/3
f 254/4/3 248/4/3 247/4/3
f 255/4/3 248/4/3 254/4/3
f 257/4/3 235/4/3 250/4/3
f 258/1/3 253/1/3 252/1/3
f 258/1/3 252/1/3 251/1/3
f 258/1/3 251/1/3 235/1/3
f 259/1/3 253/1/3 258/1/3
f 260/1/3 238/1/3 253/1/3
f 260/1/3 253/1/3 259/1/3
f 262/4/3 256/4/3 255/4/3
f 263/1/3 258/1/3 235/1/3
f 263/11/3 259/11/3 258/11/3
f 264/11/3 259/11/3 263/11/3
f 265/1/3 238/1/3 260/1/3
f 266/4/3 262/4/3 261/4/3
f 267/4/3 256/4/3 262/4/3
f 267/4/3 262/4/3 266/4/3
f 268/4/3 235/4/3 257/4/3
f 269/1/3 264/1/3 263/1/3
f 269/1/3 263/1/3 235/1/3
f 269/4/3 235/4/3 268/4/3
f 270/1/3 264/1/3 269/1/3
f 271/1/3 238/1/3 265/1/3
f 272/1/3 238/1/3 271/1/3
f 274/3/3 241/3/3 240/3/3
f 275/3/3 241/3/3 274/3/3
f 276/3/3 268/3/3 267/3/3
f 277/3/3 268/3/3 276/3/3
f 279/3/3 274/3/3 273/3/3
f 280/3/3 274/3/3 279/3/3
f 281/3/3 279/3/3 278/3/3
f 282/3/3 279/3/3 281/3/3
f 285/3/3 284/3/3 283/3/3
f 286/3/3 284/3/3 285/3/3
f 289/3/3 288/3/3 287/3/3
f 290/3/3 288/3/3 289/3/3
f 293/3/3 292/3/3 291/3/3
f 294/3/3 292/3/3 293/3/3
f 295/3/4 296/3/4 297/3/4
f 297/3/4 296/3/4 298/3/4
f 298/3/4 296/3/4 299/3/4
f 299/3/4 296/3/4 300/3/4
f 300/3/4 296/3/4 301/3/4
f 301/3/4 296/3/4 302/3/4
f 303/9/4 304/9/4 306/9/4
f 304/3/4 305/3/4 307/3/4
f 306/9/4 304/9/4 307/9/4
f 307/3/4 305/3/4 308/3/4
f 309/8/4 310/8/4 312/8/4
f 310/3/4 311/3/4 313/3/4
f 312/8/4 310/8/4 313/8/4
f 313/3/4 311/3/4 314/3/4
f 315/3/4 316/3/4 317/3/4
f 317/3/4 316/3/4 318/3/4
f 319/3/4 320/3/4 321/3/4
f 321/3/4 320/3/4 322/3/4
f 323/3/4 324/3/4 325/3/4
f 325/3/4 324/3/4 326/3/4
f 326/3/4 327/3/4 332/3/4
f 332/3/4 327/3/4 333/3/4
f 328/4/4 329/4/4 335/4/4
f 330/1/4 331/1/4 336/1/4
f 335/4/4 329/4/4 336/4/4
f 329/1/4 330/1/4 336/1/4
f 336/1/4 331/1/4 337/1/4
f 337/1/4 331/1/4 338/1/4
f 333/3/4 334/3/4 340/3/4
f 340/3/4 334/3/4 341/3/4
f 339/3/4 340/3/4 343/3/4
f 343/3/4 340/3/4 344/3/4
f 342/3/4 343/3/4 345/3/4
f 345/3/4 343/3/4 346/3/4
f 347/3/4 348/3/4 349/3/4
f 349/3/4 348/3/4 350/3/4
f 350/3/4 351/3/4 353/3/4
f 353/3/4 351/3/4 354/3/4
f 352/3/4 353/3/4 355/3/4
f 355/3/4 353/3/4 356/3/4
f 357/3/4 358/3/4 359/3/4
f 359/3/4 358/3/4 360/3/4
f 366/10/5 362/10/5 361/10/5
f 367/10/5 362/10/5 366/10/5
f 368/10/5 364/10/5 363/10/5
f 369/10/5 364/10/5 368/10/5
f 371/4/5 367/4/5 366/4/5
f 371/4/5 370/4/5 369/4/5
f 371/4/5 369/4/5 368/4/5
f 371/4/5 368/4/5 367/4/5
f 371/4/5 366/4/5 365/4/5
f 372/4/5 370/4/5 371/4/5
f 375/1/5 374/1/5 373/1/5
f 376/1/5 374/1/5 375/1/5
f 380/1/5 378/1/5 377/1/5
f 381/1/5 378/1/5 380/1/5
f 384/3/5 380/3/5 379/3/5
f 385/3/5 380/3/5 384/3/5
f 386/3/5 382/3/5 381/3/5
f 387/3/5 382/3/5 386/3/5
f 389/3/5 384/3/5 383/3/5
f 390/3/5 384/3/5 389/3/5
f 391/3/5 388/3/5 387/3/5
f 392/3/5 388/3/5 391/3/5
f 399/9/5 394/9/5 393/9/5
f 400/9/5 394/9/5 399/9/5
f 401/8/5 395/8/5 394/8/5
f 401/9/5 394/9/5 400/9/5
f 402/8/5 395/8/5 401/8/5
f 403/9/5 397/9/5 396/9/5
f 404/8/5 398/8/5 397/8/5
f 404/9/5 397/9/5 403/9/5
f 405/8/5 398/8/5 404/8/5
f 406/8/5 398/8/5 405/8/5
f 409/3/5 408/3/5 407/3/5
f 410/3/5 408/3/5 409/3/5
f 411/3/5 408/3/5 410/3/5
f 412/3/5 408/3/5 411/3/5
f 413/3/5 408/3/5 412/3/5
f 414/3/5 408/3/5 413/3/5
f 419/3/5 416/3/5 415/3/5
f 420/3/5 416/3/5 419/3/5
f 423/3/5 418/3/5 417/3/5
f 424/3/5 418/3/5 423/3/5
f 425/3/5 421/3/5 420/3/5
f 426/3/5 421/3/5 425/3/5
f 427/3/5 423/3/5 422/3/5
f 428/3/5 423/3/5 427/3/5
f 429/3/5 427/3/5 426/3/5
f 430/3/5 427/3/5 429/3/5
f 434/3/5 432/3/5 431/3/5
f 435/3/5 432/3/5 434/3/5
f 437/3/5 434/3/5 433/3/5
f 438/3/5 434/3/5 437/3/5
f 439/3/5 436/3/5 435/3/5
f 440/3/5 436/3/5 439/3/5
f 441/3/5 439/3/5 438/3/5
f 442/3/5 439/3/5 441/3/5
f 443/10/6 444/10/6 447/10/6
f 447/10/6 444/10/6 448/10/6
f 445/10/6 446/10/6 449/10/6
f 449/10/6 446/10/6 450/10/6
f 451/10/6 452/10/6 455/10/6
f 455/10/6 452/10/6 456/10/6
f 453/10/6 454/10/6 457/10/6
f 457/10/6 454/10/6 458/10/6
f 459/1/6 460/1/6 462/1/6
f 462/1/6 460/1/6 463/1/6
f 461/3/6 462/3/6 466/3/6
f 462/1/6 463/1/6 467/1/6
f 466/3/6 462/3/6 467/3/6
f 463/3/6 464/3/6 468/3/6
f 467/1/6 463/1/6 468/1/6
f 468/3/6 464/3/6 469/3/6
f 465/3/6 466/3/6 471/3/6
f 471/3/6 466/3/6 472/3/6
f 469/3/6 470/3/6 473/3/6
f 473/3/6 470/3/6 474/3/6
f 475/9/6 476/9/6 481/9/6
f 476/8/6 477/8/6 482/8/6
f 481/9/6 476/9/6 482/9/6
f 482/8/6 477/8/6 483/8/6
f 478/9/6 479/9/6 484/9/6
f 479/8/6 480/8/6 485/8/6
f 484/9/6 479/9/6 485/9/6
f 485/8/6 480/8/6 486/8/6
f 487/3/6 488/3/6 490/3/6
f 490/3/6 488/3/6 491/3/6
f 489/3/6 490/3/6 494/3/6
f 494/3/6 490/3/6 495/3/6
f 491/3/6 492/3/6 496/3/6
f 496/3/6 492/3/6 497/3/6
f 493/3/6 494/3/6 499/3/6
f 499/3/6 494/3/6 500/3/6
f 497/3/6 498/3/6 503/3/6
f 503/3/6 498/3/6 504/3/6
f 500/3/6 501/3/6 505/3/6
f 505/3/6 501/3/6 506/3/6
f 502/3/6 503/3/6 507/3/6
f 507/3/6 503/3/6 508/3/6
f 506/3/6 507/3/6 509/3/6
f 509/3/6 507/3/6 510/3/6
f 511/3/6 512/3/6 514/3/6
f 514/3/6 512/3/6 515/3/6
f 513/3/6 514/3/6 517/3/6
f 517/3/6 514/3/6 518/3/6
f 515/3/6 516/3/6 519/3/6
f 519/3/6 516/3/6 520/3/6
f 518/3/6 519/3/6 521/3/6
f 521/3/6 519/3/6 522/3/6
f 523/3/6 524/3/6 525/3/6
f 525/3/6 524/3/6 526/3/6
