# MagicaVoxel @ ephtracy

# material
mtllib BanditBody.mtl
usemtl palette

# normals
vn -1 0 0
vn 1 0 0
vn 0 0 1
vn 0 0 -1
vn 0 -1 0
vn 0 1 0

# texcoords
vt 0.00585938 0.5
vt 0.0332031 0.5
vt 0.0605469 0.5
vt 0.341797 0.5
vt 0.373047 0.5
vt 0.787109 0.5
vt 0.814453 0.5
vt 0.845703 0.5
vt 0.986328 0.5
vt 0.990234 0.5
vt 0.994141 0.5

# verts
v -6 11 -1.5
v -6 11 -2.5
v -6 12 -1.5
v -6 12 -2.5
v -5 10 -1.5
v -5 10 -4.5
v -5 11 -1.5
v -5 11 -2.5
v -5 11 -4.5
v -4 7 0.5
v -4 7 -0.5
v -4 7 -1.5
v -4 7 -2.5
v -4 8 1.5
v -4 8 0.5
v -4 8 -0.5
v -4 8 -1.5
v -4 10 -1.5
v -4 10 -2.5
v -4 11 1.5
v -4 11 -1.5
v -3 1 1.5
v -3 1 -1.5
v -3 2 2.5
v -3 2 1.5
v -3 2 0.5
v -3 2 -0.5
v -3 2 -1.5
v -3 2 -2.5
v -3 3 2.5
v -3 3 0.5
v -3 3 -0.5
v -3 3 -2.5
v -3 6 2.5
v -3 6 1.5
v -3 6 0.5
v -3 6 -0.5
v -3 6 -1.5
v -3 6 -2.5
v -3 7 0.5
v -3 7 -0.5
v -3 7 -1.5
v -3 7 -2.5
v -3 7 -3.5
v -3 8 1.5
v -3 8 0.5
v -3 8 -0.5
v -3 8 -1.5
v -3 9 2.5
v -3 9 1.5
v -3 10 -2.5
v -3 10 -3.5
v -3 11 2.5
v -3 11 1.5
v -3 11 0.5
v -3 11 -1.5
v -3 12 0.5
v -3 12 -1.5
v -2 0 0.5
v -2 0 -0.5
v -2 1 0.5
v -2 1 -0.5
v -2 6 -2.5
v -2 6 -3.5
v -2 7 -2.5
v -2 7 -3.5
v -2 10 -2.5
v -2 10 -3.5
v -2 11 1.5
v -2 11 0.5
v -2 11 -1.5
v -2 11 -2.5
v -2 11 -3.5
v -2 12 1.5
v -2 12 0.5
v -2 12 -1.5
v -2 12 -2.5
v 1 0 0.5
v 1 0 -0.5
v 1 1 1.5
v 1 1 0.5
v 1 1 -0.5
v 1 1 -1.5
v 1 2 1.5
v 1 2 0.5
v 1 2 -0.5
v 1 2 -1.5
v -4 10 -2.5
v -4 10 -4.5
v -4 11 -1.5
v -4 11 -2.5
v -4 11 -4.5
v -4 12 -1.5
v -4 12 -2.5
v -1 0 0.5
v -1 0 -0.5
v -1 1 1.5
v -1 1 0.5
v -1 1 -0.5
v -1 1 -1.5
v -1 2 1.5
v -1 2 -1.5
v 2 0 0.5
v 2 0 -0.5
v 2 1 0.5
v 2 1 -0.5
v 2 6 -2.5
v 2 6 -3.5
v 2 7 -2.5
v 2 7 -3.5
v 2 10 -2.5
v 2 10 -3.5
v 2 11 1.5
v 2 11 0.5
v 2 11 -1.5
v 2 11 -2.5
v 2 11 -3.5
v 2 12 1.5
v 2 12 0.5
v 2 12 -1.5
v 2 12 -2.5
v 3 1 1.5
v 3 1 -1.5
v 3 2 2.5
v 3 2 1.5
v 3 2 0.5
v 3 2 -0.5
v 3 2 -1.5
v 3 2 -2.5
v 3 3 2.5
v 3 3 0.5
v 3 3 -0.5
v 3 3 -2.5
v 3 6 2.5
v 3 6 1.5
v 3 6 0.5
v 3 6 -0.5
v 3 6 -1.5
v 3 6 -2.5
v 3 7 0.5
v 3 7 -0.5
v 3 7 -1.5
v 3 7 -2.5
v 3 7 -3.5
v 3 8 0.5
v 3 8 -0.5
v 3 8 -1.5
v 3 9 2.5
v 3 9 1.5
v 3 9 0.5
v 3 10 -1.5
v 3 10 -2.5
v 3 10 -3.5
v 3 11 2.5
v 3 11 1.5
v 3 11 0.5
v 3 11 -1.5
v 3 11 -2.5
v 3 12 0.5
v 3 12 -1.5
v 4 2 0.5
v 4 2 -0.5
v 4 3 0.5
v 4 3 -0.5
v 4 6 0.5
v 4 6 -0.5
v 4 7 0.5
v 4 7 -0.5
v 4 7 -1.5
v 4 7 -2.5
v 4 8 0.5
v 4 8 -0.5
v 4 8 -1.5
v 4 9 1.5
v 4 9 0.5
v 4 10 -1.5
v 4 10 -2.5
v 4 11 1.5
v 4 11 -1.5
v -3 2 2.5
v -3 3 2.5
v -3 6 2.5
v -3 9 2.5
v -3 11 2.5
v -1 3 2.5
v -1 6 2.5
v 1 3 2.5
v 1 6 2.5
v 3 2 2.5
v 3 3 2.5
v 3 6 2.5
v 3 9 2.5
v 3 11 2.5
v -4 8 1.5
v -4 11 1.5
v -3 1 1.5
v -3 2 1.5
v -3 6 1.5
v -3 8 1.5
v -3 9 1.5
v -3 11 1.5
v -2 7 1.5
v -2 8 1.5
v -2 11 1.5
v -2 12 1.5
v -1 1 1.5
v -1 2 1.5
v -1 6 1.5
v -1 7 1.5
v -1 8 1.5
v 1 1 1.5
v 1 2 1.5
v 1 6 1.5
v 1 7 1.5
v 1 8 1.5
v 2 7 1.5
v 2 8 1.5
v 2 11 1.5
v 2 12 1.5
v 3 1 1.5
v 3 2 1.5
v 3 6 1.5
v 3 9 1.5
v 3 11 1.5
v 4 9 1.5
v 4 11 1.5
v -4 7 0.5
v -4 8 0.5
v -3 7 0.5
v -3 8 0.5
v -3 11 0.5
v -3 12 0.5
v -2 0 0.5
v -2 1 0.5
v -2 11 0.5
v -2 12 0.5
v -1 0 0.5
v -1 1 0.5
v 1 0 0.5
v 1 1 0.5
v 2 0 0.5
v 2 1 0.5
v 2 11 0.5
v 2 12 0.5
v 3 2 0.5
v 3 3 0.5
v 3 6 0.5
v 3 7 0.5
v 3 8 0.5
v 3 9 0.5
v 3 11 0.5
v 3 12 0.5
v 4 2 0.5
v 4 3 0.5
v 4 6 0.5
v 4 7 0.5
v 4 8 0.5
v 4 9 0.5
v -6 11 -1.5
v -6 12 -1.5
v -5 10 -1.5
v -5 11 -1.5
v -4 7 -1.5
v -4 8 -1.5
v -4 10 -1.5
v -4 11 -1.5
v -4 12 -1.5
v -3 7 -1.5
v -3 8 -1.5
v 3 7 -1.5
v 3 8 -1.5
v 4 7 -1.5
v 4 8 -1.5
v -4 7 -0.5
v -4 8 -0.5
v -3 7 -0.5
v -3 8 -0.5
v -2 0 -0.5
v -2 1 -0.5
v -1 0 -0.5
v -1 1 -0.5
v 1 0 -0.5
v 1 1 -0.5
v 2 0 -0.5
v 2 1 -0.5
v 3 2 -0.5
v 3 3 -0.5
v 3 6 -0.5
v 3 7 -0.5
v 3 8 -0.5
v 4 2 -0.5
v 4 3 -0.5
v 4 6 -0.5
v 4 7 -0.5
v 4 8 -0.5
v -3 1 -1.5
v -3 2 -1.5
v -3 11 -1.5
v -3 12 -1.5
v -2 11 -1.5
v -2 12 -1.5
v -1 1 -1.5
v -1 2 -1.5
v 1 1 -1.5
v 1 2 -1.5
v 2 11 -1.5
v 2 12 -1.5
v 3 1 -1.5
v 3 2 -1.5
v 3 10 -1.5
v 3 11 -1.5
v 3 12 -1.5
v 4 10 -1.5
v 4 11 -1.5
v -6 11 -2.5
v -6 12 -2.5
v -5 11 -2.5
v -4 7 -2.5
v -4 10 -2.5
v -4 11 -2.5
v -4 12 -2.5
v -3 2 -2.5
v -3 3 -2.5
v -3 6 -2.5
v -3 7 -2.5
v -3 10 -2.5
v -2 6 -2.5
v -2 7 -2.5
v -2 10 -2.5
v -2 11 -2.5
v -2 12 -2.5
v 2 6 -2.5
v 2 7 -2.5
v 2 10 -2.5
v 2 11 -2.5
v 2 12 -2.5
v 3 2 -2.5
v 3 3 -2.5
v 3 6 -2.5
v 3 7 -2.5
v 3 10 -2.5
v 3 11 -2.5
v 4 7 -2.5
v 4 10 -2.5
v -3 7 -3.5
v -3 10 -3.5
v -2 6 -3.5
v -2 7 -3.5
v -2 10 -3.5
v -2 11 -3.5
v 2 6 -3.5
v 2 7 -3.5
v 2 10 -3.5
v 2 11 -3.5
v 3 7 -3.5
v 3 10 -3.5
v -5 10 -4.5
v -5 11 -4.5
v -4 10 -4.5
v -4 11 -4.5
v -2 0 0.5
v -1 0 0.5
v 1 0 0.5
v 2 0 0.5
v -2 0 -0.5
v -1 0 -0.5
v 1 0 -0.5
v 2 0 -0.5
v -3 1 1.5
v -1 1 1.5
v 1 1 1.5
v 3 1 1.5
v -2 1 0.5
v -1 1 0.5
v 1 1 0.5
v 2 1 0.5
v -2 1 -0.5
v -1 1 -0.5
v 1 1 -0.5
v 2 1 -0.5
v -3 1 -1.5
v -1 1 -1.5
v 1 1 -1.5
v 3 1 -1.5
v -3 2 2.5
v 3 2 2.5
v -3 2 1.5
v -1 2 1.5
v 1 2 1.5
v 3 2 1.5
v 1 2 0.5
v 3 2 0.5
v 4 2 0.5
v 1 2 -0.5
v 3 2 -0.5
v 4 2 -0.5
v -3 2 -1.5
v -1 2 -1.5
v 1 2 -1.5
v 3 2 -1.5
v -3 2 -2.5
v 3 2 -2.5
v -2 6 -2.5
v 2 6 -2.5
v -2 6 -3.5
v 2 6 -3.5
v -4 7 0.5
v -3 7 0.5
v 3 7 0.5
v 4 7 0.5
v -4 7 -0.5
v -3 7 -0.5
v 3 7 -0.5
v 4 7 -0.5
v -4 7 -1.5
v -3 7 -1.5
v 3 7 -1.5
v 4 7 -1.5
v -4 7 -2.5
v -3 7 -2.5
v -2 7 -2.5
v 2 7 -2.5
v 3 7 -2.5
v 4 7 -2.5
v -3 7 -3.5
v -2 7 -3.5
v 2 7 -3.5
v 3 7 -3.5
v -4 8 1.5
v -3 8 1.5
v -4 8 0.5
v -3 8 0.5
v -4 8 -0.5
v -3 8 -0.5
v 3 8 -0.5
v 4 8 -0.5
v -4 8 -1.5
v -3 8 -1.5
v 3 8 -1.5
v 4 8 -1.5
v -3 9 2.5
v 3 9 2.5
v -3 9 1.5
v 3 9 1.5
v 4 9 1.5
v 3 9 0.5
v 4 9 0.5
v -5 10 -1.5
v -4 10 -1.5
v -4 10 -2.5
v -5 10 -4.5
v -4 10 -4.5
v -6 11 -1.5
v -5 11 -1.5
v -6 11 -2.5
v -5 11 -2.5
v -3 6 2.5
v -1 6 2.5
v 1 6 2.5
v 3 6 2.5
v -3 6 1.5
v -1 6 1.5
v 1 6 1.5
v 3 6 1.5
v 3 6 0.5
v 4 6 0.5
v 3 6 -0.5
v 4 6 -0.5
v 3 10 -1.5
v 4 10 -1.5
v -3 10 -2.5
v -2 10 -2.5
v 2 10 -2.5
v 3 10 -2.5
v 4 10 -2.5
v -3 10 -3.5
v -2 10 -3.5
v 2 10 -3.5
v 3 10 -3.5
v -3 11 2.5
v 3 11 2.5
v -4 11 1.5
v -3 11 1.5
v -2 11 1.5
v 2 11 1.5
v 3 11 1.5
v 4 11 1.5
v -3 11 0.5
v -2 11 0.5
v 2 11 0.5
v 3 11 0.5
v -4 11 -1.5
v -3 11 -1.5
v -2 11 -1.5
v 2 11 -1.5
v 3 11 -1.5
v 4 11 -1.5
v -5 11 -2.5
v -4 11 -2.5
v -2 11 -2.5
v 2 11 -2.5
v 3 11 -2.5
v -2 11 -3.5
v 2 11 -3.5
v -5 11 -4.5
v -4 11 -4.5
v -2 12 1.5
v 2 12 1.5
v -3 12 0.5
v -2 12 0.5
v 2 12 0.5
v 3 12 0.5
v -6 12 -1.5
v -4 12 -1.5
v -3 12 -1.5
v -2 12 -1.5
v 2 12 -1.5
v 3 12 -1.5
v -6 12 -2.5
v -4 12 -2.5
v -2 12 -2.5
v 2 12 -2.5

# faces
f 3/8/1 2/8/1 1/8/1
f 4/8/1 2/8/1 3/8/1
f 7/8/1 6/8/1 5/8/1
f 8/8/1 6/8/1 7/8/1
f 9/8/1 6/8/1 8/8/1
f 15/3/1 11/3/1 10/3/1
f 16/3/1 11/3/1 15/3/1
f 17/8/1 13/8/1 12/8/1
f 18/8/1 16/8/1 15/8/1
f 18/8/1 17/8/1 16/8/1
f 18/8/1 13/8/1 17/8/1
f 18/8/1 15/8/1 14/8/1
f 19/8/1 13/8/1 18/8/1
f 20/8/1 18/8/1 14/8/1
f 21/8/1 18/8/1 20/8/1
f 25/7/1 23/7/1 22/7/1
f 26/7/1 23/7/1 25/7/1
f 27/7/1 23/7/1 26/7/1
f 28/7/1 23/7/1 27/7/1
f 30/7/1 25/7/1 24/7/1
f 30/7/1 26/7/1 25/7/1
f 31/2/1 27/2/1 26/2/1
f 31/7/1 26/7/1 30/7/1
f 32/7/1 29/7/1 28/7/1
f 32/2/1 27/2/1 31/2/1
f 32/7/1 28/7/1 27/7/1
f 33/7/1 29/7/1 32/7/1
f 34/5/1 31/5/1 30/5/1
f 35/5/1 31/5/1 34/5/1
f 36/2/1 32/2/1 31/2/1
f 36/5/1 31/5/1 35/5/1
f 37/5/1 33/5/1 32/5/1
f 37/2/1 32/2/1 36/2/1
f 38/5/1 33/5/1 37/5/1
f 39/5/1 33/5/1 38/5/1
f 40/3/1 36/3/1 35/3/1
f 40/3/1 37/3/1 36/3/1
f 40/3/1 38/3/1 37/3/1
f 41/3/1 38/3/1 40/3/1
f 42/10/1 39/10/1 38/10/1
f 42/3/1 38/3/1 41/3/1
f 43/10/1 39/10/1 42/10/1
f 45/3/1 40/3/1 35/3/1
f 46/3/1 40/3/1 45/3/1
f 47/10/1 42/10/1 41/10/1
f 48/10/1 42/10/1 47/10/1
f 51/8/1 44/8/1 43/8/1
f 52/8/1 44/8/1 51/8/1
f 53/8/1 50/8/1 49/8/1
f 54/8/1 50/8/1 53/8/1
f 57/8/1 56/8/1 55/8/1
f 58/8/1 56/8/1 57/8/1
f 61/6/1 60/6/1 59/6/1
f 62/6/1 60/6/1 61/6/1
f 65/8/1 64/8/1 63/8/1
f 66/8/1 64/8/1 65/8/1
f 72/8/1 68/8/1 67/8/1
f 73/8/1 68/8/1 72/8/1
f 74/8/1 70/8/1 69/8/1
f 75/8/1 70/8/1 74/8/1
f 76/8/1 72/8/1 71/8/1
f 77/8/1 72/8/1 76/8/1
f 81/6/1 79/6/1 78/6/1
f 82/6/1 79/6/1 81/6/1
f 84/7/1 81/7/1 80/7/1
f 85/4/1 82/4/1 81/4/1
f 85/7/1 81/7/1 84/7/1
f 86/7/1 83/7/1 82/7/1
f 86/4/1 82/4/1 85/4/1
f 87/7/1 83/7/1 86/7/1
f 88/8/2 89/8/2 91/8/2
f 91/8/2 89/8/2 92/8/2
f 90/8/2 91/8/2 93/8/2
f 93/8/2 91/8/2 94/8/2
f 95/6/2 96/6/2 98/6/2
f 98/6/2 96/6/2 99/6/2
f 97/7/2 98/7/2 101/7/2
f 99/7/2 100/7/2 101/7/2
f 98/7/2 99/7/2 101/7/2
f 101/7/2 100/7/2 102/7/2
f 103/6/2 104/6/2 105/6/2
f 105/6/2 104/6/2 106/6/2
f 107/8/2 108/8/2 109/8/2
f 109/8/2 108/8/2 110/8/2
f 111/8/2 112/8/2 116/8/2
f 116/8/2 112/8/2 117/8/2
f 113/8/2 114/8/2 118/8/2
f 118/8/2 114/8/2 119/8/2
f 115/8/2 116/8/2 120/8/2
f 120/8/2 116/8/2 121/8/2
f 122/7/2 123/7/2 125/7/2
f 125/7/2 123/7/2 126/7/2
f 126/7/2 123/7/2 127/7/2
f 127/7/2 123/7/2 128/7/2
f 124/7/2 125/7/2 130/7/2
f 125/7/2 126/7/2 130/7/2
f 130/7/2 126/7/2 131/7/2
f 128/7/2 129/7/2 132/7/2
f 127/7/2 128/7/2 132/7/2
f 132/7/2 129/7/2 133/7/2
f 130/5/2 131/5/2 134/5/2
f 134/5/2 131/5/2 135/5/2
f 135/5/2 131/5/2 136/5/2
f 132/5/2 133/5/2 137/5/2
f 137/5/2 133/5/2 138/5/2
f 138/5/2 133/5/2 139/5/2
f 135/3/2 136/3/2 140/3/2
f 136/3/2 137/3/2 140/3/2
f 137/3/2 138/3/2 140/3/2
f 140/3/2 138/3/2 141/3/2
f 138/10/2 139/10/2 142/10/2
f 141/3/2 138/3/2 142/3/2
f 142/10/2 139/10/2 143/10/2
f 135/3/2 140/3/2 145/3/2
f 141/10/2 142/10/2 146/10/2
f 146/10/2 142/10/2 147/10/2
f 135/3/2 145/3/2 149/3/2
f 149/3/2 145/3/2 150/3/2
f 143/8/2 144/8/2 152/8/2
f 152/8/2 144/8/2 153/8/2
f 148/8/2 149/8/2 154/8/2
f 154/8/2 149/8/2 155/8/2
f 151/8/2 152/8/2 157/8/2
f 157/8/2 152/8/2 158/8/2
f 156/8/2 157/8/2 159/8/2
f 159/8/2 157/8/2 160/8/2
f 161/3/2 162/3/2 163/3/2
f 163/3/2 162/3/2 164/3/2
f 163/1/2 164/1/2 165/1/2
f 165/1/2 164/1/2 166/1/2
f 167/3/2 168/3/2 171/3/2
f 171/3/2 168/3/2 172/3/2
f 169/8/2 170/8/2 173/8/2
f 171/8/2 172/8/2 175/8/2
f 172/8/2 173/8/2 175/8/2
f 173/8/2 170/8/2 176/8/2
f 174/8/2 175/8/2 176/8/2
f 175/8/2 173/8/2 176/8/2
f 176/8/2 170/8/2 177/8/2
f 174/8/2 176/8/2 178/8/2
f 178/8/2 176/8/2 179/8/2
f 185/7/3 181/7/3 180/7/3
f 185/5/3 182/5/3 181/5/3
f 186/5/3 182/5/3 185/5/3
f 187/7/3 185/7/3 180/7/3
f 187/1/3 186/1/3 185/1/3
f 188/1/3 186/1/3 187/1/3
f 189/7/3 187/7/3 180/7/3
f 190/5/3 188/5/3 187/5/3
f 190/7/3 187/7/3 189/7/3
f 191/5/3 188/5/3 190/5/3
f 192/8/3 184/8/3 183/8/3
f 193/8/3 184/8/3 192/8/3
f 199/8/3 195/8/3 194/8/3
f 200/8/3 195/8/3 199/8/3
f 201/8/3 195/8/3 200/8/3
f 202/3/3 199/3/3 198/3/3
f 202/3/3 200/3/3 199/3/3
f 203/3/3 200/3/3 202/3/3
f 206/7/3 197/7/3 196/7/3
f 207/7/3 197/7/3 206/7/3
f 208/3/3 202/3/3 198/3/3
f 209/11/3 203/11/3 202/11/3
f 209/3/3 202/3/3 208/3/3
f 210/3/3 200/3/3 203/3/3
f 210/11/3 203/11/3 209/11/3
f 213/9/3 209/9/3 208/9/3
f 214/3/3 210/3/3 209/3/3
f 214/9/3 209/9/3 213/9/3
f 215/3/3 200/3/3 210/3/3
f 215/3/3 210/3/3 214/3/3
f 216/3/3 214/3/3 213/3/3
f 216/11/3 215/11/3 214/11/3
f 217/3/3 200/3/3 215/3/3
f 217/11/3 215/11/3 216/11/3
f 218/8/3 205/8/3 204/8/3
f 219/8/3 205/8/3 218/8/3
f 220/7/3 212/7/3 211/7/3
f 221/7/3 212/7/3 220/7/3
f 222/3/3 216/3/3 213/3/3
f 222/3/3 217/3/3 216/3/3
f 223/3/3 200/3/3 217/3/3
f 223/3/3 217/3/3 222/3/3
f 225/8/3 224/8/3 223/8/3
f 226/8/3 224/8/3 225/8/3
f 229/3/3 228/3/3 227/3/3
f 230/3/3 228/3/3 229/3/3
f 235/8/3 232/8/3 231/8/3
f 236/8/3 232/8/3 235/8/3
f 237/6/3 234/6/3 233/6/3
f 238/6/3 234/6/3 237/6/3
f 241/6/3 240/6/3 239/6/3
f 242/6/3 240/6/3 241/6/3
f 251/8/3 244/8/3 243/8/3
f 252/8/3 244/8/3 251/8/3
f 253/3/3 246/3/3 245/3/3
f 254/1/3 247/1/3 246/1/3
f 254/3/3 246/3/3 253/3/3
f 255/1/3 247/1/3 254/1/3
f 256/3/3 249/3/3 248/3/3
f 257/8/3 250/8/3 249/8/3
f 257/3/3 249/3/3 256/3/3
f 258/8/3 250/8/3 257/8/3
f 262/8/3 260/8/3 259/8/3
f 265/8/3 262/8/3 261/8/3
f 266/8/3 260/8/3 262/8/3
f 266/8/3 262/8/3 265/8/3
f 267/8/3 260/8/3 266/8/3
f 268/8/3 264/8/3 263/8/3
f 269/8/3 264/8/3 268/8/3
f 272/8/3 271/8/3 270/8/3
f 273/8/3 271/8/3 272/8/3
f 274/3/4 275/3/4 276/3/4
f 276/3/4 275/3/4 277/3/4
f 278/6/4 279/6/4 280/6/4
f 280/6/4 279/6/4 281/6/4
f 282/6/4 283/6/4 284/6/4
f 284/6/4 283/6/4 285/6/4
f 286/3/4 287/3/4 291/3/4
f 287/1/4 288/1/4 292/1/4
f 291/3/4 287/3/4 292/3/4
f 292/1/4 288/1/4 293/1/4
f 289/3/4 290/3/4 294/3/4
f 294/3/4 290/3/4 295/3/4
f 298/8/4 299/8/4 300/8/4
f 300/8/4 299/8/4 301/8/4
f 296/7/4 297/7/4 302/7/4
f 302/7/4 297/7/4 303/7/4
f 304/7/4 305/7/4 308/7/4
f 308/7/4 305/7/4 309/7/4
f 306/8/4 307/8/4 311/8/4
f 311/8/4 307/8/4 312/8/4
f 310/8/4 311/8/4 313/8/4
f 313/8/4 311/8/4 314/8/4
f 315/8/4 316/8/4 317/8/4
f 317/8/4 316/8/4 320/8/4
f 320/8/4 316/8/4 321/8/4
f 318/8/4 319/8/4 325/8/4
f 319/8/4 320/8/4 325/8/4
f 325/8/4 320/8/4 326/8/4
f 323/5/4 324/5/4 327/5/4
f 324/10/4 325/10/4 327/10/4
f 327/10/4 325/10/4 328/10/4
f 326/8/4 320/8/4 329/8/4
f 329/8/4 320/8/4 330/8/4
f 323/5/4 327/5/4 332/5/4
f 330/8/4 331/8/4 335/8/4
f 335/8/4 331/8/4 336/8/4
f 322/7/4 323/7/4 337/7/4
f 323/5/4 332/5/4 338/5/4
f 337/7/4 323/7/4 338/7/4
f 332/10/4 333/10/4 339/10/4
f 338/5/4 332/5/4 339/5/4
f 339/10/4 333/10/4 340/10/4
f 334/8/4 335/8/4 341/8/4
f 341/8/4 335/8/4 342/8/4
f 340/8/4 341/8/4 343/8/4
f 343/8/4 341/8/4 344/8/4
f 345/8/4 346/8/4 348/8/4
f 348/8/4 346/8/4 349/8/4
f 347/8/4 348/8/4 351/8/4
f 349/8/4 350/8/4 351/8/4
f 348/8/4 349/8/4 351/8/4
f 351/8/4 350/8/4 352/8/4
f 352/8/4 350/8/4 353/8/4
f 353/8/4 350/8/4 354/8/4
f 352/8/4 353/8/4 355/8/4
f 355/8/4 353/8/4 356/8/4
f 357/8/4 358/8/4 359/8/4
f 359/8/4 358/8/4 360/8/4
f 365/6/5 362/6/5 361/6/5
f 366/6/5 362/6/5 365/6/5
f 367/6/5 364/6/5 363/6/5
f 368/6/5 364/6/5 367/6/5
f 373/7/5 370/7/5 369/7/5
f 374/7/5 370/7/5 373/7/5
f 375/7/5 372/7/5 371/7/5
f 376/7/5 372/7/5 375/7/5
f 377/7/5 373/7/5 369/7/5
f 380/7/5 372/7/5 376/7/5
f 381/7/5 378/7/5 377/7/5
f 381/7/5 377/7/5 369/7/5
f 382/7/5 378/7/5 381/7/5
f 383/7/5 380/7/5 379/7/5
f 384/7/5 372/7/5 380/7/5
f 384/7/5 380/7/5 383/7/5
f 387/7/5 386/7/5 385/7/5
f 388/7/5 386/7/5 387/7/5
f 389/7/5 386/7/5 388/7/5
f 390/7/5 386/7/5 389/7/5
f 391/7/5 389/7/5 388/7/5
f 394/7/5 391/7/5 388/7/5
f 395/3/5 393/3/5 392/3/5
f 396/3/5 393/3/5 395/3/5
f 398/7/5 394/7/5 388/7/5
f 399/7/5 394/7/5 398/7/5
f 401/7/5 398/7/5 397/7/5
f 401/7/5 400/7/5 399/7/5
f 401/7/5 399/7/5 398/7/5
f 402/7/5 400/7/5 401/7/5
f 405/8/5 404/8/5 403/8/5
f 406/8/5 404/8/5 405/8/5
f 411/3/5 408/3/5 407/3/5
f 412/3/5 408/3/5 411/3/5
f 413/3/5 410/3/5 409/3/5
f 414/3/5 410/3/5 413/3/5
f 419/8/5 416/8/5 415/8/5
f 420/8/5 416/8/5 419/8/5
f 423/8/5 418/8/5 417/8/5
f 424/8/5 418/8/5 423/8/5
f 425/8/5 421/8/5 420/8/5
f 426/8/5 421/8/5 425/8/5
f 427/8/5 423/8/5 422/8/5
f 428/8/5 423/8/5 427/8/5
f 431/8/5 430/8/5 429/8/5
f 432/8/5 430/8/5 431/8/5
f 437/8/5 434/8/5 433/8/5
f 438/8/5 434/8/5 437/8/5
f 439/8/5 436/8/5 435/8/5
f 440/8/5 436/8/5 439/8/5
f 443/8/5 442/8/5 441/8/5
f 444/8/5 442/8/5 443/8/5
f 446/8/5 445/8/5 444/8/5
f 447/8/5 445/8/5 446/8/5
f 450/8/5 449/8/5 448/8/5
f 451/8/5 450/8/5 448/8/5
f 452/8/5 450/8/5 451/8/5
f 455/8/5 454/8/5 453/8/5
f 456/8/5 454/8/5 455/8/5
f 457/5/6 458/5/6 461/5/6
f 458/1/6 459/1/6 462/1/6
f 461/5/6 458/5/6 462/5/6
f 459/5/6 460/5/6 463/5/6
f 462/1/6 459/1/6 463/1/6
f 463/5/6 460/5/6 464/5/6
f 465/1/6 466/1/6 467/1/6
f 467/1/6 466/1/6 468/1/6
f 469/8/6 470/8/6 474/8/6
f 474/8/6 470/8/6 475/8/6
f 471/8/6 472/8/6 476/8/6
f 476/8/6 472/8/6 477/8/6
f 473/8/6 474/8/6 478/8/6
f 478/8/6 474/8/6 479/8/6
f 480/8/6 481/8/6 483/8/6
f 483/8/6 481/8/6 484/8/6
f 484/8/6 481/8/6 485/8/6
f 485/8/6 481/8/6 486/8/6
f 482/8/6 483/8/6 488/8/6
f 483/8/6 484/8/6 488/8/6
f 488/8/6 484/8/6 489/8/6
f 486/8/6 487/8/6 490/8/6
f 485/8/6 486/8/6 490/8/6
f 490/8/6 487/8/6 491/8/6
f 482/8/6 488/8/6 492/8/6
f 492/8/6 488/8/6 493/8/6
f 491/8/6 487/8/6 496/8/6
f 496/8/6 487/8/6 497/8/6
f 493/8/6 494/8/6 499/8/6
f 492/8/6 493/8/6 499/8/6
f 499/8/6 494/8/6 500/8/6
f 495/8/6 496/8/6 501/8/6
f 501/8/6 496/8/6 502/8/6
f 500/8/6 501/8/6 503/8/6
f 503/8/6 501/8/6 504/8/6
f 498/8/6 499/8/6 505/8/6
f 505/8/6 499/8/6 506/8/6
f 507/8/6 508/8/6 510/8/6
f 510/8/6 508/8/6 511/8/6
f 509/8/6 510/8/6 515/8/6
f 510/8/6 511/8/6 515/8/6
f 511/8/6 512/8/6 515/8/6
f 515/8/6 512/8/6 516/8/6
f 516/8/6 512/8/6 517/8/6
f 517/8/6 512/8/6 518/8/6
f 513/8/6 514/8/6 519/8/6
f 519/8/6 514/8/6 520/8/6
f 516/8/6 517/8/6 521/8/6
f 521/8/6 517/8/6 522/8/6
