# MagicaVoxel @ ephtracy

# material
mtllib BoatWheel.mtl
usemtl palette

# normals
vn -1 0 0
vn 1 0 0
vn 0 0 1
vn 0 0 -1
vn 0 -1 0
vn 0 1 0

# texcoords
vt 0.396484 0.5
vt 0.400391 0.5

# verts
v -5 7 -2
v -5 7 -3
v -5 8 -2
v -5 8 -3
v -4 0 2
v -4 0 -2
v -4 1 2
v -4 1 -2
v -4 6 -2
v -4 6 -3
v -4 7 -2
v -4 7 -3
v -3 1 1
v -3 1 -1
v -3 6 -3
v -3 6 -4
v -3 8 -3
v -3 8 -4
v -3 9 1
v -3 9 -1
v -2 3 -2
v -2 3 -3
v -2 5 -3
v -2 5 -4
v -2 6 -1
v -2 6 -2
v -2 6 -3
v -2 6 -4
v -2 8 -1
v -2 8 -2
v -2 8 -3
v -2 8 -4
v -2 9 1
v -2 9 -1
v -2 9 -3
v -2 9 -4
v -2 10 1
v -2 10 -1
v -2 10 -2
v -2 10 -3
v -1 10 -2
v -1 10 -3
v -1 11 -2
v -1 11 -3
v 0 6 -3
v 0 6 -4
v 0 8 -3
v 0 8 -4
v -2 6 -3
v -2 6 -4
v -2 8 -3
v -2 8 -4
v -1 3 -2
v -1 3 -3
v -1 4 -2
v -1 4 -3
v 0 4 -2
v 0 4 -3
v 0 5 -3
v 0 5 -4
v 0 6 -1
v 0 6 -2
v 0 6 -3
v 0 6 -4
v 0 8 -1
v 0 8 -2
v 0 8 -3
v 0 8 -4
v 0 9 1
v 0 9 -1
v 0 9 -3
v 0 9 -4
v 0 10 1
v 0 10 -1
v 0 11 -2
v 0 11 -3
v 1 1 1
v 1 1 -1
v 1 6 -3
v 1 6 -4
v 1 8 -3
v 1 8 -4
v 1 9 1
v 1 9 -1
v 2 0 2
v 2 0 -2
v 2 1 2
v 2 1 -2
v 2 7 -2
v 2 7 -3
v 2 8 -2
v 2 8 -3
v 3 6 -2
v 3 6 -3
v 3 7 -2
v 3 7 -3
v -4 0 2
v -4 1 2
v 2 0 2
v 2 1 2
v -3 1 1
v -3 9 1
v -2 9 1
v -2 10 1
v 0 9 1
v 0 10 1
v 1 1 1
v 1 9 1
v -5 7 -2
v -5 8 -2
v -4 6 -2
v -4 7 -2
v -2 3 -2
v -2 6 -2
v -2 8 -2
v -2 10 -2
v -1 3 -2
v -1 4 -2
v -1 10 -2
v -1 11 -2
v 0 4 -2
v 0 6 -2
v 0 8 -2
v 0 11 -2
v 2 7 -2
v 2 8 -2
v 3 6 -2
v 3 7 -2
v -3 1 -1
v -3 9 -1
v -2 6 -1
v -2 8 -1
v -2 9 -1
v -2 10 -1
v 0 6 -1
v 0 8 -1
v 0 9 -1
v 0 10 -1
v 1 1 -1
v 1 9 -1
v -4 0 -2
v -4 1 -2
v 2 0 -2
v 2 1 -2
v -5 7 -3
v -5 8 -3
v -4 6 -3
v -4 7 -3
v -3 6 -3
v -3 8 -3
v -2 3 -3
v -2 5 -3
v -2 6 -3
v -2 8 -3
v -2 9 -3
v -2 10 -3
v -1 3 -3
v -1 4 -3
v -1 10 -3
v -1 11 -3
v 0 4 -3
v 0 5 -3
v 0 6 -3
v 0 8 -3
v 0 9 -3
v 0 11 -3
v 1 6 -3
v 1 8 -3
v 2 7 -3
v 2 8 -3
v 3 6 -3
v 3 7 -3
v -3 6 -4
v -3 8 -4
v -2 5 -4
v -2 6 -4
v -2 8 -4
v -2 9 -4
v 0 5 -4
v 0 6 -4
v 0 8 -4
v 0 9 -4
v 1 6 -4
v 1 8 -4
v -4 0 2
v 2 0 2
v -4 0 -2
v 2 0 -2
v -2 3 -2
v -1 3 -2
v -2 3 -3
v -1 3 -3
v -1 4 -2
v 0 4 -2
v -1 4 -3
v 0 4 -3
v -2 5 -3
v 0 5 -3
v -2 5 -4
v 0 5 -4
v -2 6 -1
v 0 6 -1
v -4 6 -2
v -2 6 -2
v 0 6 -2
v 3 6 -2
v -4 6 -3
v -3 6 -3
v -2 6 -3
v 0 6 -3
v 1 6 -3
v 3 6 -3
v -3 6 -4
v -2 6 -4
v 0 6 -4
v 1 6 -4
v -5 7 -2
v -4 7 -2
v -5 7 -3
v -4 7 -3
v -2 8 -3
v 0 8 -3
v -2 8 -4
v 0 8 -4
v -4 1 2
v 2 1 2
v -3 1 1
v 1 1 1
v -3 1 -1
v 1 1 -1
v -4 1 -2
v 2 1 -2
v -2 6 -3
v 0 6 -3
v -2 6 -4
v 0 6 -4
v 2 7 -2
v 3 7 -2
v 2 7 -3
v 3 7 -3
v -2 8 -1
v 0 8 -1
v -5 8 -2
v -2 8 -2
v 0 8 -2
v 2 8 -2
v -5 8 -3
v -3 8 -3
v -2 8 -3
v 0 8 -3
v 1 8 -3
v 2 8 -3
v -3 8 -4
v -2 8 -4
v 0 8 -4
v 1 8 -4
v -3 9 1
v -2 9 1
v 0 9 1
v 1 9 1
v -3 9 -1
v -2 9 -1
v 0 9 -1
v 1 9 -1
v -2 9 -3
v 0 9 -3
v -2 9 -4
v 0 9 -4
v -2 10 1
v 0 10 1
v -2 10 -1
v 0 10 -1
v -2 10 -2
v -1 10 -2
v -2 10 -3
v -1 10 -3
v -1 11 -2
v 0 11 -2
v -1 11 -3
v 0 11 -3

# faces
f 3/2/1 2/2/1 1/2/1
f 4/2/1 2/2/1 3/2/1
f 7/2/1 6/2/1 5/2/1
f 8/2/1 6/2/1 7/2/1
f 11/2/1 10/2/1 9/2/1
f 12/2/1 10/2/1 11/2/1
f 17/1/1 16/1/1 15/1/1
f 18/1/1 16/1/1 17/1/1
f 19/1/1 14/1/1 13/1/1
f 20/1/1 14/1/1 19/1/1
f 23/2/1 22/2/1 21/2/1
f 26/2/1 23/2/1 21/2/1
f 27/1/1 24/1/1 23/1/1
f 27/2/1 23/2/1 26/2/1
f 28/1/1 24/1/1 27/1/1
f 29/2/1 26/2/1 25/2/1
f 30/2/1 26/2/1 29/2/1
f 35/1/1 32/1/1 31/1/1
f 35/2/1 31/2/1 30/2/1
f 36/1/1 32/1/1 35/1/1
f 37/1/1 34/1/1 33/1/1
f 38/1/1 34/1/1 37/1/1
f 39/2/1 35/2/1 30/2/1
f 40/2/1 35/2/1 39/2/1
f 43/2/1 42/2/1 41/2/1
f 44/2/1 42/2/1 43/2/1
f 47/1/1 46/1/1 45/1/1
f 48/1/1 46/1/1 47/1/1
f 49/1/2 50/1/2 51/1/2
f 51/1/2 50/1/2 52/1/2
f 53/2/2 54/2/2 55/2/2
f 55/2/2 54/2/2 56/2/2
f 57/2/2 58/2/2 59/2/2
f 57/2/2 59/2/2 62/2/2
f 59/1/2 60/1/2 63/1/2
f 62/2/2 59/2/2 63/2/2
f 63/1/2 60/1/2 64/1/2
f 61/2/2 62/2/2 65/2/2
f 65/2/2 62/2/2 66/2/2
f 67/1/2 68/1/2 71/1/2
f 66/2/2 67/2/2 71/2/2
f 71/1/2 68/1/2 72/1/2
f 69/1/2 70/1/2 73/1/2
f 73/1/2 70/1/2 74/1/2
f 66/2/2 71/2/2 75/2/2
f 75/2/2 71/2/2 76/2/2
f 79/1/2 80/1/2 81/1/2
f 81/1/2 80/1/2 82/1/2
f 77/1/2 78/1/2 83/1/2
f 83/1/2 78/1/2 84/1/2
f 85/2/2 86/2/2 87/2/2
f 87/2/2 86/2/2 88/2/2
f 89/2/2 90/2/2 91/2/2
f 91/2/2 90/2/2 92/2/2
f 93/2/2 94/2/2 95/2/2
f 95/2/2 94/2/2 96/2/2
f 99/2/3 98/2/3 97/2/3
f 100/2/3 98/2/3 99/2/3
f 103/1/3 102/1/3 101/1/3
f 105/1/3 103/1/3 101/1/3
f 105/1/3 104/1/3 103/1/3
f 106/1/3 104/1/3 105/1/3
f 107/1/3 105/1/3 101/1/3
f 108/1/3 105/1/3 107/1/3
f 112/2/3 110/2/3 109/2/3
f 114/2/3 112/2/3 111/2/3
f 115/2/3 110/2/3 112/2/3
f 115/2/3 112/2/3 114/2/3
f 117/2/3 114/2/3 113/2/3
f 118/2/3 114/2/3 117/2/3
f 119/2/3 116/2/3 115/2/3
f 121/2/3 114/2/3 118/2/3
f 122/2/3 114/2/3 121/2/3
f 123/2/3 120/2/3 119/2/3
f 123/2/3 119/2/3 115/2/3
f 124/2/3 120/2/3 123/2/3
f 125/2/3 123/2/3 122/2/3
f 126/2/3 123/2/3 125/2/3
f 127/2/3 125/2/3 122/2/3
f 128/2/3 125/2/3 127/2/3
f 129/1/4 130/1/4 131/1/4
f 131/1/4 130/1/4 132/1/4
f 132/1/4 130/1/4 133/1/4
f 129/1/4 131/1/4 135/1/4
f 133/1/4 134/1/4 136/1/4
f 132/1/4 133/1/4 136/1/4
f 136/1/4 134/1/4 137/1/4
f 137/1/4 134/1/4 138/1/4
f 129/1/4 135/1/4 139/1/4
f 135/1/4 136/1/4 139/1/4
f 136/1/4 137/1/4 139/1/4
f 139/1/4 137/1/4 140/1/4
f 141/2/4 142/2/4 143/2/4
f 143/2/4 142/2/4 144/2/4
f 145/2/4 146/2/4 148/2/4
f 147/2/4 148/2/4 149/2/4
f 148/2/4 146/2/4 150/2/4
f 149/2/4 148/2/4 150/2/4
f 151/2/4 152/2/4 157/2/4
f 157/2/4 152/2/4 158/2/4
f 155/2/4 156/2/4 159/2/4
f 158/2/4 152/2/4 161/2/4
f 161/2/4 152/2/4 162/2/4
f 153/2/4 154/2/4 163/2/4
f 163/2/4 154/2/4 164/2/4
f 159/2/4 160/2/4 165/2/4
f 155/2/4 159/2/4 165/2/4
f 165/2/4 160/2/4 166/2/4
f 167/2/4 168/2/4 169/2/4
f 169/2/4 168/2/4 170/2/4
f 167/2/4 169/2/4 171/2/4
f 171/2/4 169/2/4 172/2/4
f 173/1/4 174/1/4 176/1/4
f 176/1/4 174/1/4 177/1/4
f 175/1/4 176/1/4 179/1/4
f 179/1/4 176/1/4 180/1/4
f 177/1/4 178/1/4 181/1/4
f 181/1/4 178/1/4 182/1/4
f 180/1/4 181/1/4 183/1/4
f 183/1/4 181/1/4 184/1/4
f 187/2/5 186/2/5 185/2/5
f 188/2/5 186/2/5 187/2/5
f 191/2/5 190/2/5 189/2/5
f 192/2/5 190/2/5 191/2/5
f 195/2/5 194/2/5 193/2/5
f 196/2/5 194/2/5 195/2/5
f 199/1/5 198/1/5 197/1/5
f 200/1/5 198/1/5 199/1/5
f 204/2/5 202/2/5 201/2/5
f 205/2/5 202/2/5 204/2/5
f 207/2/5 204/2/5 203/2/5
f 208/2/5 204/2/5 207/2/5
f 209/2/5 204/2/5 208/2/5
f 210/2/5 206/2/5 205/2/5
f 211/2/5 206/2/5 210/2/5
f 212/2/5 206/2/5 211/2/5
f 213/1/5 209/1/5 208/1/5
f 214/1/5 209/1/5 213/1/5
f 215/1/5 211/1/5 210/1/5
f 216/1/5 211/1/5 215/1/5
f 219/2/5 218/2/5 217/2/5
f 220/2/5 218/2/5 219/2/5
f 223/1/5 222/1/5 221/1/5
f 224/1/5 222/1/5 223/1/5
f 225/2/6 226/2/6 227/2/6
f 227/2/6 226/2/6 228/2/6
f 225/2/6 227/2/6 229/2/6
f 228/2/6 226/2/6 230/2/6
f 225/2/6 229/2/6 231/2/6
f 229/2/6 230/2/6 231/2/6
f 230/2/6 226/2/6 232/2/6
f 231/2/6 230/2/6 232/2/6
f 233/1/6 234/1/6 235/1/6
f 235/1/6 234/1/6 236/1/6
f 237/2/6 238/2/6 239/2/6
f 239/2/6 238/2/6 240/2/6
f 241/2/6 242/2/6 244/2/6
f 244/2/6 242/2/6 245/2/6
f 243/2/6 244/2/6 247/2/6
f 247/2/6 244/2/6 248/2/6
f 248/2/6 244/2/6 249/2/6
f 245/2/6 246/2/6 250/2/6
f 250/2/6 246/2/6 251/2/6
f 251/2/6 246/2/6 252/2/6
f 248/1/6 249/1/6 253/1/6
f 253/1/6 249/1/6 254/1/6
f 250/1/6 251/1/6 255/1/6
f 255/1/6 251/1/6 256/1/6
f 257/1/6 258/1/6 261/1/6
f 261/1/6 258/1/6 262/1/6
f 259/1/6 260/1/6 263/1/6
f 263/1/6 260/1/6 264/1/6
f 265/1/6 266/1/6 267/1/6
f 267/1/6 266/1/6 268/1/6
f 269/1/6 270/1/6 271/1/6
f 271/1/6 270/1/6 272/1/6
f 273/2/6 274/2/6 275/2/6
f 275/2/6 274/2/6 276/2/6
f 277/2/6 278/2/6 279/2/6
f 279/2/6 278/2/6 280/2/6
