# MagicaVoxel @ ephtracy

# material
mtllib chicken.mtl
usemtl palette

# normals
vn -1 0 0
vn 1 0 0
vn 0 0 1
vn 0 0 -1
vn 0 -1 0
vn 0 1 0

# texcoords
vt 0.0917969 0.5
vt 0.845703 0.5
vt 0.958984 0.5
vt 0.990234 0.5

# verts
v -4 0 1.5
v -4 0 0.5
v -4 1 1.5
v -4 1 0.5
v -4 4 1.5
v -4 4 -3.5
v -4 6 -1.5
v -4 6 -3.5
v -4 6 -4.5
v -4 6 -5.5
v -4 7 1.5
v -4 7 -1.5
v -4 7 -4.5
v -4 7 -5.5
v -3 0 0.5
v -3 0 -1.5
v -3 1 0.5
v -3 1 -1.5
v -3 3 1.5
v -3 3 -3.5
v -3 4 2.5
v -3 4 1.5
v -3 4 -3.5
v -3 4 -4.5
v -3 6 -1.5
v -3 6 -3.5
v -3 6 -4.5
v -3 7 2.5
v -3 7 1.5
v -3 7 -1.5
v -3 7 -4.5
v -3 7 -5.5
v -3 9 -4.5
v -3 9 -5.5
v -2 0 1.5
v -2 0 0.5
v -2 1 1.5
v -2 1 0.5
v -2 1 -0.5
v -2 1 -1.5
v -2 3 -0.5
v -2 3 -1.5
v -2 5 -4.5
v -2 5 -5.5
v -2 6 3.5
v -2 6 2.5
v -2 6 -4.5
v -2 6 -5.5
v -2 7 2.5
v -2 7 0.5
v -2 7 -3.5
v -2 7 -4.5
v -2 8 3.5
v -2 8 2.5
v -2 8 -3.5
v -2 8 -4.5
v -2 9 3.5
v -2 9 2.5
v -2 10 3.5
v -2 10 0.5
v -1 3 -0.5
v -1 3 -1.5
v -1 4 -0.5
v -1 4 -1.5
v -1 7 4.5
v -1 7 3.5
v -1 7 0.5
v -1 7 -0.5
v -1 7 -2.5
v -1 7 -3.5
v -1 8 4.5
v -1 8 3.5
v -1 8 0.5
v -1 8 -0.5
v -1 8 -2.5
v -1 8 -3.5
v -1 8 -4.5
v -1 8 -5.5
v -1 9 -4.5
v -1 9 -5.5
v -1 10 3.5
v -1 10 2.5
v -1 11 3.5
v -1 11 2.5
v 0 6 -2.5
v 0 6 -3.5
v 0 7 2.5
v 0 7 1.5
v 0 7 -2.5
v 0 7 -3.5
v 0 9 2.5
v 0 9 1.5
v 1 0 1.5
v 1 0 -1.5
v 1 1 1.5
v 1 1 -0.5
v 1 3 -0.5
v 1 3 -1.5
v 2 3 -0.5
v 2 3 -1.5
v 2 4 -0.5
v 2 4 -1.5
v 2 5 -3.5
v 2 5 -4.5
v 2 6 2.5
v 2 6 1.5
v 2 6 0.5
v 2 6 -3.5
v 2 7 2.5
v 2 7 0.5
v 2 7 -3.5
v 2 7 -4.5
v 2 8 -4.5
v 2 8 -5.5
v 2 9 -4.5
v 2 9 -5.5
v 3 0 1.5
v 3 0 0.5
v 3 1 1.5
v 3 1 0.5
v 3 4 1.5
v 3 4 -3.5
v 3 6 1.5
v 3 6 -3.5
v -3 0 1.5
v -3 0 0.5
v -3 1 1.5
v -3 1 0.5
v -3 4 1.5
v -3 4 -3.5
v -3 6 1.5
v -3 6 -3.5
v -2 3 -0.5
v -2 3 -1.5
v -2 4 -0.5
v -2 4 -1.5
v -2 5 -3.5
v -2 5 -4.5
v -2 6 2.5
v -2 6 1.5
v -2 6 0.5
v -2 6 -3.5
v -2 7 2.5
v -2 7 0.5
v -2 7 -3.5
v -2 7 -4.5
v -2 8 -4.5
v -2 8 -5.5
v -2 9 -4.5
v -2 9 -5.5
v -1 0 1.5
v -1 0 -1.5
v -1 1 1.5
v -1 1 -0.5
v -1 3 -0.5
v -1 3 -1.5
v -1 6 -2.5
v -1 6 -3.5
v -1 7 2.5
v -1 7 1.5
v -1 7 -2.5
v -1 7 -3.5
v -1 9 2.5
v -1 9 1.5
v 0 3 -0.5
v 0 3 -1.5
v 0 4 -0.5
v 0 4 -1.5
v 1 7 4.5
v 1 7 3.5
v 1 7 0.5
v 1 7 -0.5
v 1 7 -2.5
v 1 7 -3.5
v 1 8 4.5
v 1 8 3.5
v 1 8 0.5
v 1 8 -0.5
v 1 8 -2.5
v 1 8 -3.5
v 1 8 -4.5
v 1 8 -5.5
v 1 9 -4.5
v 1 9 -5.5
v 1 10 3.5
v 1 10 2.5
v 1 11 3.5
v 1 11 2.5
v 2 0 1.5
v 2 0 0.5
v 2 1 1.5
v 2 1 0.5
v 2 1 -0.5
v 2 1 -1.5
v 2 3 -0.5
v 2 3 -1.5
v 2 5 -4.5
v 2 5 -5.5
v 2 6 3.5
v 2 6 2.5
v 2 6 -4.5
v 2 6 -5.5
v 2 7 2.5
v 2 7 0.5
v 2 7 -3.5
v 2 7 -4.5
v 2 8 3.5
v 2 8 2.5
v 2 8 -3.5
v 2 8 -4.5
v 2 9 3.5
v 2 9 2.5
v 2 10 3.5
v 2 10 0.5
v 3 0 0.5
v 3 0 -1.5
v 3 1 0.5
v 3 1 -1.5
v 3 3 1.5
v 3 3 -3.5
v 3 4 2.5
v 3 4 1.5
v 3 4 -3.5
v 3 4 -4.5
v 3 6 -1.5
v 3 6 -3.5
v 3 6 -4.5
v 3 7 2.5
v 3 7 1.5
v 3 7 -1.5
v 3 7 -4.5
v 3 7 -5.5
v 3 9 -4.5
v 3 9 -5.5
v 4 0 1.5
v 4 0 0.5
v 4 1 1.5
v 4 1 0.5
v 4 4 1.5
v 4 4 -3.5
v 4 6 -1.5
v 4 6 -3.5
v 4 6 -4.5
v 4 6 -5.5
v 4 7 1.5
v 4 7 -1.5
v 4 7 -4.5
v 4 7 -5.5
v -1 7 4.5
v -1 8 4.5
v 1 7 4.5
v 1 8 4.5
v -2 6 3.5
v -2 8 3.5
v -2 9 3.5
v -2 10 3.5
v -1 7 3.5
v -1 8 3.5
v -1 9 3.5
v -1 10 3.5
v -1 11 3.5
v 1 7 3.5
v 1 8 3.5
v 1 9 3.5
v 1 10 3.5
v 1 11 3.5
v 2 6 3.5
v 2 8 3.5
v 2 9 3.5
v 2 10 3.5
v -3 4 2.5
v -3 7 2.5
v -2 6 2.5
v -2 7 2.5
v 2 6 2.5
v 2 7 2.5
v 3 4 2.5
v 3 7 2.5
v -4 0 1.5
v -4 1 1.5
v -4 4 1.5
v -4 7 1.5
v -3 0 1.5
v -3 1 1.5
v -3 3 1.5
v -3 4 1.5
v -3 7 1.5
v -2 0 1.5
v -2 1 1.5
v -1 0 1.5
v -1 1 1.5
v -1 7 1.5
v -1 9 1.5
v 0 7 1.5
v 0 9 1.5
v 1 0 1.5
v 1 1 1.5
v 2 0 1.5
v 2 1 1.5
v 3 0 1.5
v 3 1 1.5
v 3 3 1.5
v 3 4 1.5
v 3 7 1.5
v 4 0 1.5
v 4 1 1.5
v 4 4 1.5
v 4 7 1.5
v -3 0 0.5
v -3 1 0.5
v -2 0 0.5
v -2 1 0.5
v -2 6 0.5
v -2 7 0.5
v 2 0 0.5
v 2 1 0.5
v 2 6 0.5
v 2 7 0.5
v 3 0 0.5
v 3 1 0.5
v -2 1 -0.5
v -2 3 -0.5
v -1 1 -0.5
v -1 3 -0.5
v 1 1 -0.5
v 1 3 -0.5
v 2 1 -0.5
v 2 3 -0.5
v -2 3 -1.5
v -2 4 -1.5
v -1 3 -1.5
v -1 4 -1.5
v 0 3 -1.5
v 0 4 -1.5
v 1 3 -1.5
v 2 3 -1.5
v 2 4 -1.5
v -1 7 -2.5
v -1 8 -2.5
v 1 7 -2.5
v 1 8 -2.5
v -3 4 -3.5
v -3 6 -3.5
v -2 5 -3.5
v -2 6 -3.5
v -2 7 -3.5
v -2 8 -3.5
v -1 7 -3.5
v -1 8 -3.5
v 1 7 -3.5
v 1 8 -3.5
v 2 5 -3.5
v 2 6 -3.5
v 2 7 -3.5
v 2 8 -3.5
v 3 4 -3.5
v 3 6 -3.5
v -4 6 -4.5
v -4 7 -4.5
v -3 6 -4.5
v -3 7 -4.5
v -3 9 -4.5
v -2 5 -4.5
v -2 7 -4.5
v -2 8 -4.5
v -2 9 -4.5
v -1 8 -4.5
v -1 9 -4.5
v 1 8 -4.5
v 1 9 -4.5
v 2 5 -4.5
v 2 7 -4.5
v 2 8 -4.5
v 2 9 -4.5
v 3 6 -4.5
v 3 7 -4.5
v 3 9 -4.5
v 4 6 -4.5
v 4 7 -4.5
v -2 6 2.5
v -2 7 2.5
v -1 7 2.5
v -1 9 2.5
v -1 10 2.5
v -1 11 2.5
v 0 7 2.5
v 0 9 2.5
v 1 10 2.5
v 1 11 2.5
v 2 6 2.5
v 2 7 2.5
v -3 4 1.5
v -3 6 1.5
v -2 6 1.5
v 2 6 1.5
v 3 4 1.5
v 3 6 1.5
v -4 0 0.5
v -4 1 0.5
v -3 0 0.5
v -3 1 0.5
v -2 7 0.5
v -2 10 0.5
v -1 7 0.5
v -1 8 0.5
v 1 7 0.5
v 1 8 0.5
v 2 7 0.5
v 2 10 0.5
v 3 0 0.5
v 3 1 0.5
v 4 0 0.5
v 4 1 0.5
v -2 3 -0.5
v -2 4 -0.5
v -1 3 -0.5
v -1 4 -0.5
v -1 7 -0.5
v -1 8 -0.5
v 0 3 -0.5
v 0 4 -0.5
v 1 3 -0.5
v 1 7 -0.5
v 1 8 -0.5
v 2 3 -0.5
v 2 4 -0.5
v -4 6 -1.5
v -4 7 -1.5
v -3 0 -1.5
v -3 1 -1.5
v -3 6 -1.5
v -3 7 -1.5
v -2 1 -1.5
v -2 3 -1.5
v -1 0 -1.5
v -1 3 -1.5
v 1 0 -1.5
v 1 3 -1.5
v 2 1 -1.5
v 2 3 -1.5
v 3 0 -1.5
v 3 1 -1.5
v 3 6 -1.5
v 3 7 -1.5
v 4 6 -1.5
v 4 7 -1.5
v -1 6 -2.5
v -1 7 -2.5
v 0 6 -2.5
v 0 7 -2.5
v -4 4 -3.5
v -4 6 -3.5
v -3 3 -3.5
v -3 4 -3.5
v -3 6 -3.5
v -2 6 -3.5
v -2 7 -3.5
v -1 6 -3.5
v -1 7 -3.5
v 0 6 -3.5
v 0 7 -3.5
v 2 6 -3.5
v 2 7 -3.5
v 3 3 -3.5
v 3 4 -3.5
v 3 6 -3.5
v 4 4 -3.5
v 4 6 -3.5
v -3 4 -4.5
v -3 6 -4.5
v -2 5 -4.5
v -2 6 -4.5
v 2 5 -4.5
v 2 6 -4.5
v 3 4 -4.5
v 3 6 -4.5
v -4 6 -5.5
v -4 7 -5.5
v -3 7 -5.5
v -3 9 -5.5
v -2 5 -5.5
v -2 6 -5.5
v -2 8 -5.5
v -2 9 -5.5
v -1 8 -5.5
v -1 9 -5.5
v 1 8 -5.5
v 1 9 -5.5
v 2 5 -5.5
v 2 6 -5.5
v 2 8 -5.5
v 2 9 -5.5
v 3 7 -5.5
v 3 9 -5.5
v 4 6 -5.5
v 4 7 -5.5
v -4 0 1.5
v -3 0 1.5
v -2 0 1.5
v -1 0 1.5
v 1 0 1.5
v 2 0 1.5
v 3 0 1.5
v 4 0 1.5
v -4 0 0.5
v -3 0 0.5
v -2 0 0.5
v 2 0 0.5
v 3 0 0.5
v 4 0 0.5
v -3 0 -1.5
v -1 0 -1.5
v 1 0 -1.5
v 3 0 -1.5
v -3 3 1.5
v 3 3 1.5
v -2 3 -0.5
v -1 3 -0.5
v 0 3 -0.5
v 1 3 -0.5
v 2 3 -0.5
v -2 3 -1.5
v -1 3 -1.5
v 0 3 -1.5
v 1 3 -1.5
v 2 3 -1.5
v -3 3 -3.5
v 3 3 -3.5
v -3 4 2.5
v 3 4 2.5
v -4 4 1.5
v -3 4 1.5
v 3 4 1.5
v 4 4 1.5
v -4 4 -3.5
v -3 4 -3.5
v 3 4 -3.5
v 4 4 -3.5
v -3 4 -4.5
v 3 4 -4.5
v -2 5 -4.5
v 2 5 -4.5
v -2 5 -5.5
v 2 5 -5.5
v -2 6 3.5
v 2 6 3.5
v -2 6 2.5
v 2 6 2.5
v -3 6 1.5
v -2 6 1.5
v 2 6 1.5
v 3 6 1.5
v -2 6 0.5
v 2 6 0.5
v -1 6 -2.5
v 0 6 -2.5
v -3 6 -3.5
v -2 6 -3.5
v -1 6 -3.5
v 0 6 -3.5
v 2 6 -3.5
v 3 6 -3.5
v -4 6 -4.5
v -3 6 -4.5
v -2 6 -4.5
v 2 6 -4.5
v 3 6 -4.5
v 4 6 -4.5
v -4 6 -5.5
v -2 6 -5.5
v 2 6 -5.5
v 4 6 -5.5
v -1 7 4.5
v 1 7 4.5
v -1 7 3.5
v 1 7 3.5
v -2 7 2.5
v -1 7 2.5
v 0 7 2.5
v 2 7 2.5
v -1 7 1.5
v 0 7 1.5
v -2 7 0.5
v 2 7 0.5
v -1 7 -2.5
v 0 7 -2.5
v -2 7 -3.5
v -1 7 -3.5
v 0 7 -3.5
v 2 7 -3.5
v -2 7 -4.5
v 2 7 -4.5
v -1 9 2.5
v 0 9 2.5
v -1 9 1.5
v 0 9 1.5
v -4 1 1.5
v -3 1 1.5
v -2 1 1.5
v -1 1 1.5
v 1 1 1.5
v 2 1 1.5
v 3 1 1.5
v 4 1 1.5
v -4 1 0.5
v -3 1 0.5
v -2 1 0.5
v 2 1 0.5
v 3 1 0.5
v 4 1 0.5
v -2 1 -0.5
v -1 1 -0.5
v 1 1 -0.5
v 2 1 -0.5
v -3 1 -1.5
v -2 1 -1.5
v 2 1 -1.5
v 3 1 -1.5
v -2 3 -0.5
v -1 3 -0.5
v 1 3 -0.5
v 2 3 -0.5
v -2 3 -1.5
v -1 3 -1.5
v 1 3 -1.5
v 2 3 -1.5
v -3 4 1.5
v 3 4 1.5
v -2 4 -0.5
v -1 4 -0.5
v 0 4 -0.5
v 2 4 -0.5
v -2 4 -1.5
v -1 4 -1.5
v 0 4 -1.5
v 2 4 -1.5
v -3 4 -3.5
v 3 4 -3.5
v -2 5 -3.5
v 2 5 -3.5
v -2 5 -4.5
v 2 5 -4.5
v -2 6 2.5
v 2 6 2.5
v -2 6 1.5
v 2 6 1.5
v -4 6 -1.5
v -3 6 -1.5
v 3 6 -1.5
v 4 6 -1.5
v -4 6 -3.5
v -3 6 -3.5
v 3 6 -3.5
v 4 6 -3.5
v -3 7 2.5
v -2 7 2.5
v 2 7 2.5
v 3 7 2.5
v -4 7 1.5
v -3 7 1.5
v 3 7 1.5
v 4 7 1.5
v -2 7 0.5
v -1 7 0.5
v 1 7 0.5
v 2 7 0.5
v -1 7 -0.5
v 1 7 -0.5
v -4 7 -1.5
v -3 7 -1.5
v 3 7 -1.5
v 4 7 -1.5
v -1 7 -2.5
v 1 7 -2.5
v -2 7 -3.5
v -1 7 -3.5
v 1 7 -3.5
v 2 7 -3.5
v -4 7 -4.5
v -3 7 -4.5
v -2 7 -4.5
v 2 7 -4.5
v 3 7 -4.5
v 4 7 -4.5
v -4 7 -5.5
v -3 7 -5.5
v 3 7 -5.5
v 4 7 -5.5
v -1 8 4.5
v 1 8 4.5
v -1 8 3.5
v 1 8 3.5
v -1 8 0.5
v 1 8 0.5
v -1 8 -0.5
v 1 8 -0.5
v -1 8 -2.5
v 1 8 -2.5
v -2 8 -3.5
v -1 8 -3.5
v 1 8 -3.5
v 2 8 -3.5
v -2 8 -4.5
v -1 8 -4.5
v 1 8 -4.5
v 2 8 -4.5
v -2 8 -5.5
v -1 8 -5.5
v 1 8 -5.5
v 2 8 -5.5
v -3 9 -4.5
v -2 9 -4.5
v -1 9 -4.5
v 1 9 -4.5
v 2 9 -4.5
v 3 9 -4.5
v -3 9 -5.5
v -2 9 -5.5
v -1 9 -5.5
v 1 9 -5.5
v 2 9 -5.5
v 3 9 -5.5
v -2 10 3.5
v -1 10 3.5
v 1 10 3.5
v 2 10 3.5
v -1 10 2.5
v 1 10 2.5
v -2 10 0.5
v 2 10 0.5
v -1 11 3.5
v 1 11 3.5
v -1 11 2.5
v 1 11 2.5

# faces
f 3/1/1 2/1/1 1/1/1
f 4/1/1 2/1/1 3/1/1
f 7/3/1 6/3/1 5/3/1
f 8/3/1 6/3/1 7/3/1
f 11/3/1 7/3/1 5/3/1
f 12/3/1 7/3/1 11/3/1
f 13/3/1 10/3/1 9/3/1
f 14/3/1 10/3/1 13/3/1
f 17/1/1 16/1/1 15/1/1
f 18/1/1 16/1/1 17/1/1
f 22/3/1 20/3/1 19/3/1
f 23/3/1 20/3/1 22/3/1
f 26/3/1 24/3/1 23/3/1
f 27/3/1 24/3/1 26/3/1
f 28/3/1 22/3/1 21/3/1
f 29/3/1 22/3/1 28/3/1
f 30/3/1 26/3/1 25/3/1
f 30/3/1 27/3/1 26/3/1
f 31/3/1 27/3/1 30/3/1
f 33/3/1 32/3/1 31/3/1
f 34/3/1 32/3/1 33/3/1
f 37/1/1 36/1/1 35/1/1
f 38/1/1 36/1/1 37/1/1
f 41/1/1 40/1/1 39/1/1
f 42/1/1 40/1/1 41/1/1
f 47/3/1 44/3/1 43/3/1
f 48/3/1 44/3/1 47/3/1
f 49/3/1 46/3/1 45/3/1
f 53/3/1 49/3/1 45/3/1
f 53/3/1 50/3/1 49/3/1
f 54/3/1 50/3/1 53/3/1
f 55/3/1 52/3/1 51/3/1
f 56/3/1 52/3/1 55/3/1
f 57/4/1 54/4/1 53/4/1
f 58/3/1 50/3/1 54/3/1
f 58/4/1 54/4/1 57/4/1
f 59/3/1 58/3/1 57/3/1
f 60/3/1 50/3/1 58/3/1
f 60/3/1 58/3/1 59/3/1
f 63/3/1 62/3/1 61/3/1
f 64/3/1 62/3/1 63/3/1
f 71/1/1 66/1/1 65/1/1
f 72/1/1 66/1/1 71/1/1
f 73/3/1 68/3/1 67/3/1
f 74/3/1 68/3/1 73/3/1
f 75/3/1 70/3/1 69/3/1
f 76/3/1 70/3/1 75/3/1
f 79/3/1 78/3/1 77/3/1
f 80/3/1 78/3/1 79/3/1
f 83/2/1 82/2/1 81/2/1
f 84/2/1 82/2/1 83/2/1
f 89/3/1 86/3/1 85/3/1
f 90/3/1 86/3/1 89/3/1
f 91/3/1 88/3/1 87/3/1
f 92/3/1 88/3/1 91/3/1
f 95/1/1 94/1/1 93/1/1
f 96/1/1 94/1/1 95/1/1
f 97/1/1 94/1/1 96/1/1
f 98/1/1 94/1/1 97/1/1
f 101/3/1 100/3/1 99/3/1
f 102/3/1 100/3/1 101/3/1
f 108/3/1 104/3/1 103/3/1
f 109/3/1 107/3/1 106/3/1
f 109/3/1 106/3/1 105/3/1
f 110/3/1 107/3/1 109/3/1
f 111/3/1 104/3/1 108/3/1
f 112/3/1 104/3/1 111/3/1
f 115/3/1 114/3/1 113/3/1
f 116/3/1 114/3/1 115/3/1
f 119/1/1 118/1/1 117/1/1
f 120/1/1 118/1/1 119/1/1
f 123/3/1 122/3/1 121/3/1
f 124/3/1 122/3/1 123/3/1
f 125/1/2 126/1/2 127/1/2
f 127/1/2 126/1/2 128/1/2
f 129/3/2 130/3/2 131/3/2
f 131/3/2 130/3/2 132/3/2
f 133/3/2 134/3/2 135/3/2
f 135/3/2 134/3/2 136/3/2
f 137/3/2 138/3/2 142/3/2
f 140/3/2 141/3/2 143/3/2
f 139/3/2 140/3/2 143/3/2
f 143/3/2 141/3/2 144/3/2
f 142/3/2 138/3/2 145/3/2
f 145/3/2 138/3/2 146/3/2
f 147/3/2 148/3/2 149/3/2
f 149/3/2 148/3/2 150/3/2
f 151/1/2 152/1/2 153/1/2
f 153/1/2 152/1/2 154/1/2
f 154/1/2 152/1/2 155/1/2
f 155/1/2 152/1/2 156/1/2
f 157/3/2 158/3/2 161/3/2
f 161/3/2 158/3/2 162/3/2
f 159/3/2 160/3/2 163/3/2
f 163/3/2 160/3/2 164/3/2
f 165/3/2 166/3/2 167/3/2
f 167/3/2 166/3/2 168/3/2
f 169/1/2 170/1/2 175/1/2
f 175/1/2 170/1/2 176/1/2
f 171/3/2 172/3/2 177/3/2
f 177/3/2 172/3/2 178/3/2
f 173/3/2 174/3/2 179/3/2
f 179/3/2 174/3/2 180/3/2
f 181/3/2 182/3/2 183/3/2
f 183/3/2 182/3/2 184/3/2
f 185/2/2 186/2/2 187/2/2
f 187/2/2 186/2/2 188/2/2
f 189/1/2 190/1/2 191/1/2
f 191/1/2 190/1/2 192/1/2
f 193/1/2 194/1/2 195/1/2
f 195/1/2 194/1/2 196/1/2
f 197/3/2 198/3/2 201/3/2
f 201/3/2 198/3/2 202/3/2
f 199/3/2 200/3/2 203/3/2
f 199/3/2 203/3/2 207/3/2
f 203/3/2 204/3/2 207/3/2
f 207/3/2 204/3/2 208/3/2
f 205/3/2 206/3/2 209/3/2
f 209/3/2 206/3/2 210/3/2
f 207/4/2 208/4/2 211/4/2
f 208/3/2 204/3/2 212/3/2
f 211/4/2 208/4/2 212/4/2
f 211/3/2 212/3/2 213/3/2
f 212/3/2 204/3/2 214/3/2
f 213/3/2 212/3/2 214/3/2
f 215/1/2 216/1/2 217/1/2
f 217/1/2 216/1/2 218/1/2
f 219/3/2 220/3/2 222/3/2
f 222/3/2 220/3/2 223/3/2
f 223/3/2 224/3/2 226/3/2
f 226/3/2 224/3/2 227/3/2
f 221/3/2 222/3/2 228/3/2
f 228/3/2 222/3/2 229/3/2
f 225/3/2 226/3/2 230/3/2
f 226/3/2 227/3/2 230/3/2
f 230/3/2 227/3/2 231/3/2
f 231/3/2 232/3/2 233/3/2
f 233/3/2 232/3/2 234/3/2
f 235/1/2 236/1/2 237/1/2
f 237/1/2 236/1/2 238/1/2
f 239/3/2 240/3/2 241/3/2
f 241/3/2 240/3/2 242/3/2
f 239/3/2 241/3/2 245/3/2
f 245/3/2 241/3/2 246/3/2
f 243/3/2 244/3/2 247/3/2
f 247/3/2 244/3/2 248/3/2
f 251/1/3 250/1/3 249/1/3
f 252/1/3 250/1/3 251/1/3
f 257/3/3 254/3/3 253/3/3
f 258/4/3 255/4/3 254/4/3
f 258/3/3 254/3/3 257/3/3
f 259/3/3 256/3/3 255/3/3
f 259/4/3 255/4/3 258/4/3
f 260/3/3 256/3/3 259/3/3
f 262/3/3 257/3/3 253/3/3
f 263/3/3 260/3/3 259/3/3
f 263/3/3 259/3/3 258/3/3
f 264/3/3 260/3/3 263/3/3
f 265/2/3 261/2/3 260/2/3
f 265/3/3 260/3/3 264/3/3
f 266/2/3 261/2/3 265/2/3
f 267/3/3 262/3/3 253/3/3
f 267/3/3 263/3/3 262/3/3
f 268/4/3 264/4/3 263/4/3
f 268/3/3 263/3/3 267/3/3
f 269/3/3 265/3/3 264/3/3
f 269/4/3 264/4/3 268/4/3
f 270/3/3 265/3/3 269/3/3
f 273/3/3 272/3/3 271/3/3
f 274/3/3 272/3/3 273/3/3
f 275/3/3 273/3/3 271/3/3
f 277/3/3 275/3/3 271/3/3
f 277/3/3 276/3/3 275/3/3
f 278/3/3 276/3/3 277/3/3
f 283/1/3 280/1/3 279/1/3
f 284/1/3 280/1/3 283/1/3
f 286/3/3 282/3/3 281/3/3
f 287/3/3 282/3/3 286/3/3
f 290/1/3 289/1/3 288/1/3
f 291/1/3 289/1/3 290/1/3
f 294/3/3 293/3/3 292/3/3
f 295/3/3 293/3/3 294/3/3
f 298/1/3 297/1/3 296/1/3
f 299/1/3 297/1/3 298/1/3
f 302/3/3 286/3/3 285/3/3
f 303/3/3 286/3/3 302/3/3
f 305/1/3 301/1/3 300/1/3
f 306/1/3 301/1/3 305/1/3
f 307/3/3 304/3/3 303/3/3
f 308/3/3 304/3/3 307/3/3
f 311/1/3 310/1/3 309/1/3
f 312/1/3 310/1/3 311/1/3
f 317/3/3 314/3/3 313/3/3
f 318/3/3 314/3/3 317/3/3
f 319/1/3 316/1/3 315/1/3
f 320/1/3 316/1/3 319/1/3
f 323/1/3 322/1/3 321/1/3
f 324/1/3 322/1/3 323/1/3
f 327/1/3 326/1/3 325/1/3
f 328/1/3 326/1/3 327/1/3
f 331/3/3 330/3/3 329/3/3
f 332/3/3 330/3/3 331/3/3
f 335/3/3 334/3/3 333/3/3
f 336/3/3 334/3/3 335/3/3
f 337/3/3 334/3/3 336/3/3
f 340/3/3 339/3/3 338/3/3
f 341/3/3 339/3/3 340/3/3
f 344/3/3 343/3/3 342/3/3
f 345/3/3 343/3/3 344/3/3
f 348/3/3 347/3/3 346/3/3
f 349/3/3 347/3/3 348/3/3
f 352/3/3 344/3/3 342/3/3
f 354/3/3 351/3/3 350/3/3
f 355/3/3 351/3/3 354/3/3
f 356/3/3 353/3/3 352/3/3
f 356/3/3 352/3/3 342/3/3
f 357/3/3 353/3/3 356/3/3
f 360/3/3 359/3/3 358/3/3
f 361/3/3 359/3/3 360/3/3
f 364/3/3 362/3/3 361/3/3
f 365/3/3 362/3/3 364/3/3
f 366/3/3 362/3/3 365/3/3
f 369/3/3 368/3/3 367/3/3
f 370/3/3 368/3/3 369/3/3
f 371/3/3 364/3/3 363/3/3
f 372/3/3 364/3/3 371/3/3
f 376/3/3 374/3/3 373/3/3
f 376/3/3 373/3/3 372/3/3
f 377/3/3 374/3/3 376/3/3
f 378/3/3 376/3/3 375/3/3
f 379/3/3 376/3/3 378/3/3
f 380/3/4 381/3/4 382/3/4
f 380/3/4 382/3/4 386/3/4
f 382/3/4 383/3/4 386/3/4
f 386/3/4 383/3/4 387/3/4
f 384/2/4 385/2/4 388/2/4
f 388/2/4 385/2/4 389/2/4
f 380/3/4 386/3/4 390/3/4
f 390/3/4 386/3/4 391/3/4
f 392/3/4 393/3/4 394/3/4
f 392/3/4 394/3/4 395/3/4
f 392/3/4 395/3/4 396/3/4
f 396/3/4 395/3/4 397/3/4
f 398/1/4 399/1/4 400/1/4
f 400/1/4 399/1/4 401/1/4
f 402/3/4 403/3/4 404/3/4
f 404/3/4 403/3/4 405/3/4
f 405/3/4 403/3/4 407/3/4
f 406/3/4 407/3/4 408/3/4
f 407/3/4 403/3/4 409/3/4
f 408/3/4 407/3/4 409/3/4
f 410/1/4 411/1/4 412/1/4
f 412/1/4 411/1/4 413/1/4
f 414/3/4 415/3/4 416/3/4
f 416/3/4 415/3/4 417/3/4
f 420/3/4 421/3/4 422/3/4
f 418/3/4 419/3/4 423/3/4
f 423/3/4 419/3/4 424/3/4
f 422/3/4 421/3/4 425/3/4
f 425/3/4 421/3/4 426/3/4
f 427/3/4 428/3/4 431/3/4
f 431/3/4 428/3/4 432/3/4
f 429/1/4 430/1/4 433/1/4
f 429/1/4 433/1/4 435/1/4
f 433/1/4 434/1/4 435/1/4
f 435/1/4 434/1/4 436/1/4
f 437/1/4 438/1/4 439/1/4
f 439/1/4 438/1/4 440/1/4
f 437/1/4 439/1/4 441/1/4
f 441/1/4 439/1/4 442/1/4
f 443/3/4 444/3/4 445/3/4
f 445/3/4 444/3/4 446/3/4
f 447/3/4 448/3/4 449/3/4
f 449/3/4 448/3/4 450/3/4
f 451/3/4 452/3/4 454/3/4
f 454/3/4 452/3/4 455/3/4
f 456/3/4 457/3/4 458/3/4
f 458/3/4 457/3/4 459/3/4
f 460/3/4 461/3/4 462/3/4
f 462/3/4 461/3/4 463/3/4
f 453/3/4 454/3/4 464/3/4
f 464/3/4 454/3/4 465/3/4
f 465/3/4 466/3/4 467/3/4
f 467/3/4 466/3/4 468/3/4
f 469/3/4 470/3/4 471/3/4
f 471/3/4 470/3/4 472/3/4
f 469/3/4 471/3/4 473/3/4
f 469/3/4 473/3/4 475/3/4
f 473/3/4 474/3/4 475/3/4
f 475/3/4 474/3/4 476/3/4
f 477/3/4 478/3/4 479/3/4
f 477/3/4 479/3/4 482/3/4
f 479/3/4 480/3/4 482/3/4
f 482/3/4 480/3/4 483/3/4
f 483/3/4 480/3/4 484/3/4
f 481/3/4 482/3/4 485/3/4
f 482/3/4 483/3/4 485/3/4
f 481/3/4 485/3/4 487/3/4
f 485/3/4 486/3/4 487/3/4
f 487/3/4 486/3/4 488/3/4
f 481/3/4 487/3/4 489/3/4
f 489/3/4 487/3/4 490/3/4
f 490/3/4 487/3/4 491/3/4
f 491/3/4 492/3/4 493/3/4
f 490/3/4 491/3/4 493/3/4
f 493/3/4 492/3/4 494/3/4
f 490/3/4 493/3/4 495/3/4
f 495/3/4 493/3/4 496/3/4
f 505/1/5 498/1/5 497/1/5
f 506/1/5 498/1/5 505/1/5
f 507/1/5 500/1/5 499/1/5
f 508/1/5 502/1/5 501/1/5
f 509/1/5 504/1/5 503/1/5
f 510/1/5 504/1/5 509/1/5
f 511/1/5 507/1/5 506/1/5
f 512/1/5 500/1/5 507/1/5
f 512/1/5 507/1/5 511/1/5
f 513/1/5 508/1/5 501/1/5
f 513/1/5 509/1/5 508/1/5
f 514/1/5 509/1/5 513/1/5
f 517/3/5 516/3/5 515/3/5
f 518/3/5 516/3/5 517/3/5
f 519/3/5 516/3/5 518/3/5
f 520/3/5 516/3/5 519/3/5
f 521/3/5 516/3/5 520/3/5
f 522/3/5 517/3/5 515/3/5
f 523/3/5 519/3/5 518/3/5
f 524/3/5 519/3/5 523/3/5
f 526/3/5 516/3/5 521/3/5
f 527/3/5 525/3/5 524/3/5
f 527/3/5 526/3/5 525/3/5
f 527/3/5 522/3/5 515/3/5
f 527/3/5 523/3/5 522/3/5
f 527/3/5 524/3/5 523/3/5
f 528/3/5 516/3/5 526/3/5
f 528/3/5 526/3/5 527/3/5
f 532/3/5 530/3/5 529/3/5
f 533/3/5 530/3/5 532/3/5
f 535/3/5 532/3/5 531/3/5
f 536/3/5 532/3/5 535/3/5
f 537/3/5 534/3/5 533/3/5
f 538/3/5 534/3/5 537/3/5
f 539/3/5 537/3/5 536/3/5
f 540/3/5 537/3/5 539/3/5
f 543/3/5 542/3/5 541/3/5
f 544/3/5 542/3/5 543/3/5
f 547/3/5 546/3/5 545/3/5
f 548/3/5 546/3/5 547/3/5
f 553/3/5 550/3/5 549/3/5
f 554/3/5 552/3/5 551/3/5
f 555/3/5 554/3/5 553/3/5
f 556/3/5 554/3/5 555/3/5
f 557/3/5 553/3/5 549/3/5
f 557/3/5 555/3/5 553/3/5
f 558/3/5 555/3/5 557/3/5
f 559/3/5 555/3/5 558/3/5
f 560/3/5 554/3/5 556/3/5
f 561/3/5 552/3/5 554/3/5
f 561/3/5 554/3/5 560/3/5
f 562/3/5 552/3/5 561/3/5
f 569/3/5 564/3/5 563/3/5
f 569/3/5 565/3/5 564/3/5
f 570/3/5 565/3/5 569/3/5
f 571/3/5 567/3/5 566/3/5
f 571/3/5 568/3/5 567/3/5
f 572/3/5 568/3/5 571/3/5
f 575/1/5 574/1/5 573/1/5
f 576/1/5 574/1/5 575/1/5
f 581/3/5 578/3/5 577/3/5
f 582/3/5 580/3/5 579/3/5
f 583/3/5 581/3/5 577/3/5
f 583/3/5 582/3/5 581/3/5
f 584/3/5 580/3/5 582/3/5
f 584/3/5 582/3/5 583/3/5
f 588/3/5 586/3/5 585/3/5
f 589/3/5 586/3/5 588/3/5
f 591/3/5 588/3/5 587/3/5
f 591/3/5 590/3/5 589/3/5
f 591/3/5 589/3/5 588/3/5
f 592/3/5 590/3/5 591/3/5
f 595/3/5 594/3/5 593/3/5
f 596/3/5 594/3/5 595/3/5
f 597/1/6 598/1/6 605/1/6
f 605/1/6 598/1/6 606/1/6
f 599/1/6 600/1/6 607/1/6
f 601/1/6 602/1/6 608/1/6
f 603/1/6 604/1/6 609/1/6
f 609/1/6 604/1/6 610/1/6
f 606/1/6 607/1/6 611/1/6
f 607/1/6 600/1/6 611/1/6
f 611/1/6 600/1/6 612/1/6
f 601/1/6 608/1/6 613/1/6
f 608/1/6 609/1/6 613/1/6
f 613/1/6 609/1/6 614/1/6
f 606/1/6 611/1/6 615/1/6
f 615/1/6 611/1/6 616/1/6
f 614/1/6 609/1/6 617/1/6
f 617/1/6 609/1/6 618/1/6
f 619/1/6 620/1/6 623/1/6
f 623/1/6 620/1/6 624/1/6
f 621/1/6 622/1/6 625/1/6
f 625/1/6 622/1/6 626/1/6
f 627/3/6 628/3/6 629/3/6
f 629/3/6 628/3/6 630/3/6
f 630/3/6 628/3/6 631/3/6
f 631/3/6 628/3/6 632/3/6
f 627/3/6 629/3/6 633/3/6
f 630/3/6 631/3/6 634/3/6
f 634/3/6 631/3/6 635/3/6
f 632/3/6 628/3/6 636/3/6
f 634/3/6 635/3/6 637/3/6
f 635/3/6 636/3/6 637/3/6
f 627/3/6 633/3/6 637/3/6
f 633/3/6 634/3/6 637/3/6
f 636/3/6 628/3/6 638/3/6
f 637/3/6 636/3/6 638/3/6
f 639/3/6 640/3/6 641/3/6
f 641/3/6 640/3/6 642/3/6
f 643/3/6 644/3/6 645/3/6
f 645/3/6 644/3/6 646/3/6
f 647/3/6 648/3/6 651/3/6
f 651/3/6 648/3/6 652/3/6
f 649/3/6 650/3/6 653/3/6
f 653/3/6 650/3/6 654/3/6
f 655/3/6 656/3/6 660/3/6
f 657/3/6 658/3/6 661/3/6
f 659/3/6 660/3/6 663/3/6
f 660/3/6 656/3/6 663/3/6
f 661/3/6 662/3/6 666/3/6
f 657/3/6 661/3/6 666/3/6
f 663/3/6 664/3/6 667/3/6
f 665/3/6 666/3/6 668/3/6
f 663/3/6 667/3/6 669/3/6
f 667/3/6 668/3/6 669/3/6
f 659/3/6 663/3/6 669/3/6
f 669/3/6 668/3/6 670/3/6
f 668/3/6 666/3/6 671/3/6
f 670/3/6 668/3/6 671/3/6
f 666/3/6 662/3/6 671/3/6
f 671/3/6 662/3/6 672/3/6
f 670/3/6 671/3/6 673/3/6
f 673/3/6 671/3/6 674/3/6
f 670/3/6 673/3/6 675/3/6
f 675/3/6 673/3/6 676/3/6
f 674/3/6 671/3/6 677/3/6
f 677/3/6 671/3/6 678/3/6
f 670/3/6 675/3/6 680/3/6
f 680/3/6 675/3/6 681/3/6
f 678/3/6 671/3/6 682/3/6
f 682/3/6 671/3/6 683/3/6
f 679/3/6 680/3/6 685/3/6
f 685/3/6 680/3/6 686/3/6
f 683/3/6 684/3/6 687/3/6
f 687/3/6 684/3/6 688/3/6
f 689/1/6 690/1/6 691/1/6
f 691/1/6 690/1/6 692/1/6
f 693/3/6 694/3/6 695/3/6
f 695/3/6 694/3/6 696/3/6
f 697/3/6 698/3/6 700/3/6
f 700/3/6 698/3/6 701/3/6
f 700/3/6 701/3/6 703/3/6
f 701/3/6 702/3/6 703/3/6
f 699/3/6 700/3/6 703/3/6
f 703/3/6 702/3/6 704/3/6
f 704/3/6 702/3/6 705/3/6
f 705/3/6 702/3/6 706/3/6
f 703/3/6 704/3/6 707/3/6
f 707/3/6 704/3/6 708/3/6
f 705/3/6 706/3/6 709/3/6
f 709/3/6 706/3/6 710/3/6
f 711/3/6 712/3/6 717/3/6
f 717/3/6 712/3/6 718/3/6
f 713/3/6 714/3/6 719/3/6
f 719/3/6 714/3/6 720/3/6
f 715/3/6 716/3/6 721/3/6
f 721/3/6 716/3/6 722/3/6
f 723/3/6 724/3/6 727/3/6
f 725/3/6 726/3/6 728/3/6
f 723/3/6 727/3/6 729/3/6
f 727/3/6 728/3/6 729/3/6
f 728/3/6 726/3/6 730/3/6
f 729/3/6 728/3/6 730/3/6
f 731/2/6 732/2/6 733/2/6
f 733/2/6 732/2/6 734/2/6
