# MagicaVoxel @ ephtracy

# material
mtllib bodyPattern.mtl
usemtl palette

# normals
vn -1 0 0
vn 1 0 0
vn 0 0 1
vn 0 0 -1
vn 0 -1 0
vn 0 1 0

# texcoords
vt 0.486328 0.5
vt 0.490234 0.5
vt 0.501953 0.5
vt 0.525391 0.5
vt 0.529297 0.5
vt 0.552734 0.5

# verts
v -3 6 0.5
v -3 6 -2.5
v -3 7 0.5
v -3 7 -2.5
v -2 2 0.5
v -2 2 -2.5
v -2 4 0.5
v -2 4 -2.5
v -2 6 0.5
v -2 6 -2.5
v 2 2 0.5
v 2 2 -2.5
v 2 4 0.5
v 2 4 -2.5
v 2 6 0.5
v 2 6 -2.5
v 3 6 0.5
v 3 6 -2.5
v 3 7 0.5
v 3 7 -2.5
v -3 6 0.5
v -3 7 0.5
v -2 2 0.5
v -2 4 0.5
v -2 6 0.5
v -2 7 0.5
v -1 5 0.5
v -1 6 0.5
v -1 7 0.5
v 0 4 0.5
v 0 5 0.5
v 0 6 0.5
v 1 4 0.5
v 1 5 0.5
v 1 6 0.5
v 1 7 0.5
v 2 2 0.5
v 2 4 0.5
v 2 6 0.5
v 2 7 0.5
v 3 6 0.5
v 3 7 0.5
v -3 6 -2.5
v -3 7 -2.5
v -2 2 -2.5
v -2 4 -2.5
v -2 6 -2.5
v -2 7 -2.5
v 2 2 -2.5
v 2 4 -2.5
v 2 6 -2.5
v 2 7 -2.5
v 3 6 -2.5
v 3 7 -2.5
v -2 2 0.5
v 2 2 0.5
v -2 2 -2.5
v 2 2 -2.5
v -3 6 0.5
v -2 6 0.5
v 2 6 0.5
v 3 6 0.5
v -3 6 -2.5
v -2 6 -2.5
v 2 6 -2.5
v 3 6 -2.5
v -3 7 0.5
v -2 7 0.5
v -1 7 0.5
v 1 7 0.5
v 2 7 0.5
v 3 7 0.5
v -1 7 -0.5
v 1 7 -0.5
v -3 7 -2.5
v -2 7 -2.5
v 2 7 -2.5
v 3 7 -2.5

# faces
f 3/5/1 2/5/1 1/5/1
f 4/5/1 2/5/1 3/5/1
f 7/1/1 6/1/1 5/1/1
f 8/1/1 6/1/1 7/1/1
f 9/4/1 8/4/1 7/4/1
f 10/4/1 8/4/1 9/4/1
f 11/1/2 12/1/2 13/1/2
f 13/1/2 12/1/2 14/1/2
f 13/4/2 14/4/2 15/4/2
f 15/4/2 14/4/2 16/4/2
f 17/5/2 18/5/2 19/5/2
f 19/5/2 18/5/2 20/5/2
f 25/5/3 22/5/3 21/5/3
f 26/5/3 22/5/3 25/5/3
f 27/4/3 25/4/3 24/4/3
f 28/2/3 26/2/3 25/2/3
f 28/4/3 25/4/3 27/4/3
f 29/2/3 26/2/3 28/2/3
f 30/1/3 24/1/3 23/1/3
f 30/4/3 27/4/3 24/4/3
f 31/2/3 28/2/3 27/2/3
f 31/4/3 27/4/3 30/4/3
f 32/3/3 29/3/3 28/3/3
f 32/2/3 28/2/3 31/2/3
f 33/2/3 31/2/3 30/2/3
f 33/1/3 30/1/3 23/1/3
f 34/3/3 32/3/3 31/3/3
f 34/2/3 31/2/3 33/2/3
f 35/3/3 29/3/3 32/3/3
f 35/3/3 32/3/3 34/3/3
f 36/3/3 29/3/3 35/3/3
f 37/1/3 33/1/3 23/1/3
f 38/4/3 34/4/3 33/4/3
f 38/1/3 33/1/3 37/1/3
f 38/4/3 35/4/3 34/4/3
f 39/2/3 36/2/3 35/2/3
f 39/4/3 35/4/3 38/4/3
f 40/2/3 36/2/3 39/2/3
f 41/5/3 40/5/3 39/5/3
f 42/5/3 40/5/3 41/5/3
f 43/5/4 44/5/4 47/5/4
f 47/5/4 44/5/4 48/5/4
f 45/1/4 46/1/4 49/1/4
f 46/4/4 47/4/4 50/4/4
f 49/1/4 46/1/4 50/1/4
f 47/2/4 48/2/4 51/2/4
f 50/4/4 47/4/4 51/4/4
f 51/2/4 48/2/4 52/2/4
f 51/5/4 52/5/4 53/5/4
f 53/5/4 52/5/4 54/5/4
f 57/1/5 56/1/5 55/1/5
f 58/1/5 56/1/5 57/1/5
f 63/5/5 60/5/5 59/5/5
f 64/5/5 60/5/5 63/5/5
f 65/5/5 62/5/5 61/5/5
f 66/5/5 62/5/5 65/5/5
f 68/2/6 69/2/6 73/2/6
f 69/3/6 70/3/6 73/3/6
f 70/2/6 71/2/6 74/2/6
f 73/3/6 70/3/6 74/3/6
f 67/5/6 68/5/6 75/5/6
f 68/2/6 73/2/6 76/2/6
f 75/5/6 68/5/6 76/5/6
f 73/2/6 74/2/6 76/2/6
f 74/2/6 71/2/6 77/2/6
f 76/2/6 74/2/6 77/2/6
f 71/5/6 72/5/6 77/5/6
f 77/5/6 72/5/6 78/5/6
