# MagicaVoxel @ ephtracy

# material
mtllib feedingBox.mtl
usemtl palette

# normals
vn -1 0 0
vn 1 0 0
vn 0 0 1
vn 0 0 -1
vn 0 -1 0
vn 0 1 0

# texcoords
vt 0.0449219 0.5
vt 0.373047 0.5
vt 0.400391 0.5

# verts
v -20 0 4
v -20 0 -4
v -20 1 5
v -20 1 4
v -20 1 -4
v -20 1 -5
v -20 6 5
v -20 6 -5
v -18 3 3
v -18 3 -2
v -18 4 3
v -18 4 -2
v -17 3 -2
v -17 3 -3
v -17 4 2
v -17 4 -1
v -17 4 -2
v -17 4 -3
v -17 5 2
v -17 5 -1
v -15 4 -1
v -15 4 -2
v -15 5 -1
v -15 5 -2
v -10 3 3
v -10 3 1
v -10 3 -1
v -10 3 -2
v -10 4 3
v -10 4 1
v -10 4 -1
v -10 4 -2
v -9 4 1
v -9 4 -1
v -9 5 1
v -9 5 -1
v -5 3 -0
v -5 3 -1
v -5 4 -0
v -5 4 -1
v -4 3 3
v -4 3 2
v -4 3 -1
v -4 3 -2
v -4 4 3
v -4 4 2
v -4 4 -0
v -4 4 -1
v -4 4 -2
v -4 5 2
v -4 5 -0
v -3 4 -0
v -3 4 -1
v -3 5 -0
v -3 5 -1
v 1 3 -1
v 1 3 -2
v 1 4 -1
v 1 4 -2
v 2 3 2
v 2 3 1
v 2 4 2
v 2 4 1
v 2 4 -1
v 2 5 1
v 2 5 -1
v 6 3 3
v 6 3 1
v 6 3 -0
v 6 3 -2
v 6 4 3
v 6 4 1
v 6 4 -0
v 6 4 -2
v 7 4 2
v 7 4 -0
v 7 5 2
v 7 5 -0
v 12 3 1
v 12 3 -2
v 12 4 1
v 12 4 -2
v 13 4 1
v 13 4 -1
v 13 5 1
v 13 5 -1
v 19 3 4
v 19 3 -4
v 19 6 4
v 19 6 -4
v -19 3 4
v -19 3 -4
v -19 6 4
v -19 6 -4
v -13 4 2
v -13 4 -2
v -13 5 2
v -13 5 -2
v -12 3 3
v -12 3 2
v -12 3 -2
v -12 3 -3
v -12 4 3
v -12 4 2
v -12 4 -2
v -12 4 -3
v -11 3 2
v -11 3 1
v -11 3 -1
v -11 3 -2
v -11 4 2
v -11 4 1
v -11 4 -1
v -11 4 -2
v -7 4 1
v -7 4 -1
v -7 5 1
v -7 5 -1
v -6 3 3
v -6 3 2
v -6 3 -0
v -6 3 -2
v -6 4 3
v -6 4 2
v -6 4 -0
v -6 4 -2
v -2 4 2
v -2 4 1
v -2 4 -0
v -2 4 -1
v -2 5 2
v -2 5 1
v -2 5 -0
v -2 5 -1
v -1 4 1
v -1 4 -0
v -1 5 1
v -1 5 -0
v 0 3 3
v 0 3 2
v 0 3 -1
v 0 3 -2
v 0 4 3
v 0 4 2
v 0 4 -1
v 0 4 -2
v 1 3 2
v 1 3 1
v 1 4 2
v 1 4 1
v 5 3 2
v 5 3 1
v 5 3 -0
v 5 3 -2
v 5 4 2
v 5 4 1
v 5 4 -0
v 5 4 -1
v 5 4 -2
v 5 5 1
v 5 5 -1
v 8 3 -1
v 8 3 -2
v 8 4 -1
v 8 4 -2
v 10 4 2
v 10 4 -0
v 10 5 2
v 10 5 -0
v 11 3 1
v 11 3 -1
v 11 4 1
v 11 4 -1
v 12 3 3
v 12 3 2
v 12 4 3
v 12 4 2
v 15 4 1
v 15 4 -1
v 15 5 1
v 15 5 -1
v 17 3 2
v 17 3 -2
v 17 4 2
v 17 4 -2
v 19 0 4
v 19 0 -4
v 19 1 4
v 19 1 -4
v 20 1 5
v 20 1 -5
v 20 6 5
v 20 6 -5
v -20 1 5
v -20 6 5
v 20 1 5
v 20 6 5
v -20 0 4
v -20 1 4
v 19 0 4
v 19 1 4
v -18 3 3
v -18 4 3
v -12 3 3
v -12 4 3
v -10 3 3
v -10 4 3
v -6 3 3
v -6 4 3
v -4 3 3
v -4 4 3
v 0 3 3
v 0 4 3
v 6 3 3
v 6 4 3
v 12 3 3
v 12 4 3
v -17 4 2
v -17 5 2
v -13 4 2
v -13 5 2
v -12 3 2
v -12 4 2
v -11 3 2
v -11 4 2
v -6 3 2
v -6 4 2
v -4 3 2
v -4 4 2
v -4 5 2
v -2 4 2
v -2 5 2
v 0 3 2
v 0 4 2
v 1 3 2
v 1 4 2
v 2 3 2
v 2 4 2
v 5 3 2
v 5 4 2
v 7 4 2
v 7 5 2
v 10 4 2
v 10 5 2
v 12 3 2
v 12 4 2
v 17 3 2
v 17 4 2
v -11 3 1
v -11 4 1
v -10 3 1
v -10 4 1
v -9 4 1
v -9 5 1
v -7 4 1
v -7 5 1
v -2 4 1
v -2 5 1
v -1 4 1
v -1 5 1
v 1 3 1
v 1 4 1
v 2 3 1
v 2 4 1
v 2 5 1
v 5 3 1
v 5 4 1
v 5 5 1
v 6 3 1
v 6 4 1
v 13 4 1
v 13 5 1
v 15 4 1
v 15 5 1
v -19 3 -4
v -19 6 -4
v 19 3 -4
v 19 6 -4
v -19 3 4
v -19 6 4
v 19 3 4
v 19 6 4
v 11 3 1
v 11 4 1
v 12 3 1
v 12 4 1
v -6 3 -0
v -6 4 -0
v -5 3 -0
v -5 4 -0
v -4 4 -0
v -4 5 -0
v -3 4 -0
v -3 5 -0
v -2 4 -0
v -2 5 -0
v -1 4 -0
v -1 5 -0
v 5 3 -0
v 5 4 -0
v 6 3 -0
v 6 4 -0
v 7 4 -0
v 7 5 -0
v 10 4 -0
v 10 5 -0
v -17 4 -1
v -17 5 -1
v -15 4 -1
v -15 5 -1
v -11 3 -1
v -11 4 -1
v -10 3 -1
v -10 4 -1
v -9 4 -1
v -9 5 -1
v -7 4 -1
v -7 5 -1
v -5 3 -1
v -5 4 -1
v -4 3 -1
v -4 4 -1
v -3 4 -1
v -3 5 -1
v -2 4 -1
v -2 5 -1
v 0 3 -1
v 0 4 -1
v 1 3 -1
v 1 4 -1
v 2 4 -1
v 2 5 -1
v 5 4 -1
v 5 5 -1
v 8 3 -1
v 8 4 -1
v 11 3 -1
v 11 4 -1
v 13 4 -1
v 13 5 -1
v 15 4 -1
v 15 5 -1
v -18 3 -2
v -18 4 -2
v -17 3 -2
v -17 4 -2
v -15 4 -2
v -15 5 -2
v -13 4 -2
v -13 5 -2
v -12 3 -2
v -12 4 -2
v -11 3 -2
v -11 4 -2
v -10 3 -2
v -10 4 -2
v -6 3 -2
v -6 4 -2
v -4 3 -2
v -4 4 -2
v 0 3 -2
v 0 4 -2
v 1 3 -2
v 1 4 -2
v 5 3 -2
v 5 4 -2
v 6 3 -2
v 6 4 -2
v 8 3 -2
v 8 4 -2
v 12 3 -2
v 12 4 -2
v 17 3 -2
v 17 4 -2
v -17 3 -3
v -17 4 -3
v -12 3 -3
v -12 4 -3
v -20 0 -4
v -20 1 -4
v 19 0 -4
v 19 1 -4
v -20 1 -5
v -20 6 -5
v 20 1 -5
v 20 6 -5
v -20 0 4
v 19 0 4
v -20 0 -4
v 19 0 -4
v -20 1 5
v 20 1 5
v -20 1 4
v 19 1 4
v -20 1 -4
v 19 1 -4
v -20 1 -5
v 20 1 -5
v -19 3 4
v 19 3 4
v -18 3 3
v -12 3 3
v -10 3 3
v -6 3 3
v -4 3 3
v 0 3 3
v 6 3 3
v 12 3 3
v -12 3 2
v -11 3 2
v -6 3 2
v -4 3 2
v 0 3 2
v 1 3 2
v 2 3 2
v 5 3 2
v 12 3 2
v 17 3 2
v -11 3 1
v -10 3 1
v 1 3 1
v 2 3 1
v 5 3 1
v 6 3 1
v 11 3 1
v 12 3 1
v -6 3 -0
v -5 3 -0
v 5 3 -0
v 6 3 -0
v -11 3 -1
v -10 3 -1
v -5 3 -1
v -4 3 -1
v 0 3 -1
v 1 3 -1
v 8 3 -1
v 11 3 -1
v -18 3 -2
v -17 3 -2
v -12 3 -2
v -11 3 -2
v -10 3 -2
v -6 3 -2
v -4 3 -2
v 0 3 -2
v 1 3 -2
v 5 3 -2
v 6 3 -2
v 8 3 -2
v 12 3 -2
v 17 3 -2
v -17 3 -3
v -12 3 -3
v -19 3 -4
v 19 3 -4
v -18 4 3
v -12 4 3
v -10 4 3
v -6 4 3
v -4 4 3
v 0 4 3
v 6 4 3
v 12 4 3
v -17 4 2
v -13 4 2
v -12 4 2
v -11 4 2
v -6 4 2
v -4 4 2
v -2 4 2
v 0 4 2
v 1 4 2
v 2 4 2
v 5 4 2
v 7 4 2
v 10 4 2
v 12 4 2
v 17 4 2
v -11 4 1
v -10 4 1
v -9 4 1
v -7 4 1
v -2 4 1
v -1 4 1
v 1 4 1
v 2 4 1
v 5 4 1
v 6 4 1
v 11 4 1
v 12 4 1
v 13 4 1
v 15 4 1
v -6 4 -0
v -5 4 -0
v -4 4 -0
v -3 4 -0
v -2 4 -0
v -1 4 -0
v 5 4 -0
v 6 4 -0
v 7 4 -0
v 10 4 -0
v -17 4 -1
v -15 4 -1
v -11 4 -1
v -10 4 -1
v -9 4 -1
v -7 4 -1
v -5 4 -1
v -4 4 -1
v -3 4 -1
v -2 4 -1
v 0 4 -1
v 1 4 -1
v 2 4 -1
v 5 4 -1
v 8 4 -1
v 11 4 -1
v 13 4 -1
v 15 4 -1
v -18 4 -2
v -17 4 -2
v -15 4 -2
v -13 4 -2
v -12 4 -2
v -11 4 -2
v -10 4 -2
v -6 4 -2
v -4 4 -2
v 0 4 -2
v 1 4 -2
v 5 4 -2
v 6 4 -2
v 8 4 -2
v 12 4 -2
v 17 4 -2
v -17 4 -3
v -12 4 -3
v -17 5 2
v -13 5 2
v -4 5 2
v -2 5 2
v 7 5 2
v 10 5 2
v -9 5 1
v -7 5 1
v -2 5 1
v -1 5 1
v 2 5 1
v 5 5 1
v 13 5 1
v 15 5 1
v -4 5 -0
v -3 5 -0
v -2 5 -0
v -1 5 -0
v 7 5 -0
v 10 5 -0
v -17 5 -1
v -15 5 -1
v -9 5 -1
v -7 5 -1
v -3 5 -1
v -2 5 -1
v 2 5 -1
v 5 5 -1
v 13 5 -1
v 15 5 -1
v -15 5 -2
v -13 5 -2
v -20 6 5
v 20 6 5
v -19 6 4
v 19 6 4
v -19 6 -4
v 19 6 -4
v -20 6 -5
v 20 6 -5

# faces
f 4/3/1 2/3/1 1/3/1
f 5/3/1 2/3/1 4/3/1
f 7/3/1 4/3/1 3/3/1
f 7/3/1 6/3/1 5/3/1
f 7/3/1 5/3/1 4/3/1
f 8/3/1 6/3/1 7/3/1
f 11/1/1 10/1/1 9/1/1
f 12/1/1 10/1/1 11/1/1
f 17/1/1 14/1/1 13/1/1
f 18/1/1 14/1/1 17/1/1
f 19/1/1 16/1/1 15/1/1
f 20/1/1 16/1/1 19/1/1
f 23/1/1 22/1/1 21/1/1
f 24/1/1 22/1/1 23/1/1
f 29/1/1 26/1/1 25/1/1
f 30/1/1 26/1/1 29/1/1
f 31/1/1 28/1/1 27/1/1
f 32/1/1 28/1/1 31/1/1
f 35/1/1 34/1/1 33/1/1
f 36/1/1 34/1/1 35/1/1
f 39/1/1 38/1/1 37/1/1
f 40/1/1 38/1/1 39/1/1
f 45/1/1 42/1/1 41/1/1
f 46/1/1 42/1/1 45/1/1
f 48/1/1 44/1/1 43/1/1
f 49/1/1 44/1/1 48/1/1
f 50/1/1 47/1/1 46/1/1
f 51/1/1 47/1/1 50/1/1
f 54/1/1 53/1/1 52/1/1
f 55/1/1 53/1/1 54/1/1
f 58/1/1 57/1/1 56/1/1
f 59/1/1 57/1/1 58/1/1
f 62/1/1 61/1/1 60/1/1
f 63/1/1 61/1/1 62/1/1
f 65/1/1 64/1/1 63/1/1
f 66/1/1 64/1/1 65/1/1
f 71/1/1 68/1/1 67/1/1
f 72/1/1 68/1/1 71/1/1
f 73/1/1 70/1/1 69/1/1
f 74/1/1 70/1/1 73/1/1
f 77/1/1 76/1/1 75/1/1
f 78/1/1 76/1/1 77/1/1
f 81/1/1 80/1/1 79/1/1
f 82/1/1 80/1/1 81/1/1
f 85/1/1 84/1/1 83/1/1
f 86/1/1 84/1/1 85/1/1
f 89/3/1 88/3/1 87/3/1
f 90/3/1 88/3/1 89/3/1
f 91/3/2 92/3/2 93/3/2
f 93/3/2 92/3/2 94/3/2
f 95/1/2 96/1/2 97/1/2
f 97/1/2 96/1/2 98/1/2
f 99/1/2 100/1/2 103/1/2
f 103/1/2 100/1/2 104/1/2
f 101/1/2 102/1/2 105/1/2
f 105/1/2 102/1/2 106/1/2
f 107/1/2 108/1/2 111/1/2
f 111/1/2 108/1/2 112/1/2
f 109/1/2 110/1/2 113/1/2
f 113/1/2 110/1/2 114/1/2
f 115/1/2 116/1/2 117/1/2
f 117/1/2 116/1/2 118/1/2
f 119/1/2 120/1/2 123/1/2
f 123/1/2 120/1/2 124/1/2
f 121/1/2 122/1/2 125/1/2
f 125/1/2 122/1/2 126/1/2
f 127/1/2 128/1/2 131/1/2
f 131/1/2 128/1/2 132/1/2
f 129/1/2 130/1/2 133/1/2
f 133/1/2 130/1/2 134/1/2
f 135/1/2 136/1/2 137/1/2
f 137/1/2 136/1/2 138/1/2
f 139/1/2 140/1/2 143/1/2
f 143/1/2 140/1/2 144/1/2
f 141/1/2 142/1/2 145/1/2
f 145/1/2 142/1/2 146/1/2
f 147/1/2 148/1/2 149/1/2
f 149/1/2 148/1/2 150/1/2
f 151/1/2 152/1/2 155/1/2
f 155/1/2 152/1/2 156/1/2
f 153/1/2 154/1/2 157/1/2
f 157/1/2 154/1/2 158/1/2
f 158/1/2 154/1/2 159/1/2
f 156/1/2 157/1/2 160/1/2
f 157/1/2 158/1/2 160/1/2
f 160/1/2 158/1/2 161/1/2
f 162/1/2 163/1/2 164/1/2
f 164/1/2 163/1/2 165/1/2
f 166/1/2 167/1/2 168/1/2
f 168/1/2 167/1/2 169/1/2
f 170/1/2 171/1/2 172/1/2
f 172/1/2 171/1/2 173/1/2
f 174/1/2 175/1/2 176/1/2
f 176/1/2 175/1/2 177/1/2
f 178/1/2 179/1/2 180/1/2
f 180/1/2 179/1/2 181/1/2
f 182/1/2 183/1/2 184/1/2
f 184/1/2 183/1/2 185/1/2
f 186/3/2 187/3/2 188/3/2
f 188/3/2 187/3/2 189/3/2
f 190/3/2 191/3/2 192/3/2
f 192/3/2 191/3/2 193/3/2
f 196/3/3 195/3/3 194/3/3
f 197/3/3 195/3/3 196/3/3
f 200/3/3 199/3/3 198/3/3
f 201/3/3 199/3/3 200/3/3
f 204/1/3 203/1/3 202/1/3
f 205/1/3 203/1/3 204/1/3
f 208/1/3 207/1/3 206/1/3
f 209/1/3 207/1/3 208/1/3
f 212/1/3 211/1/3 210/1/3
f 213/1/3 211/1/3 212/1/3
f 216/1/3 215/1/3 214/1/3
f 217/1/3 215/1/3 216/1/3
f 220/1/3 219/1/3 218/1/3
f 221/1/3 219/1/3 220/1/3
f 224/1/3 223/1/3 222/1/3
f 225/1/3 223/1/3 224/1/3
f 228/1/3 227/1/3 226/1/3
f 229/1/3 227/1/3 228/1/3
f 231/1/3 230/1/3 229/1/3
f 232/1/3 230/1/3 231/1/3
f 235/1/3 234/1/3 233/1/3
f 236/1/3 234/1/3 235/1/3
f 239/1/3 238/1/3 237/1/3
f 240/1/3 238/1/3 239/1/3
f 243/1/3 242/1/3 241/1/3
f 244/1/3 242/1/3 243/1/3
f 247/1/3 246/1/3 245/1/3
f 248/1/3 246/1/3 247/1/3
f 251/1/3 250/1/3 249/1/3
f 252/1/3 250/1/3 251/1/3
f 255/1/3 254/1/3 253/1/3
f 256/1/3 254/1/3 255/1/3
f 259/1/3 258/1/3 257/1/3
f 260/1/3 258/1/3 259/1/3
f 263/1/3 262/1/3 261/1/3
f 264/1/3 262/1/3 263/1/3
f 267/1/3 265/1/3 264/1/3
f 268/1/3 265/1/3 267/1/3
f 269/1/3 267/1/3 266/1/3
f 270/1/3 267/1/3 269/1/3
f 273/1/3 272/1/3 271/1/3
f 274/1/3 272/1/3 273/1/3
f 277/3/3 276/3/3 275/3/3
f 278/3/3 276/3/3 277/3/3
f 279/3/4 280/3/4 281/3/4
f 281/3/4 280/3/4 282/3/4
f 283/1/4 284/1/4 285/1/4
f 285/1/4 284/1/4 286/1/4
f 287/1/4 288/1/4 289/1/4
f 289/1/4 288/1/4 290/1/4
f 291/1/4 292/1/4 293/1/4
f 293/1/4 292/1/4 294/1/4
f 295/1/4 296/1/4 297/1/4
f 297/1/4 296/1/4 298/1/4
f 299/1/4 300/1/4 301/1/4
f 301/1/4 300/1/4 302/1/4
f 303/1/4 304/1/4 305/1/4
f 305/1/4 304/1/4 306/1/4
f 307/1/4 308/1/4 309/1/4
f 309/1/4 308/1/4 310/1/4
f 311/1/4 312/1/4 313/1/4
f 313/1/4 312/1/4 314/1/4
f 315/1/4 316/1/4 317/1/4
f 317/1/4 316/1/4 318/1/4
f 319/1/4 320/1/4 321/1/4
f 321/1/4 320/1/4 322/1/4
f 323/1/4 324/1/4 325/1/4
f 325/1/4 324/1/4 326/1/4
f 327/1/4 328/1/4 329/1/4
f 329/1/4 328/1/4 330/1/4
f 331/1/4 332/1/4 333/1/4
f 333/1/4 332/1/4 334/1/4
f 335/1/4 336/1/4 337/1/4
f 337/1/4 336/1/4 338/1/4
f 339/1/4 340/1/4 341/1/4
f 341/1/4 340/1/4 342/1/4
f 343/1/4 344/1/4 345/1/4
f 345/1/4 344/1/4 346/1/4
f 347/1/4 348/1/4 349/1/4
f 349/1/4 348/1/4 350/1/4
f 351/1/4 352/1/4 353/1/4
f 353/1/4 352/1/4 354/1/4
f 355/1/4 356/1/4 357/1/4
f 357/1/4 356/1/4 358/1/4
f 359/1/4 360/1/4 361/1/4
f 361/1/4 360/1/4 362/1/4
f 363/1/4 364/1/4 365/1/4
f 365/1/4 364/1/4 366/1/4
f 367/1/4 368/1/4 369/1/4
f 369/1/4 368/1/4 370/1/4
f 371/1/4 372/1/4 373/1/4
f 373/1/4 372/1/4 374/1/4
f 375/1/4 376/1/4 377/1/4
f 377/1/4 376/1/4 378/1/4
f 379/3/4 380/3/4 381/3/4
f 381/3/4 380/3/4 382/3/4
f 383/3/4 384/3/4 385/3/4
f 385/3/4 384/3/4 386/3/4
f 389/3/5 388/3/5 387/3/5
f 390/3/5 388/3/5 389/3/5
f 393/3/5 392/3/5 391/3/5
f 394/3/5 392/3/5 393/3/5
f 396/3/5 392/3/5 394/3/5
f 397/3/5 396/3/5 395/3/5
f 398/3/5 392/3/5 396/3/5
f 398/3/5 396/3/5 397/3/5
f 399/2/6 400/2/6 401/2/6
f 401/2/6 400/2/6 402/2/6
f 402/2/6 400/2/6 403/2/6
f 403/2/6 400/2/6 404/2/6
f 404/2/6 400/2/6 405/2/6
f 405/2/6 400/2/6 406/2/6
f 406/2/6 400/2/6 407/2/6
f 407/2/6 400/2/6 408/2/6
f 402/2/6 403/2/6 409/2/6
f 409/2/6 403/2/6 410/2/6
f 404/2/6 405/2/6 411/2/6
f 411/2/6 405/2/6 412/2/6
f 406/2/6 407/2/6 413/2/6
f 413/2/6 407/2/6 414/2/6
f 414/2/6 407/2/6 415/2/6
f 415/2/6 407/2/6 416/2/6
f 408/2/6 400/2/6 417/2/6
f 417/2/6 400/2/6 418/2/6
f 410/2/6 403/2/6 419/2/6
f 419/2/6 403/2/6 420/2/6
f 414/2/6 415/2/6 421/2/6
f 421/2/6 415/2/6 422/2/6
f 416/2/6 407/2/6 423/2/6
f 423/2/6 407/2/6 424/2/6
f 427/2/6 428/2/6 433/2/6
f 425/2/6 426/2/6 438/2/6
f 399/2/6 401/2/6 439/2/6
f 431/2/6 432/2/6 442/2/6
f 442/2/6 432/2/6 443/2/6
f 427/2/6 433/2/6 444/2/6
f 433/2/6 434/2/6 444/2/6
f 444/2/6 434/2/6 445/2/6
f 435/2/6 436/2/6 446/2/6
f 446/2/6 436/2/6 447/2/6
f 429/2/6 430/2/6 448/2/6
f 448/2/6 430/2/6 449/2/6
f 437/2/6 438/2/6 450/2/6
f 438/2/6 426/2/6 451/2/6
f 450/2/6 438/2/6 451/2/6
f 418/2/6 400/2/6 452/2/6
f 439/2/6 440/2/6 453/2/6
f 448/2/6 449/2/6 454/2/6
f 444/2/6 445/2/6 454/2/6
f 450/2/6 451/2/6 454/2/6
f 451/2/6 452/2/6 454/2/6
f 446/2/6 447/2/6 454/2/6
f 447/2/6 448/2/6 454/2/6
f 442/2/6 443/2/6 454/2/6
f 445/2/6 446/2/6 454/2/6
f 441/2/6 442/2/6 454/2/6
f 443/2/6 444/2/6 454/2/6
f 449/2/6 450/2/6 454/2/6
f 439/2/6 453/2/6 455/2/6
f 453/2/6 454/2/6 455/2/6
f 399/2/6 439/2/6 455/2/6
f 454/2/6 452/2/6 456/2/6
f 455/2/6 454/2/6 456/2/6
f 452/2/6 400/2/6 456/2/6
f 457/1/6 458/1/6 465/1/6
f 465/1/6 458/1/6 466/1/6
f 466/1/6 458/1/6 467/1/6
f 459/1/6 460/1/6 469/1/6
f 461/1/6 462/1/6 470/1/6
f 470/1/6 462/1/6 471/1/6
f 471/1/6 462/1/6 472/1/6
f 463/1/6 464/1/6 476/1/6
f 476/1/6 464/1/6 477/1/6
f 477/1/6 464/1/6 478/1/6
f 467/1/6 468/1/6 480/1/6
f 466/1/6 467/1/6 480/1/6
f 459/1/6 469/1/6 481/1/6
f 469/1/6 470/1/6 481/1/6
f 481/1/6 470/1/6 482/1/6
f 482/1/6 470/1/6 483/1/6
f 471/1/6 472/1/6 484/1/6
f 472/1/6 473/1/6 484/1/6
f 484/1/6 473/1/6 485/1/6
f 485/1/6 473/1/6 486/1/6
f 474/1/6 475/1/6 487/1/6
f 487/1/6 475/1/6 488/1/6
f 463/1/6 476/1/6 489/1/6
f 478/1/6 479/1/6 490/1/6
f 477/1/6 478/1/6 490/1/6
f 490/1/6 479/1/6 491/1/6
f 491/1/6 479/1/6 492/1/6
f 492/1/6 479/1/6 493/1/6
f 483/1/6 470/1/6 494/1/6
f 494/1/6 470/1/6 495/1/6
f 495/1/6 470/1/6 496/1/6
f 485/1/6 486/1/6 499/1/6
f 486/1/6 487/1/6 499/1/6
f 488/1/6 489/1/6 500/1/6
f 489/1/6 476/1/6 501/1/6
f 500/1/6 489/1/6 501/1/6
f 501/1/6 476/1/6 502/1/6
f 477/1/6 490/1/6 503/1/6
f 457/1/6 465/1/6 504/1/6
f 466/1/6 480/1/6 506/1/6
f 480/1/6 481/1/6 506/1/6
f 481/1/6 482/1/6 506/1/6
f 506/1/6 482/1/6 507/1/6
f 507/1/6 482/1/6 508/1/6
f 483/1/6 494/1/6 509/1/6
f 496/1/6 497/1/6 510/1/6
f 495/1/6 496/1/6 510/1/6
f 510/1/6 497/1/6 511/1/6
f 511/1/6 497/1/6 512/1/6
f 498/1/6 499/1/6 513/1/6
f 499/1/6 487/1/6 514/1/6
f 513/1/6 499/1/6 514/1/6
f 514/1/6 487/1/6 515/1/6
f 515/1/6 487/1/6 516/1/6
f 502/1/6 503/1/6 518/1/6
f 501/1/6 502/1/6 518/1/6
f 503/1/6 490/1/6 519/1/6
f 518/1/6 503/1/6 519/1/6
f 491/1/6 492/1/6 520/1/6
f 493/1/6 479/1/6 521/1/6
f 504/1/6 505/1/6 522/1/6
f 457/1/6 504/1/6 522/1/6
f 522/1/6 505/1/6 523/1/6
f 523/1/6 505/1/6 524/1/6
f 466/1/6 506/1/6 525/1/6
f 525/1/6 506/1/6 526/1/6
f 526/1/6 506/1/6 527/1/6
f 508/1/6 509/1/6 528/1/6
f 507/1/6 508/1/6 528/1/6
f 509/1/6 494/1/6 529/1/6
f 528/1/6 509/1/6 529/1/6
f 511/1/6 512/1/6 530/1/6
f 512/1/6 513/1/6 530/1/6
f 513/1/6 514/1/6 530/1/6
f 530/1/6 514/1/6 531/1/6
f 516/1/6 517/1/6 532/1/6
f 515/1/6 516/1/6 532/1/6
f 532/1/6 517/1/6 533/1/6
f 501/1/6 518/1/6 534/1/6
f 534/1/6 518/1/6 535/1/6
f 520/1/6 521/1/6 536/1/6
f 491/1/6 520/1/6 536/1/6
f 521/1/6 479/1/6 537/1/6
f 536/1/6 521/1/6 537/1/6
f 525/1/6 526/1/6 538/1/6
f 524/1/6 525/1/6 538/1/6
f 523/1/6 524/1/6 538/1/6
f 538/1/6 526/1/6 539/1/6
f 542/1/6 543/1/6 548/1/6
f 542/1/6 548/1/6 554/1/6
f 548/1/6 549/1/6 554/1/6
f 554/1/6 549/1/6 555/1/6
f 555/1/6 549/1/6 556/1/6
f 556/1/6 549/1/6 557/1/6
f 544/1/6 545/1/6 558/1/6
f 558/1/6 545/1/6 559/1/6
f 540/1/6 541/1/6 560/1/6
f 560/1/6 541/1/6 561/1/6
f 546/1/6 547/1/6 562/1/6
f 562/1/6 547/1/6 563/1/6
f 555/1/6 556/1/6 564/1/6
f 564/1/6 556/1/6 565/1/6
f 550/1/6 551/1/6 566/1/6
f 566/1/6 551/1/6 567/1/6
f 552/1/6 553/1/6 568/1/6
f 568/1/6 553/1/6 569/1/6
f 561/1/6 541/1/6 570/1/6
f 570/1/6 541/1/6 571/1/6
f 572/3/6 573/3/6 574/3/6
f 574/3/6 573/3/6 575/3/6
f 572/3/6 574/3/6 576/3/6
f 575/3/6 573/3/6 577/3/6
f 572/3/6 576/3/6 578/3/6
f 576/3/6 577/3/6 578/3/6
f 577/3/6 573/3/6 579/3/6
f 578/3/6 577/3/6 579/3/6
