# MagicaVoxel @ ephtracy

# material
mtllib mediumTorch.mtl
usemtl palette

# normals
vn -1 0 0
vn 1 0 0
vn 0 0 1
vn 0 0 -1
vn 0 -1 0
vn 0 1 0

# texcoords
vt 0.962891 0.5
vt 0.966797 0.5
vt 0.974609 0.5
vt 0.978516 0.5
vt 0.982422 0.5

# verts
v -7 8 7
v -7 8 -7
v -7 11 7
v -7 11 -7
v -7 12 7
v -7 12 -7
v -7 15 7
v -7 15 -7
v -6 0 6
v -6 0 -6
v -6 3 6
v -6 3 -6
v -6 4 6
v -6 4 -6
v -6 8 6
v -6 8 -6
v -6 11 6
v -6 11 -6
v -6 12 6
v -6 12 -6
v -5 3 5
v -5 3 -5
v -5 4 5
v -5 4 -5
v 4 11 4
v 4 11 -4
v 4 12 4
v 4 12 -4
v 5 12 5
v 5 12 -5
v 5 13 5
v 5 13 -5
v 6 13 6
v 6 13 -6
v 6 15 6
v 6 15 -6
v -6 13 6
v -6 13 -6
v -6 15 6
v -6 15 -6
v -5 12 5
v -5 12 -5
v -5 13 5
v -5 13 -5
v -4 11 4
v -4 11 -4
v -4 12 4
v -4 12 -4
v 5 3 5
v 5 3 -5
v 5 4 5
v 5 4 -5
v 6 0 6
v 6 0 -6
v 6 3 6
v 6 3 -6
v 6 4 6
v 6 4 -6
v 6 8 6
v 6 8 -6
v 6 11 6
v 6 11 -6
v 6 12 6
v 6 12 -6
v 7 8 7
v 7 8 -7
v 7 11 7
v 7 11 -7
v 7 12 7
v 7 12 -7
v 7 15 7
v 7 15 -7
v -7 8 7
v -7 11 7
v -7 12 7
v -7 15 7
v 7 8 7
v 7 11 7
v 7 12 7
v 7 15 7
v -6 0 6
v -6 3 6
v -6 4 6
v -6 8 6
v -6 11 6
v -6 12 6
v 6 0 6
v 6 3 6
v 6 4 6
v 6 8 6
v 6 11 6
v 6 12 6
v -5 3 5
v -5 4 5
v 5 3 5
v 5 4 5
v -4 11 -4
v -4 12 -4
v 4 11 -4
v 4 12 -4
v -5 12 -5
v -5 13 -5
v 5 12 -5
v 5 13 -5
v -6 13 -6
v -6 15 -6
v 6 13 -6
v 6 15 -6
v -6 13 6
v -6 15 6
v 6 13 6
v 6 15 6
v -5 12 5
v -5 13 5
v 5 12 5
v 5 13 5
v -4 11 4
v -4 12 4
v 4 11 4
v 4 12 4
v -5 3 -5
v -5 4 -5
v 5 3 -5
v 5 4 -5
v -6 0 -6
v -6 3 -6
v -6 4 -6
v -6 8 -6
v -6 11 -6
v -6 12 -6
v 6 0 -6
v 6 3 -6
v 6 4 -6
v 6 8 -6
v 6 11 -6
v 6 12 -6
v -7 8 -7
v -7 11 -7
v -7 12 -7
v -7 15 -7
v 7 8 -7
v 7 11 -7
v 7 12 -7
v 7 15 -7
v -6 0 6
v 6 0 6
v -6 0 -6
v 6 0 -6
v -6 4 6
v 6 4 6
v -5 4 5
v 5 4 5
v -5 4 -5
v 5 4 -5
v -6 4 -6
v 6 4 -6
v -7 8 7
v 7 8 7
v -6 8 6
v 6 8 6
v -6 8 -6
v 6 8 -6
v -7 8 -7
v 7 8 -7
v -7 12 7
v 7 12 7
v -6 12 6
v 6 12 6
v -6 12 -6
v 6 12 -6
v -7 12 -7
v 7 12 -7
v -6 3 6
v 6 3 6
v -5 3 5
v 5 3 5
v -5 3 -5
v 5 3 -5
v -6 3 -6
v 6 3 -6
v -7 11 7
v 7 11 7
v -6 11 6
v 6 11 6
v -4 11 4
v 4 11 4
v -4 11 -4
v 4 11 -4
v -6 11 -6
v 6 11 -6
v -7 11 -7
v 7 11 -7
v -5 12 5
v 5 12 5
v -4 12 4
v 4 12 4
v -4 12 -4
v 4 12 -4
v -5 12 -5
v 5 12 -5
v -6 13 6
v 6 13 6
v -5 13 5
v 5 13 5
v -5 13 -5
v 5 13 -5
v -6 13 -6
v 6 13 -6
v -7 15 7
v 7 15 7
v -6 15 6
v 6 15 6
v -6 15 -6
v 6 15 -6
v -7 15 -7
v 7 15 -7

# faces
f 3/1/1 2/1/1 1/1/1
f 4/1/1 2/1/1 3/1/1
f 7/2/1 6/2/1 5/2/1
f 8/2/1 6/2/1 7/2/1
f 11/1/1 10/1/1 9/1/1
f 12/1/1 10/1/1 11/1/1
f 15/1/1 14/1/1 13/1/1
f 16/1/1 14/1/1 15/1/1
f 19/1/1 18/1/1 17/1/1
f 20/1/1 18/1/1 19/1/1
f 23/1/1 22/1/1 21/1/1
f 24/1/1 22/1/1 23/1/1
f 27/4/1 26/4/1 25/4/1
f 28/4/1 26/4/1 27/4/1
f 31/3/1 30/3/1 29/3/1
f 32/3/1 30/3/1 31/3/1
f 35/2/1 34/2/1 33/2/1
f 36/2/1 34/2/1 35/2/1
f 37/2/2 38/2/2 39/2/2
f 39/2/2 38/2/2 40/2/2
f 41/3/2 42/3/2 43/3/2
f 43/3/2 42/3/2 44/3/2
f 45/4/2 46/4/2 47/4/2
f 47/4/2 46/4/2 48/4/2
f 49/1/2 50/1/2 51/1/2
f 51/1/2 50/1/2 52/1/2
f 53/1/2 54/1/2 55/1/2
f 55/1/2 54/1/2 56/1/2
f 57/1/2 58/1/2 59/1/2
f 59/1/2 58/1/2 60/1/2
f 61/1/2 62/1/2 63/1/2
f 63/1/2 62/1/2 64/1/2
f 65/1/2 66/1/2 67/1/2
f 67/1/2 66/1/2 68/1/2
f 69/2/2 70/2/2 71/2/2
f 71/2/2 70/2/2 72/2/2
f 77/1/3 74/1/3 73/1/3
f 78/1/3 74/1/3 77/1/3
f 79/2/3 76/2/3 75/2/3
f 80/2/3 76/2/3 79/2/3
f 87/1/3 82/1/3 81/1/3
f 88/1/3 82/1/3 87/1/3
f 89/1/3 84/1/3 83/1/3
f 90/1/3 84/1/3 89/1/3
f 91/1/3 86/1/3 85/1/3
f 92/1/3 86/1/3 91/1/3
f 95/1/3 94/1/3 93/1/3
f 96/1/3 94/1/3 95/1/3
f 99/4/3 98/4/3 97/4/3
f 100/4/3 98/4/3 99/4/3
f 103/3/3 102/3/3 101/3/3
f 104/3/3 102/3/3 103/3/3
f 107/2/3 106/2/3 105/2/3
f 108/2/3 106/2/3 107/2/3
f 109/2/4 110/2/4 111/2/4
f 111/2/4 110/2/4 112/2/4
f 113/3/4 114/3/4 115/3/4
f 115/3/4 114/3/4 116/3/4
f 117/4/4 118/4/4 119/4/4
f 119/4/4 118/4/4 120/4/4
f 121/1/4 122/1/4 123/1/4
f 123/1/4 122/1/4 124/1/4
f 125/1/4 126/1/4 131/1/4
f 131/1/4 126/1/4 132/1/4
f 127/1/4 128/1/4 133/1/4
f 133/1/4 128/1/4 134/1/4
f 129/1/4 130/1/4 135/1/4
f 135/1/4 130/1/4 136/1/4
f 137/1/4 138/1/4 141/1/4
f 141/1/4 138/1/4 142/1/4
f 139/2/4 140/2/4 143/2/4
f 143/2/4 140/2/4 144/2/4
f 147/1/5 146/1/5 145/1/5
f 148/1/5 146/1/5 147/1/5
f 151/1/5 150/1/5 149/1/5
f 152/1/5 150/1/5 151/1/5
f 153/1/5 151/1/5 149/1/5
f 154/1/5 150/1/5 152/1/5
f 155/1/5 153/1/5 149/1/5
f 155/1/5 154/1/5 153/1/5
f 156/1/5 150/1/5 154/1/5
f 156/1/5 154/1/5 155/1/5
f 159/1/5 158/1/5 157/1/5
f 160/1/5 158/1/5 159/1/5
f 161/1/5 159/1/5 157/1/5
f 162/1/5 158/1/5 160/1/5
f 163/1/5 161/1/5 157/1/5
f 163/1/5 162/1/5 161/1/5
f 164/1/5 158/1/5 162/1/5
f 164/1/5 162/1/5 163/1/5
f 167/2/5 166/2/5 165/2/5
f 168/2/5 166/2/5 167/2/5
f 169/2/5 167/2/5 165/2/5
f 170/2/5 166/2/5 168/2/5
f 171/2/5 169/2/5 165/2/5
f 171/2/5 170/2/5 169/2/5
f 172/2/5 166/2/5 170/2/5
f 172/2/5 170/2/5 171/2/5
f 173/1/6 174/1/6 175/1/6
f 175/1/6 174/1/6 176/1/6
f 173/1/6 175/1/6 177/1/6
f 176/1/6 174/1/6 178/1/6
f 173/1/6 177/1/6 179/1/6
f 177/1/6 178/1/6 179/1/6
f 178/1/6 174/1/6 180/1/6
f 179/1/6 178/1/6 180/1/6
f 181/1/6 182/1/6 183/1/6
f 183/1/6 182/1/6 184/1/6
f 185/5/6 186/5/6 187/5/6
f 187/5/6 186/5/6 188/5/6
f 181/1/6 183/1/6 189/1/6
f 184/1/6 182/1/6 190/1/6
f 181/1/6 189/1/6 191/1/6
f 189/1/6 190/1/6 191/1/6
f 190/1/6 182/1/6 192/1/6
f 191/1/6 190/1/6 192/1/6
f 193/4/6 194/4/6 195/4/6
f 195/4/6 194/4/6 196/4/6
f 193/4/6 195/4/6 197/4/6
f 196/4/6 194/4/6 198/4/6
f 193/4/6 197/4/6 199/4/6
f 197/4/6 198/4/6 199/4/6
f 198/4/6 194/4/6 200/4/6
f 199/4/6 198/4/6 200/4/6
f 201/3/6 202/3/6 203/3/6
f 203/3/6 202/3/6 204/3/6
f 201/3/6 203/3/6 205/3/6
f 204/3/6 202/3/6 206/3/6
f 201/3/6 205/3/6 207/3/6
f 205/3/6 206/3/6 207/3/6
f 206/3/6 202/3/6 208/3/6
f 207/3/6 206/3/6 208/3/6
f 209/2/6 210/2/6 211/2/6
f 211/2/6 210/2/6 212/2/6
f 209/2/6 211/2/6 213/2/6
f 212/2/6 210/2/6 214/2/6
f 209/2/6 213/2/6 215/2/6
f 213/2/6 214/2/6 215/2/6
f 214/2/6 210/2/6 216/2/6
f 215/2/6 214/2/6 216/2/6
