# MagicaVoxel @ ephtracy

# material
mtllib fabianHead.mtl
usemtl palette

# normals
vn -1 0 0
vn 1 0 0
vn 0 0 1
vn 0 0 -1
vn 0 -1 0
vn 0 1 0

# texcoords
vt 0.00195313 0.5
vt 0.0332031 0.5
vt 0.634766 0.5
vt 0.986328 0.5
vt 0.994141 0.5

# verts
v -4 8 0.5
v -4 8 -0.5
v -4 9 0.5
v -4 9 -0.5
v -3 7 0.5
v -3 7 -2.5
v -3 8 1.5
v -3 8 0.5
v -3 8 -0.5
v -3 8 -2.5
v -3 9 0.5
v -3 9 -0.5
v -3 12 1.5
v -3 12 -2.5
v -2 7 1.5
v -2 7 0.5
v -2 7 -2.5
v -2 7 -3.5
v -2 8 1.5
v -2 8 0.5
v -2 8 -2.5
v -2 8 -3.5
v -2 10 2.5
v -2 10 1.5
v -2 11 2.5
v -2 11 1.5
v -2 12 1.5
v -2 12 -2.5
v -2 12 -3.5
v -2 13 1.5
v -2 13 -2.5
v -1 8 -3.5
v -1 8 -4.5
v -1 11 2.5
v -1 11 1.5
v -1 11 -3.5
v -1 11 -4.5
v -1 12 2.5
v -1 12 1.5
v -1 12 -2.5
v -1 12 -3.5
v -1 12 -4.5
v -1 13 -2.5
v -1 14 -2.5
v -1 14 -4.5
v 1 8 -3.5
v 1 8 -4.5
v 1 11 2.5
v 1 11 1.5
v 1 11 -3.5
v 1 11 -4.5
v 1 12 2.5
v 1 12 1.5
v 1 12 -2.5
v 1 12 -3.5
v 1 12 -4.5
v 1 13 -2.5
v 1 14 -2.5
v 1 14 -4.5
v 2 7 1.5
v 2 7 0.5
v 2 7 -2.5
v 2 7 -3.5
v 2 8 1.5
v 2 8 0.5
v 2 8 -2.5
v 2 8 -3.5
v 2 10 2.5
v 2 10 1.5
v 2 11 2.5
v 2 11 1.5
v 2 12 1.5
v 2 12 -2.5
v 2 12 -3.5
v 2 13 1.5
v 2 13 -2.5
v 3 7 0.5
v 3 7 -2.5
v 3 8 1.5
v 3 8 0.5
v 3 8 -0.5
v 3 8 -2.5
v 3 9 0.5
v 3 9 -0.5
v 3 12 1.5
v 3 12 -2.5
v 4 8 0.5
v 4 8 -0.5
v 4 9 0.5
v 4 9 -0.5
v -2 10 2.5
v -2 11 2.5
v -1 11 2.5
v -1 12 2.5
v 1 11 2.5
v 1 12 2.5
v 2 10 2.5
v 2 11 2.5
v -3 8 1.5
v -3 12 1.5
v -2 7 1.5
v -2 8 1.5
v -2 9 1.5
v -2 10 1.5
v -2 11 1.5
v -2 12 1.5
v -2 13 1.5
v -1 8 1.5
v -1 9 1.5
v -1 11 1.5
v -1 12 1.5
v 1 8 1.5
v 1 9 1.5
v 1 11 1.5
v 1 12 1.5
v 2 7 1.5
v 2 8 1.5
v 2 9 1.5
v 2 10 1.5
v 2 11 1.5
v 2 12 1.5
v 2 13 1.5
v 3 8 1.5
v 3 12 1.5
v -4 8 0.5
v -4 9 0.5
v -3 7 0.5
v -3 8 0.5
v -3 9 0.5
v -2 7 0.5
v -2 8 0.5
v 2 7 0.5
v 2 8 0.5
v 3 7 0.5
v 3 8 0.5
v 3 9 0.5
v 4 8 0.5
v 4 9 0.5
v -1 13 -2.5
v -1 14 -2.5
v 1 13 -2.5
v 1 14 -2.5
v -4 8 -0.5
v -4 9 -0.5
v -3 8 -0.5
v -3 9 -0.5
v 3 8 -0.5
v 3 9 -0.5
v 4 8 -0.5
v 4 9 -0.5
v -3 7 -2.5
v -3 8 -2.5
v -3 12 -2.5
v -2 7 -2.5
v -2 8 -2.5
v -2 12 -2.5
v -2 13 -2.5
v -1 12 -2.5
v -1 13 -2.5
v 1 12 -2.5
v 1 13 -2.5
v 2 7 -2.5
v 2 8 -2.5
v 2 12 -2.5
v 2 13 -2.5
v 3 7 -2.5
v 3 8 -2.5
v 3 12 -2.5
v -2 7 -3.5
v -2 8 -3.5
v -2 12 -3.5
v -1 7 -3.5
v -1 8 -3.5
v -1 11 -3.5
v -1 12 -3.5
v 1 7 -3.5
v 1 8 -3.5
v 1 11 -3.5
v 1 12 -3.5
v 2 7 -3.5
v 2 8 -3.5
v 2 12 -3.5
v -1 8 -4.5
v -1 11 -4.5
v -1 12 -4.5
v -1 14 -4.5
v 1 8 -4.5
v 1 11 -4.5
v 1 12 -4.5
v 1 14 -4.5
v -2 7 1.5
v 2 7 1.5
v -3 7 0.5
v -2 7 0.5
v 2 7 0.5
v 3 7 0.5
v -3 7 -2.5
v -2 7 -2.5
v -1 7 -2.5
v 1 7 -2.5
v 2 7 -2.5
v 3 7 -2.5
v -2 7 -3.5
v -1 7 -3.5
v 1 7 -3.5
v 2 7 -3.5
v -3 8 1.5
v -2 8 1.5
v 2 8 1.5
v 3 8 1.5
v -4 8 0.5
v -3 8 0.5
v -2 8 0.5
v 2 8 0.5
v 3 8 0.5
v 4 8 0.5
v -4 8 -0.5
v -3 8 -0.5
v 3 8 -0.5
v 4 8 -0.5
v -1 8 -3.5
v 1 8 -3.5
v -1 8 -4.5
v 1 8 -4.5
v -2 10 2.5
v 2 10 2.5
v -2 10 1.5
v 2 10 1.5
v -1 12 -3.5
v 1 12 -3.5
v -1 12 -4.5
v 1 12 -4.5
v -4 9 0.5
v -3 9 0.5
v 3 9 0.5
v 4 9 0.5
v -4 9 -0.5
v -3 9 -0.5
v 3 9 -0.5
v 4 9 -0.5
v -2 11 2.5
v -1 11 2.5
v 1 11 2.5
v 2 11 2.5
v -2 11 1.5
v -1 11 1.5
v 1 11 1.5
v 2 11 1.5
v -1 11 -3.5
v 1 11 -3.5
v -1 11 -4.5
v 1 11 -4.5
v -1 12 2.5
v 1 12 2.5
v -3 12 1.5
v -2 12 1.5
v -1 12 1.5
v 1 12 1.5
v 2 12 1.5
v 3 12 1.5
v -3 12 -2.5
v -2 12 -2.5
v -1 12 -2.5
v 1 12 -2.5
v 2 12 -2.5
v 3 12 -2.5
v -2 12 -3.5
v -1 12 -3.5
v 1 12 -3.5
v 2 12 -3.5
v -2 13 1.5
v 2 13 1.5
v -2 13 -2.5
v -1 13 -2.5
v 1 13 -2.5
v 2 13 -2.5
v -1 14 -2.5
v 1 14 -2.5
v -1 14 -4.5
v 1 14 -4.5

# faces
f 3/2/1 2/2/1 1/2/1
f 4/2/1 2/2/1 3/2/1
f 8/2/1 6/2/1 5/2/1
f 9/2/1 6/2/1 8/2/1
f 10/2/1 6/2/1 9/2/1
f 11/1/1 8/1/1 7/1/1
f 12/1/1 10/1/1 9/1/1
f 13/1/1 11/1/1 7/1/1
f 13/1/1 12/1/1 11/1/1
f 14/1/1 10/1/1 12/1/1
f 14/1/1 12/1/1 13/1/1
f 19/2/1 16/2/1 15/2/1
f 20/2/1 16/2/1 19/2/1
f 21/1/1 18/1/1 17/1/1
f 22/1/1 18/1/1 21/1/1
f 25/4/1 24/4/1 23/4/1
f 26/4/1 24/4/1 25/4/1
f 28/4/1 22/4/1 21/4/1
f 29/4/1 22/4/1 28/4/1
f 30/4/1 28/4/1 27/4/1
f 31/4/1 28/4/1 30/4/1
f 36/4/1 33/4/1 32/4/1
f 37/4/1 33/4/1 36/4/1
f 38/4/1 35/4/1 34/4/1
f 39/4/1 35/4/1 38/4/1
f 43/4/1 42/4/1 41/4/1
f 43/4/1 41/4/1 40/4/1
f 44/4/1 42/4/1 43/4/1
f 45/4/1 42/4/1 44/4/1
f 46/4/2 47/4/2 50/4/2
f 50/4/2 47/4/2 51/4/2
f 48/4/2 49/4/2 52/4/2
f 52/4/2 49/4/2 53/4/2
f 55/4/2 56/4/2 57/4/2
f 54/4/2 55/4/2 57/4/2
f 57/4/2 56/4/2 58/4/2
f 58/4/2 56/4/2 59/4/2
f 60/2/2 61/2/2 64/2/2
f 64/2/2 61/2/2 65/2/2
f 62/1/2 63/1/2 66/1/2
f 66/1/2 63/1/2 67/1/2
f 68/4/2 69/4/2 70/4/2
f 70/4/2 69/4/2 71/4/2
f 66/4/2 67/4/2 73/4/2
f 73/4/2 67/4/2 74/4/2
f 72/4/2 73/4/2 75/4/2
f 75/4/2 73/4/2 76/4/2
f 77/2/2 78/2/2 80/2/2
f 80/2/2 78/2/2 81/2/2
f 81/2/2 78/2/2 82/2/2
f 79/1/2 80/1/2 83/1/2
f 81/1/2 82/1/2 84/1/2
f 79/1/2 83/1/2 85/1/2
f 83/1/2 84/1/2 85/1/2
f 84/1/2 82/1/2 86/1/2
f 85/1/2 84/1/2 86/1/2
f 87/2/2 88/2/2 89/2/2
f 89/2/2 88/2/2 90/2/2
f 93/4/3 92/4/3 91/4/3
f 95/4/3 93/4/3 91/4/3
f 95/4/3 94/4/3 93/4/3
f 96/4/3 94/4/3 95/4/3
f 97/4/3 95/4/3 91/4/3
f 98/4/3 95/4/3 97/4/3
f 102/1/3 100/1/3 99/1/3
f 103/1/3 100/1/3 102/1/3
f 104/1/3 100/1/3 103/1/3
f 105/1/3 100/1/3 104/1/3
f 106/1/3 100/1/3 105/1/3
f 108/2/3 102/2/3 101/2/3
f 108/5/3 103/5/3 102/5/3
f 109/2/3 104/2/3 103/2/3
f 109/5/3 103/5/3 108/5/3
f 110/4/3 107/4/3 106/4/3
f 110/4/3 106/4/3 105/4/3
f 111/4/3 107/4/3 110/4/3
f 112/2/3 109/2/3 108/2/3
f 112/2/3 108/2/3 101/2/3
f 113/2/3 104/2/3 109/2/3
f 113/2/3 109/2/3 112/2/3
f 115/4/3 107/4/3 111/4/3
f 116/2/3 112/2/3 101/2/3
f 117/5/3 113/5/3 112/5/3
f 117/2/3 112/2/3 116/2/3
f 118/2/3 104/2/3 113/2/3
f 118/5/3 113/5/3 117/5/3
f 119/2/3 104/2/3 118/2/3
f 120/4/3 115/4/3 114/4/3
f 121/4/3 107/4/3 115/4/3
f 121/4/3 115/4/3 120/4/3
f 122/4/3 107/4/3 121/4/3
f 123/1/3 119/1/3 118/1/3
f 123/1/3 121/1/3 120/1/3
f 123/1/3 120/1/3 119/1/3
f 123/1/3 118/1/3 117/1/3
f 124/1/3 121/1/3 123/1/3
f 128/2/3 126/2/3 125/2/3
f 129/2/3 126/2/3 128/2/3
f 130/2/3 128/2/3 127/2/3
f 131/2/3 128/2/3 130/2/3
f 134/2/3 133/2/3 132/2/3
f 135/2/3 133/2/3 134/2/3
f 137/2/3 136/2/3 135/2/3
f 138/2/3 136/2/3 137/2/3
f 141/4/3 140/4/3 139/4/3
f 142/4/3 140/4/3 141/4/3
f 143/2/4 144/2/4 145/2/4
f 145/2/4 144/2/4 146/2/4
f 147/2/4 148/2/4 149/2/4
f 149/2/4 148/2/4 150/2/4
f 151/2/4 152/2/4 154/2/4
f 152/1/4 153/1/4 155/1/4
f 154/2/4 152/2/4 155/2/4
f 155/1/4 153/1/4 156/1/4
f 156/4/4 157/4/4 158/4/4
f 158/4/4 157/4/4 159/4/4
f 160/4/4 161/4/4 164/4/4
f 164/4/4 161/4/4 165/4/4
f 162/2/4 163/2/4 166/2/4
f 163/1/4 164/1/4 167/1/4
f 166/2/4 163/2/4 167/2/4
f 167/1/4 164/1/4 168/1/4
f 169/1/4 170/1/4 172/1/4
f 170/4/4 171/4/4 173/4/4
f 172/1/4 170/1/4 173/1/4
f 173/4/4 171/4/4 174/4/4
f 174/4/4 171/4/4 175/4/4
f 172/4/4 173/4/4 176/4/4
f 176/4/4 173/4/4 177/4/4
f 174/4/4 175/4/4 178/4/4
f 178/4/4 175/4/4 179/4/4
f 176/1/4 177/1/4 180/1/4
f 177/4/4 178/4/4 181/4/4
f 180/1/4 177/1/4 181/1/4
f 178/4/4 179/4/4 181/4/4
f 181/4/4 179/4/4 182/4/4
f 183/4/4 184/4/4 187/4/4
f 187/4/4 184/4/4 188/4/4
f 185/4/4 186/4/4 189/4/4
f 189/4/4 186/4/4 190/4/4
f 194/2/5 192/2/5 191/2/5
f 195/2/5 192/2/5 194/2/5
f 197/2/5 194/2/5 193/2/5
f 197/2/5 196/2/5 195/2/5
f 197/2/5 195/2/5 194/2/5
f 198/2/5 196/2/5 197/2/5
f 199/2/5 196/2/5 198/2/5
f 200/2/5 196/2/5 199/2/5
f 201/2/5 196/2/5 200/2/5
f 202/2/5 196/2/5 201/2/5
f 203/1/5 199/1/5 198/1/5
f 204/4/5 200/4/5 199/4/5
f 204/1/5 199/1/5 203/1/5
f 205/1/5 201/1/5 200/1/5
f 205/4/5 200/4/5 204/4/5
f 206/1/5 201/1/5 205/1/5
f 212/1/5 208/1/5 207/1/5
f 213/1/5 208/1/5 212/1/5
f 214/1/5 210/1/5 209/1/5
f 215/1/5 210/1/5 214/1/5
f 217/2/5 212/2/5 211/2/5
f 218/2/5 212/2/5 217/2/5
f 219/2/5 216/2/5 215/2/5
f 220/2/5 216/2/5 219/2/5
f 223/4/5 222/4/5 221/4/5
f 224/4/5 222/4/5 223/4/5
f 227/4/5 226/4/5 225/4/5
f 228/4/5 226/4/5 227/4/5
f 231/4/5 230/4/5 229/4/5
f 232/4/5 230/4/5 231/4/5
f 233/2/6 234/2/6 237/2/6
f 237/2/6 234/2/6 238/2/6
f 235/2/6 236/2/6 239/2/6
f 239/2/6 236/2/6 240/2/6
f 241/4/6 242/4/6 245/4/6
f 245/4/6 242/4/6 246/4/6
f 243/4/6 244/4/6 247/4/6
f 247/4/6 244/4/6 248/4/6
f 249/4/6 250/4/6 251/4/6
f 251/4/6 250/4/6 252/4/6
f 253/4/6 254/4/6 257/4/6
f 257/4/6 254/4/6 258/4/6
f 255/1/6 256/1/6 261/1/6
f 261/1/6 256/1/6 262/1/6
f 259/1/6 260/1/6 265/1/6
f 265/1/6 260/1/6 266/1/6
f 262/4/6 263/4/6 267/4/6
f 267/4/6 263/4/6 268/4/6
f 264/4/6 265/4/6 269/4/6
f 269/4/6 265/4/6 270/4/6
f 271/4/6 272/4/6 273/4/6
f 273/4/6 272/4/6 274/4/6
f 274/4/6 272/4/6 275/4/6
f 275/4/6 272/4/6 276/4/6
f 277/4/6 278/4/6 279/4/6
f 279/4/6 278/4/6 280/4/6
