# MagicaVoxel @ ephtracy

# material
mtllib BloxCharacter.mtl
usemtl palette

# normals
vn -1 0 0
vn 1 0 0
vn 0 0 1
vn 0 0 -1
vn 0 -1 0
vn 0 1 0

# texcoords
vt 0.00195313 0.5
vt 0.0332031 0.5
vt 0.0605469 0.5
vt 0.634766 0.5
vt 0.638672 0.5
vt 0.857422 0.5
vt 0.873047 0.5
vt 0.962891 0.5
vt 0.994141 0.5

# verts
v -5 10 0.5
v -5 10 -0.5
v -5 11 0.5
v -5 11 -0.5
v -4 8 0.5
v -4 8 -0.5
v -4 8 -1.5
v -4 8 -3.5
v -4 9 0.5
v -4 9 -0.5
v -4 9 -1.5
v -4 9 -2.5
v -4 9 -3.5
v -4 10 1.5
v -4 10 0.5
v -4 10 -0.5
v -4 10 -1.5
v -4 10 -2.5
v -4 11 1.5
v -4 11 0.5
v -4 11 -0.5
v -4 11 -1.5
v -4 12 0.5
v -4 12 -0.5
v -3 5 4.5
v -3 5 -0.5
v -3 5 -1.5
v -3 6 4.5
v -3 6 1.5
v -3 6 -0.5
v -3 6 -1.5
v -3 6 -2.5
v -3 7 1.5
v -3 7 0.5
v -3 7 -2.5
v -3 8 1.5
v -3 8 0.5
v -3 8 -0.5
v -3 8 -1.5
v -3 8 -2.5
v -3 9 2.5
v -3 9 1.5
v -3 9 0.5
v -3 9 -0.5
v -3 9 -1.5
v -3 10 1.5
v -3 10 0.5
v -3 10 -1.5
v -3 10 -2.5
v -3 11 2.5
v -3 11 1.5
v -3 11 0.5
v -3 11 -0.5
v -3 11 -1.5
v -3 12 1.5
v -3 12 0.5
v -3 12 -0.5
v -3 12 -1.5
v -3 12 -2.5
v -3 13 0.5
v -3 13 -1.5
v -2 0 0.5
v -2 0 -0.5
v -2 1 0.5
v -2 1 -0.5
v -2 2 1.5
v -2 2 0.5
v -2 2 -0.5
v -2 2 -1.5
v -2 5 1.5
v -2 5 -0.5
v -2 5 -1.5
v -2 7 1.5
v -2 7 0.5
v -2 7 -2.5
v -2 7 -3.5
v -2 8 1.5
v -2 8 0.5
v -2 10 3.5
v -2 10 2.5
v -2 11 3.5
v -2 11 2.5
v -2 11 1.5
v -2 12 2.5
v -2 12 1.5
v -2 12 0.5
v -2 12 -1.5
v -2 12 -2.5
v -2 12 -3.5
v -2 13 1.5
v -2 13 0.5
v -2 13 -1.5
v -2 13 -2.5
v -2 14 0.5
v -2 14 -1.5
v -1 8 -3.5
v -1 8 -4.5
v -1 11 -3.5
v -1 11 -4.5
v 0 9 2.5
v 0 9 1.5
v 0 10 2.5
v 0 10 1.5
v 1 0 0.5
v 1 0 -0.5
v 1 1 0.5
v 1 1 -0.5
v 1 2 0.5
v 1 2 -0.5
v 2 5 4.5
v 2 5 1.5
v 2 6 4.5
v 2 6 1.5
v 2 9 2.5
v 2 9 1.5
v 2 10 2.5
v 2 10 1.5
v 3 8 -2.5
v 3 8 -3.5
v 3 9 -2.5
v 3 9 -3.5
v 3 11 2.5
v 3 11 1.5
v 3 12 2.5
v 3 12 1.5
v -3 8 -2.5
v -3 8 -3.5
v -3 9 -2.5
v -3 9 -3.5
v -2 5 4.5
v -2 5 1.5
v -2 6 4.5
v -2 6 1.5
v -2 9 2.5
v -2 9 1.5
v -2 10 2.5
v -2 10 1.5
v -1 0 0.5
v -1 0 -0.5
v -1 1 0.5
v -1 1 -0.5
v -1 2 0.5
v -1 2 -0.5
v 1 8 -3.5
v 1 8 -4.5
v 1 9 2.5
v 1 9 1.5
v 1 10 2.5
v 1 10 1.5
v 1 11 -3.5
v 1 11 -4.5
v 2 0 0.5
v 2 0 -0.5
v 2 1 0.5
v 2 1 -0.5
v 2 2 1.5
v 2 2 0.5
v 2 2 -0.5
v 2 2 -1.5
v 2 5 1.5
v 2 5 -0.5
v 2 5 -1.5
v 2 7 1.5
v 2 7 0.5
v 2 7 -2.5
v 2 7 -3.5
v 2 8 1.5
v 2 8 0.5
v 2 10 3.5
v 2 10 2.5
v 2 11 3.5
v 2 11 2.5
v 2 11 1.5
v 2 12 2.5
v 2 12 1.5
v 2 12 0.5
v 2 12 -1.5
v 2 12 -2.5
v 2 12 -3.5
v 2 13 1.5
v 2 13 0.5
v 2 13 -1.5
v 2 13 -2.5
v 2 14 0.5
v 2 14 -1.5
v 3 5 4.5
v 3 5 -0.5
v 3 5 -1.5
v 3 6 4.5
v 3 6 1.5
v 3 6 -0.5
v 3 6 -1.5
v 3 6 -2.5
v 3 7 1.5
v 3 7 0.5
v 3 7 -2.5
v 3 8 1.5
v 3 8 0.5
v 3 8 -0.5
v 3 8 -1.5
v 3 8 -2.5
v 3 9 2.5
v 3 9 1.5
v 3 9 0.5
v 3 9 -0.5
v 3 9 -1.5
v 3 10 1.5
v 3 10 0.5
v 3 10 -1.5
v 3 10 -2.5
v 3 11 2.5
v 3 11 1.5
v 3 11 0.5
v 3 12 1.5
v 3 12 0.5
v 3 12 -1.5
v 3 12 -2.5
v 3 13 0.5
v 3 13 -1.5
v 4 8 0.5
v 4 8 -0.5
v 4 8 -1.5
v 4 8 -3.5
v 4 9 0.5
v 4 9 -0.5
v 4 9 -1.5
v 4 9 -2.5
v 4 9 -3.5
v 4 10 1.5
v 4 10 0.5
v 4 10 -0.5
v 4 10 -1.5
v 4 10 -2.5
v 4 11 2.5
v 4 11 1.5
v 4 11 0.5
v 4 11 -0.5
v 4 12 2.5
v 4 12 1.5
v 4 12 0.5
v 4 12 -1.5
v 5 10 0.5
v 5 10 -0.5
v 5 11 0.5
v 5 11 -0.5
v -3 5 4.5
v -3 6 4.5
v -2 5 4.5
v -2 6 4.5
v 2 5 4.5
v 2 6 4.5
v 3 5 4.5
v 3 6 4.5
v -2 10 3.5
v -2 11 3.5
v 2 10 3.5
v 2 11 3.5
v -3 9 2.5
v -3 11 2.5
v -2 9 2.5
v -2 10 2.5
v -2 11 2.5
v -2 12 2.5
v 0 9 2.5
v 0 10 2.5
v 1 9 2.5
v 1 10 2.5
v 2 9 2.5
v 2 10 2.5
v 2 11 2.5
v 2 12 2.5
v 3 9 2.5
v 3 11 2.5
v 3 12 2.5
v 4 11 2.5
v 4 12 2.5
v -4 10 1.5
v -4 11 1.5
v -3 6 1.5
v -3 7 1.5
v -3 8 1.5
v -3 9 1.5
v -3 10 1.5
v -3 11 1.5
v -3 12 1.5
v -2 2 1.5
v -2 5 1.5
v -2 6 1.5
v -2 7 1.5
v -2 8 1.5
v -2 9 1.5
v -2 10 1.5
v -2 11 1.5
v -2 12 1.5
v -2 13 1.5
v -1 8 1.5
v -1 9 1.5
v 0 9 1.5
v 0 10 1.5
v 1 8 1.5
v 1 9 1.5
v 1 10 1.5
v 2 2 1.5
v 2 5 1.5
v 2 6 1.5
v 2 7 1.5
v 2 8 1.5
v 2 9 1.5
v 2 10 1.5
v 2 11 1.5
v 2 12 1.5
v 2 13 1.5
v 3 6 1.5
v 3 7 1.5
v 3 8 1.5
v 3 9 1.5
v 3 10 1.5
v 3 11 1.5
v 3 12 1.5
v 4 10 1.5
v 4 11 1.5
v -5 10 0.5
v -5 11 0.5
v -4 8 0.5
v -4 9 0.5
v -4 10 0.5
v -4 11 0.5
v -4 12 0.5
v -3 7 0.5
v -3 8 0.5
v -3 9 0.5
v -3 10 0.5
v -3 11 0.5
v -3 12 0.5
v -3 13 0.5
v -2 0 0.5
v -2 1 0.5
v -2 2 0.5
v -2 7 0.5
v -2 8 0.5
v -2 12 0.5
v -2 13 0.5
v -2 14 0.5
v -1 0 0.5
v -1 1 0.5
v -1 2 0.5
v 1 0 0.5
v 1 1 0.5
v 1 2 0.5
v 2 0 0.5
v 2 1 0.5
v 2 2 0.5
v 2 7 0.5
v 2 8 0.5
v 2 12 0.5
v 2 13 0.5
v 2 14 0.5
v 3 7 0.5
v 3 8 0.5
v 3 9 0.5
v 3 10 0.5
v 3 11 0.5
v 3 12 0.5
v 3 13 0.5
v 4 8 0.5
v 4 9 0.5
v 4 10 0.5
v 4 11 0.5
v 4 12 0.5
v 5 10 0.5
v 5 11 0.5
v -4 8 -1.5
v -4 9 -1.5
v -3 8 -1.5
v -3 9 -1.5
v 3 8 -1.5
v 3 9 -1.5
v 4 8 -1.5
v 4 9 -1.5
v 3 11 1.5
v 3 12 1.5
v 4 11 1.5
v 4 12 1.5
v -5 10 -0.5
v -5 11 -0.5
v -4 8 -0.5
v -4 9 -0.5
v -4 10 -0.5
v -4 11 -0.5
v -4 12 -0.5
v -3 8 -0.5
v -3 9 -0.5
v -3 11 -0.5
v -3 12 -0.5
v -2 0 -0.5
v -2 1 -0.5
v -2 2 -0.5
v -1 0 -0.5
v -1 1 -0.5
v -1 2 -0.5
v 1 0 -0.5
v 1 1 -0.5
v 1 2 -0.5
v 2 0 -0.5
v 2 1 -0.5
v 2 2 -0.5
v 3 8 -0.5
v 3 9 -0.5
v 4 8 -0.5
v 4 9 -0.5
v 4 10 -0.5
v 4 11 -0.5
v 5 10 -0.5
v 5 11 -0.5
v -4 10 -1.5
v -4 11 -1.5
v -3 5 -1.5
v -3 6 -1.5
v -3 10 -1.5
v -3 11 -1.5
v -3 12 -1.5
v -3 13 -1.5
v -2 2 -1.5
v -2 5 -1.5
v -2 6 -1.5
v -2 12 -1.5
v -2 13 -1.5
v -2 14 -1.5
v 2 2 -1.5
v 2 5 -1.5
v 2 6 -1.5
v 2 12 -1.5
v 2 13 -1.5
v 2 14 -1.5
v 3 5 -1.5
v 3 6 -1.5
v 3 10 -1.5
v 3 12 -1.5
v 3 13 -1.5
v 4 10 -1.5
v 4 12 -1.5
v -4 9 -2.5
v -4 10 -2.5
v -3 6 -2.5
v -3 7 -2.5
v -3 8 -2.5
v -3 9 -2.5
v -3 10 -2.5
v -3 12 -2.5
v -2 7 -2.5
v -2 12 -2.5
v -2 13 -2.5
v 2 7 -2.5
v 2 12 -2.5
v 2 13 -2.5
v 3 6 -2.5
v 3 7 -2.5
v 3 8 -2.5
v 3 9 -2.5
v 3 10 -2.5
v 3 12 -2.5
v 4 9 -2.5
v 4 10 -2.5
v -4 8 -3.5
v -4 9 -3.5
v -3 8 -3.5
v -3 9 -3.5
v -2 7 -3.5
v -2 12 -3.5
v -1 8 -3.5
v -1 11 -3.5
v 1 8 -3.5
v 1 11 -3.5
v 2 7 -3.5
v 2 12 -3.5
v 3 8 -3.5
v 3 9 -3.5
v 4 8 -3.5
v 4 9 -3.5
v -1 8 -4.5
v -1 11 -4.5
v 1 8 -4.5
v 1 11 -4.5
v -2 0 0.5
v -1 0 0.5
v 1 0 0.5
v 2 0 0.5
v -2 0 -0.5
v -1 0 -0.5
v 1 0 -0.5
v 2 0 -0.5
v -2 2 1.5
v 2 2 1.5
v -2 2 0.5
v -1 2 0.5
v 1 2 0.5
v 2 2 0.5
v -2 2 -0.5
v -1 2 -0.5
v 1 2 -0.5
v 2 2 -0.5
v -2 2 -1.5
v 2 2 -1.5
v -3 5 4.5
v -2 5 4.5
v 2 5 4.5
v 3 5 4.5
v -2 5 1.5
v 2 5 1.5
v -3 5 -0.5
v -2 5 -0.5
v 2 5 -0.5
v 3 5 -0.5
v -3 5 -1.5
v -2 5 -1.5
v 2 5 -1.5
v 3 5 -1.5
v -3 6 -1.5
v -2 6 -1.5
v 2 6 -1.5
v 3 6 -1.5
v -3 6 -2.5
v 3 6 -2.5
v -2 7 -2.5
v 2 7 -2.5
v -2 7 -3.5
v 2 7 -3.5
v -3 8 1.5
v -2 8 1.5
v 2 8 1.5
v 3 8 1.5
v -4 8 0.5
v -3 8 0.5
v -2 8 0.5
v 2 8 0.5
v 3 8 0.5
v 4 8 0.5
v -4 8 -0.5
v -3 8 -0.5
v 3 8 -0.5
v 4 8 -0.5
v -4 8 -1.5
v -3 8 -1.5
v 3 8 -1.5
v 4 8 -1.5
v -3 8 -2.5
v 3 8 -2.5
v -4 8 -3.5
v -3 8 -3.5
v -1 8 -3.5
v 1 8 -3.5
v 3 8 -3.5
v 4 8 -3.5
v -1 8 -4.5
v 1 8 -4.5
v -3 9 2.5
v -2 9 2.5
v 0 9 2.5
v 1 9 2.5
v 2 9 2.5
v 3 9 2.5
v -3 9 1.5
v -2 9 1.5
v 0 9 1.5
v 1 9 1.5
v 2 9 1.5
v 3 9 1.5
v -4 9 -0.5
v -3 9 -0.5
v 3 9 -0.5
v 4 9 -0.5
v -4 9 -1.5
v -3 9 -1.5
v 3 9 -1.5
v 4 9 -1.5
v -2 10 3.5
v 2 10 3.5
v -2 10 2.5
v 0 10 2.5
v 1 10 2.5
v 2 10 2.5
v -4 10 1.5
v -3 10 1.5
v -2 10 1.5
v 0 10 1.5
v 1 10 1.5
v 2 10 1.5
v 3 10 1.5
v 4 10 1.5
v -5 10 0.5
v -4 10 0.5
v -3 10 0.5
v 3 10 0.5
v 4 10 0.5
v 5 10 0.5
v -5 10 -0.5
v -4 10 -0.5
v 4 10 -0.5
v 5 10 -0.5
v 3 11 2.5
v 4 11 2.5
v 3 11 1.5
v 4 11 1.5
v -3 6 4.5
v -2 6 4.5
v 2 6 4.5
v 3 6 4.5
v -3 6 1.5
v -2 6 1.5
v 2 6 1.5
v 3 6 1.5
v -3 7 1.5
v -2 7 1.5
v 2 7 1.5
v 3 7 1.5
v -3 7 0.5
v -2 7 0.5
v 2 7 0.5
v 3 7 0.5
v -4 9 -2.5
v -3 9 -2.5
v 3 9 -2.5
v 4 9 -2.5
v -4 9 -3.5
v -3 9 -3.5
v 3 9 -3.5
v 4 9 -3.5
v -4 10 -1.5
v -3 10 -1.5
v 3 10 -1.5
v 4 10 -1.5
v -4 10 -2.5
v -3 10 -2.5
v 3 10 -2.5
v 4 10 -2.5
v -2 11 3.5
v 2 11 3.5
v -3 11 2.5
v -2 11 2.5
v 2 11 2.5
v 3 11 2.5
v -4 11 1.5
v -3 11 1.5
v -2 11 1.5
v 2 11 1.5
v 3 11 1.5
v 4 11 1.5
v -5 11 0.5
v -4 11 0.5
v -3 11 0.5
v 3 11 0.5
v 4 11 0.5
v 5 11 0.5
v -5 11 -0.5
v -4 11 -0.5
v -3 11 -0.5
v 4 11 -0.5
v 5 11 -0.5
v -4 11 -1.5
v -3 11 -1.5
v -1 11 -3.5
v 1 11 -3.5
v -1 11 -4.5
v 1 11 -4.5
v -2 12 2.5
v 2 12 2.5
v 3 12 2.5
v 4 12 2.5
v -3 12 1.5
v -2 12 1.5
v 2 12 1.5
v 3 12 1.5
v 4 12 1.5
v -4 12 0.5
v -3 12 0.5
v -2 12 0.5
v 2 12 0.5
v 3 12 0.5
v 4 12 0.5
v -4 12 -0.5
v -3 12 -0.5
v -3 12 -1.5
v -2 12 -1.5
v 2 12 -1.5
v 3 12 -1.5
v 4 12 -1.5
v -3 12 -2.5
v -2 12 -2.5
v 2 12 -2.5
v 3 12 -2.5
v -2 12 -3.5
v 2 12 -3.5
v -2 13 1.5
v 2 13 1.5
v -3 13 0.5
v -2 13 0.5
v 2 13 0.5
v 3 13 0.5
v -3 13 -1.5
v -2 13 -1.5
v 2 13 -1.5
v 3 13 -1.5
v -2 13 -2.5
v 2 13 -2.5
v -2 14 0.5
v 2 14 0.5
v -2 14 -1.5
v 2 14 -1.5

# faces
f 3/6/1 2/6/1 1/6/1
f 4/6/1 2/6/1 3/6/1
f 9/3/1 6/3/1 5/3/1
f 10/3/1 6/3/1 9/3/1
f 11/6/1 8/6/1 7/6/1
f 12/6/1 8/6/1 11/6/1
f 13/6/1 8/6/1 12/6/1
f 15/6/1 10/6/1 9/6/1
f 15/6/1 11/6/1 10/6/1
f 15/6/1 12/6/1 11/6/1
f 16/6/1 12/6/1 15/6/1
f 17/6/1 12/6/1 16/6/1
f 18/6/1 12/6/1 17/6/1
f 19/6/1 15/6/1 14/6/1
f 20/6/1 15/6/1 19/6/1
f 21/6/1 17/6/1 16/6/1
f 22/6/1 17/6/1 21/6/1
f 23/6/1 21/6/1 20/6/1
f 24/6/1 21/6/1 23/6/1
f 28/2/1 26/2/1 25/2/1
f 29/2/1 26/2/1 28/2/1
f 30/1/1 27/1/1 26/1/1
f 30/2/1 26/2/1 29/2/1
f 31/1/1 27/1/1 30/1/1
f 33/1/1 32/1/1 31/1/1
f 33/1/1 31/1/1 30/1/1
f 33/1/1 30/1/1 29/1/1
f 34/1/1 32/1/1 33/1/1
f 35/1/1 32/1/1 34/1/1
f 37/6/1 35/6/1 34/6/1
f 38/6/1 35/6/1 37/6/1
f 39/6/1 35/6/1 38/6/1
f 40/6/1 35/6/1 39/6/1
f 42/6/1 37/6/1 36/6/1
f 43/6/1 37/6/1 42/6/1
f 44/6/1 39/6/1 38/6/1
f 45/6/1 39/6/1 44/6/1
f 46/6/1 43/6/1 42/6/1
f 46/6/1 42/6/1 41/6/1
f 47/6/1 43/6/1 46/6/1
f 50/6/1 46/6/1 41/6/1
f 51/6/1 46/6/1 50/6/1
f 54/6/1 49/6/1 48/6/1
f 55/6/1 52/6/1 51/6/1
f 56/6/1 52/6/1 55/6/1
f 57/6/1 54/6/1 53/6/1
f 58/6/1 49/6/1 54/6/1
f 58/6/1 54/6/1 57/6/1
f 59/6/1 49/6/1 58/6/1
f 60/6/1 57/6/1 56/6/1
f 60/6/1 58/6/1 57/6/1
f 61/6/1 58/6/1 60/6/1
f 64/5/1 63/5/1 62/5/1
f 65/5/1 63/5/1 64/5/1
f 67/8/1 65/8/1 64/8/1
f 68/8/1 65/8/1 67/8/1
f 70/7/1 68/7/1 67/7/1
f 70/7/1 69/7/1 68/7/1
f 70/7/1 67/7/1 66/7/1
f 71/7/1 69/7/1 70/7/1
f 72/7/1 69/7/1 71/7/1
f 77/2/1 74/2/1 73/2/1
f 78/2/1 74/2/1 77/2/1
f 81/6/1 80/6/1 79/6/1
f 82/6/1 80/6/1 81/6/1
f 84/6/1 83/6/1 82/6/1
f 85/6/1 83/6/1 84/6/1
f 88/6/1 76/6/1 75/6/1
f 89/6/1 76/6/1 88/6/1
f 90/6/1 86/6/1 85/6/1
f 91/6/1 86/6/1 90/6/1
f 92/6/1 88/6/1 87/6/1
f 93/6/1 88/6/1 92/6/1
f 94/6/1 92/6/1 91/6/1
f 95/6/1 92/6/1 94/6/1
f 98/6/1 97/6/1 96/6/1
f 99/6/1 97/6/1 98/6/1
f 102/6/1 101/6/1 100/6/1
f 103/6/1 101/6/1 102/6/1
f 106/5/1 105/5/1 104/5/1
f 107/5/1 105/5/1 106/5/1
f 108/8/1 107/8/1 106/8/1
f 109/8/1 107/8/1 108/8/1
f 112/2/1 111/2/1 110/2/1
f 113/2/1 111/2/1 112/2/1
f 116/6/1 115/6/1 114/6/1
f 117/6/1 115/6/1 116/6/1
f 120/6/1 119/6/1 118/6/1
f 121/6/1 119/6/1 120/6/1
f 124/6/1 123/6/1 122/6/1
f 125/6/1 123/6/1 124/6/1
f 126/6/2 127/6/2 128/6/2
f 128/6/2 127/6/2 129/6/2
f 130/2/2 131/2/2 132/2/2
f 132/2/2 131/2/2 133/2/2
f 134/6/2 135/6/2 136/6/2
f 136/6/2 135/6/2 137/6/2
f 138/5/2 139/5/2 140/5/2
f 140/5/2 139/5/2 141/5/2
f 140/8/2 141/8/2 142/8/2
f 142/8/2 141/8/2 143/8/2
f 146/6/2 147/6/2 148/6/2
f 148/6/2 147/6/2 149/6/2
f 144/6/2 145/6/2 150/6/2
f 150/6/2 145/6/2 151/6/2
f 152/5/2 153/5/2 154/5/2
f 154/5/2 153/5/2 155/5/2
f 154/8/2 155/8/2 157/8/2
f 157/8/2 155/8/2 158/8/2
f 157/7/2 158/7/2 160/7/2
f 158/7/2 159/7/2 160/7/2
f 156/7/2 157/7/2 160/7/2
f 160/7/2 159/7/2 161/7/2
f 161/7/2 159/7/2 162/7/2
f 163/2/2 164/2/2 167/2/2
f 167/2/2 164/2/2 168/2/2
f 169/6/2 170/6/2 171/6/2
f 171/6/2 170/6/2 172/6/2
f 172/6/2 173/6/2 174/6/2
f 174/6/2 173/6/2 175/6/2
f 165/6/2 166/6/2 178/6/2
f 178/6/2 166/6/2 179/6/2
f 175/6/2 176/6/2 180/6/2
f 180/6/2 176/6/2 181/6/2
f 177/6/2 178/6/2 182/6/2
f 182/6/2 178/6/2 183/6/2
f 181/6/2 182/6/2 184/6/2
f 184/6/2 182/6/2 185/6/2
f 186/2/2 187/2/2 189/2/2
f 189/2/2 187/2/2 190/2/2
f 187/1/2 188/1/2 191/1/2
f 190/2/2 187/2/2 191/2/2
f 191/1/2 188/1/2 192/1/2
f 192/1/2 193/1/2 194/1/2
f 191/1/2 192/1/2 194/1/2
f 190/1/2 191/1/2 194/1/2
f 194/1/2 193/1/2 195/1/2
f 195/1/2 193/1/2 196/1/2
f 195/6/2 196/6/2 198/6/2
f 198/6/2 196/6/2 199/6/2
f 199/6/2 196/6/2 200/6/2
f 200/6/2 196/6/2 201/6/2
f 197/6/2 198/6/2 203/6/2
f 203/6/2 198/6/2 204/6/2
f 199/6/2 200/6/2 205/6/2
f 205/6/2 200/6/2 206/6/2
f 203/6/2 204/6/2 207/6/2
f 202/6/2 203/6/2 207/6/2
f 207/6/2 204/6/2 208/6/2
f 202/6/2 207/6/2 211/6/2
f 211/6/2 207/6/2 212/6/2
f 212/6/2 213/6/2 214/6/2
f 214/6/2 213/6/2 215/6/2
f 209/6/2 210/6/2 216/6/2
f 216/6/2 210/6/2 217/6/2
f 215/6/2 216/6/2 218/6/2
f 218/6/2 216/6/2 219/6/2
f 220/3/2 221/3/2 224/3/2
f 224/3/2 221/3/2 225/3/2
f 222/6/2 223/6/2 226/6/2
f 226/6/2 223/6/2 227/6/2
f 227/6/2 223/6/2 228/6/2
f 224/6/2 225/6/2 230/6/2
f 225/6/2 226/6/2 230/6/2
f 226/6/2 227/6/2 230/6/2
f 230/6/2 227/6/2 231/6/2
f 231/6/2 227/6/2 232/6/2
f 232/6/2 227/6/2 233/6/2
f 229/6/2 230/6/2 235/6/2
f 235/6/2 230/6/2 236/6/2
f 231/6/2 232/6/2 237/6/2
f 234/6/2 235/6/2 238/6/2
f 238/6/2 235/6/2 239/6/2
f 236/6/2 237/6/2 240/6/2
f 237/6/2 232/6/2 241/6/2
f 240/6/2 237/6/2 241/6/2
f 242/6/2 243/6/2 244/6/2
f 244/6/2 243/6/2 245/6/2
f 248/2/3 247/2/3 246/2/3
f 249/2/3 247/2/3 248/2/3
f 252/2/3 251/2/3 250/2/3
f 253/2/3 251/2/3 252/2/3
f 256/6/3 255/6/3 254/6/3
f 257/6/3 255/6/3 256/6/3
f 260/6/3 259/6/3 258/6/3
f 261/6/3 259/6/3 260/6/3
f 262/6/3 259/6/3 261/6/3
f 266/6/3 265/6/3 264/6/3
f 267/6/3 265/6/3 266/6/3
f 270/6/3 263/6/3 262/6/3
f 271/6/3 263/6/3 270/6/3
f 272/6/3 269/6/3 268/6/3
f 272/6/3 270/6/3 269/6/3
f 273/6/3 270/6/3 272/6/3
f 275/6/3 274/6/3 273/6/3
f 276/6/3 274/6/3 275/6/3
f 283/6/3 278/6/3 277/6/3
f 284/6/3 278/6/3 283/6/3
f 288/1/3 280/1/3 279/1/3
f 289/1/3 280/1/3 288/1/3
f 290/6/3 282/6/3 281/6/3
f 291/6/3 282/6/3 290/6/3
f 293/6/3 285/6/3 284/6/3
f 294/6/3 285/6/3 293/6/3
f 296/2/3 290/2/3 289/2/3
f 296/9/3 291/9/3 290/9/3
f 297/6/3 292/6/3 291/6/3
f 297/9/3 291/9/3 296/9/3
f 298/2/3 297/2/3 296/2/3
f 298/6/3 292/6/3 297/6/3
f 299/6/3 292/6/3 298/6/3
f 300/2/3 296/2/3 289/2/3
f 300/2/3 298/2/3 296/2/3
f 301/2/3 298/2/3 300/2/3
f 303/7/3 289/7/3 288/7/3
f 303/7/3 287/7/3 286/7/3
f 303/7/3 288/7/3 287/7/3
f 304/7/3 289/7/3 303/7/3
f 305/7/3 289/7/3 304/7/3
f 306/2/3 300/2/3 289/2/3
f 306/7/3 289/7/3 305/7/3
f 307/9/3 301/9/3 300/9/3
f 307/2/3 300/2/3 306/2/3
f 308/6/3 302/6/3 301/6/3
f 308/9/3 301/9/3 307/9/3
f 309/6/3 302/6/3 308/6/3
f 311/6/3 295/6/3 294/6/3
f 312/6/3 295/6/3 311/6/3
f 313/1/3 306/1/3 305/1/3
f 314/1/3 306/1/3 313/1/3
f 315/6/3 308/6/3 307/6/3
f 316/6/3 308/6/3 315/6/3
f 318/6/3 311/6/3 310/6/3
f 319/6/3 311/6/3 318/6/3
f 320/6/3 318/6/3 317/6/3
f 321/6/3 318/6/3 320/6/3
f 326/6/3 323/6/3 322/6/3
f 327/6/3 323/6/3 326/6/3
f 330/3/3 325/3/3 324/3/3
f 331/6/3 326/6/3 325/6/3
f 331/3/3 325/3/3 330/3/3
f 332/6/3 326/6/3 331/6/3
f 333/6/3 328/6/3 327/6/3
f 334/6/3 328/6/3 333/6/3
f 339/6/3 330/6/3 329/6/3
f 340/6/3 330/6/3 339/6/3
f 341/6/3 335/6/3 334/6/3
f 342/6/3 335/6/3 341/6/3
f 344/5/3 337/5/3 336/5/3
f 345/8/3 338/8/3 337/8/3
f 345/5/3 337/5/3 344/5/3
f 346/8/3 338/8/3 345/8/3
f 350/5/3 348/5/3 347/5/3
f 351/8/3 349/8/3 348/8/3
f 351/5/3 348/5/3 350/5/3
f 352/8/3 349/8/3 351/8/3
f 356/6/3 343/6/3 342/6/3
f 357/6/3 343/6/3 356/6/3
f 358/6/3 354/6/3 353/6/3
f 359/6/3 354/6/3 358/6/3
f 363/6/3 356/6/3 355/6/3
f 364/6/3 356/6/3 363/6/3
f 365/3/3 360/3/3 359/3/3
f 366/6/3 361/6/3 360/6/3
f 366/3/3 360/3/3 365/3/3
f 367/6/3 361/6/3 366/6/3
f 368/6/3 363/6/3 362/6/3
f 369/6/3 363/6/3 368/6/3
f 370/6/3 368/6/3 367/6/3
f 371/6/3 368/6/3 370/6/3
f 374/6/3 373/6/3 372/6/3
f 375/6/3 373/6/3 374/6/3
f 378/6/3 377/6/3 376/6/3
f 379/6/3 377/6/3 378/6/3
f 380/6/4 381/6/4 382/6/4
f 382/6/4 381/6/4 383/6/4
f 384/6/4 385/6/4 388/6/4
f 388/6/4 385/6/4 389/6/4
f 386/3/4 387/3/4 391/3/4
f 391/3/4 387/3/4 392/3/4
f 389/6/4 390/6/4 393/6/4
f 393/6/4 390/6/4 394/6/4
f 395/5/4 396/5/4 398/5/4
f 396/8/4 397/8/4 399/8/4
f 398/5/4 396/5/4 399/5/4
f 399/8/4 397/8/4 400/8/4
f 401/5/4 402/5/4 404/5/4
f 402/8/4 403/8/4 405/8/4
f 404/5/4 402/5/4 405/5/4
f 405/8/4 403/8/4 406/8/4
f 407/3/4 408/3/4 409/3/4
f 409/3/4 408/3/4 410/3/4
f 411/6/4 412/6/4 413/6/4
f 413/6/4 412/6/4 414/6/4
f 415/6/4 416/6/4 419/6/4
f 419/6/4 416/6/4 420/6/4
f 417/1/4 418/1/4 424/1/4
f 424/1/4 418/1/4 425/1/4
f 421/6/4 422/6/4 426/6/4
f 426/6/4 422/6/4 427/6/4
f 424/7/4 425/7/4 429/7/4
f 423/7/4 424/7/4 429/7/4
f 429/7/4 425/7/4 430/7/4
f 430/7/4 425/7/4 431/7/4
f 427/6/4 428/6/4 433/6/4
f 433/6/4 428/6/4 434/6/4
f 430/1/4 431/1/4 435/1/4
f 435/1/4 431/1/4 436/1/4
f 432/6/4 433/6/4 438/6/4
f 438/6/4 433/6/4 439/6/4
f 437/6/4 438/6/4 440/6/4
f 440/6/4 438/6/4 441/6/4
f 442/6/4 443/6/4 447/6/4
f 447/6/4 443/6/4 448/6/4
f 445/6/4 446/6/4 450/6/4
f 448/6/4 449/6/4 450/6/4
f 447/6/4 448/6/4 450/6/4
f 446/6/4 447/6/4 450/6/4
f 444/1/4 445/1/4 450/1/4
f 450/6/4 449/6/4 451/6/4
f 444/1/4 450/1/4 453/1/4
f 451/6/4 452/6/4 454/6/4
f 454/6/4 452/6/4 455/6/4
f 444/1/4 453/1/4 456/1/4
f 453/6/4 454/6/4 457/6/4
f 456/1/4 453/1/4 457/1/4
f 457/6/4 454/6/4 458/6/4
f 458/6/4 454/6/4 459/6/4
f 459/6/4 454/6/4 460/6/4
f 460/6/4 454/6/4 461/6/4
f 459/6/4 460/6/4 462/6/4
f 462/6/4 460/6/4 463/6/4
f 464/6/4 465/6/4 466/6/4
f 466/6/4 465/6/4 467/6/4
f 468/6/4 469/6/4 470/6/4
f 470/6/4 469/6/4 471/6/4
f 468/6/4 470/6/4 472/6/4
f 471/6/4 469/6/4 473/6/4
f 468/6/4 472/6/4 474/6/4
f 472/6/4 473/6/4 474/6/4
f 473/6/4 469/6/4 475/6/4
f 474/6/4 473/6/4 475/6/4
f 476/6/4 477/6/4 478/6/4
f 478/6/4 477/6/4 479/6/4
f 480/6/4 481/6/4 482/6/4
f 482/6/4 481/6/4 483/6/4
f 488/5/5 485/5/5 484/5/5
f 489/5/5 485/5/5 488/5/5
f 490/5/5 487/5/5 486/5/5
f 491/5/5 487/5/5 490/5/5
f 494/7/5 493/7/5 492/7/5
f 495/7/5 493/7/5 494/7/5
f 496/7/5 493/7/5 495/7/5
f 497/7/5 493/7/5 496/7/5
f 499/7/5 496/7/5 495/7/5
f 500/7/5 496/7/5 499/7/5
f 502/7/5 499/7/5 498/7/5
f 502/7/5 501/7/5 500/7/5
f 502/7/5 500/7/5 499/7/5
f 503/7/5 501/7/5 502/7/5
f 508/2/5 505/2/5 504/2/5
f 509/2/5 507/2/5 506/2/5
f 510/2/5 508/2/5 504/2/5
f 511/2/5 508/2/5 510/2/5
f 512/2/5 507/2/5 509/2/5
f 513/2/5 507/2/5 512/2/5
f 514/1/5 511/1/5 510/1/5
f 515/1/5 511/1/5 514/1/5
f 516/1/5 513/1/5 512/1/5
f 517/1/5 513/1/5 516/1/5
f 522/1/5 519/1/5 518/1/5
f 522/1/5 521/1/5 520/1/5
f 522/1/5 520/1/5 519/1/5
f 523/1/5 521/1/5 522/1/5
f 526/6/5 525/6/5 524/6/5
f 527/6/5 525/6/5 526/6/5
f 533/6/5 529/6/5 528/6/5
f 534/6/5 529/6/5 533/6/5
f 535/6/5 531/6/5 530/6/5
f 536/6/5 531/6/5 535/6/5
f 538/3/5 533/3/5 532/3/5
f 539/3/5 533/3/5 538/3/5
f 540/3/5 537/3/5 536/3/5
f 541/3/5 537/3/5 540/3/5
f 546/6/5 543/6/5 542/6/5
f 547/6/5 545/6/5 544/6/5
f 548/6/5 546/6/5 542/6/5
f 549/6/5 546/6/5 548/6/5
f 552/6/5 545/6/5 547/6/5
f 553/6/5 545/6/5 552/6/5
f 554/6/5 551/6/5 550/6/5
f 555/6/5 551/6/5 554/6/5
f 562/6/5 557/6/5 556/6/5
f 563/6/5 557/6/5 562/6/5
f 564/6/5 559/6/5 558/6/5
f 565/6/5 559/6/5 564/6/5
f 566/6/5 561/6/5 560/6/5
f 567/6/5 561/6/5 566/6/5
f 572/6/5 569/6/5 568/6/5
f 573/6/5 569/6/5 572/6/5
f 574/6/5 571/6/5 570/6/5
f 575/6/5 571/6/5 574/6/5
f 578/6/5 577/6/5 576/6/5
f 579/6/5 577/6/5 578/6/5
f 580/6/5 577/6/5 579/6/5
f 581/6/5 577/6/5 580/6/5
f 584/6/5 579/6/5 578/6/5
f 585/6/5 579/6/5 584/6/5
f 586/6/5 581/6/5 580/6/5
f 587/6/5 581/6/5 586/6/5
f 591/6/5 583/6/5 582/6/5
f 592/6/5 583/6/5 591/6/5
f 593/6/5 589/6/5 588/6/5
f 594/6/5 589/6/5 593/6/5
f 596/6/5 591/6/5 590/6/5
f 597/6/5 591/6/5 596/6/5
f 598/6/5 595/6/5 594/6/5
f 599/6/5 595/6/5 598/6/5
f 602/6/5 601/6/5 600/6/5
f 603/6/5 601/6/5 602/6/5
f 604/2/6 605/2/6 608/2/6
f 608/2/6 605/2/6 609/2/6
f 606/2/6 607/2/6 610/2/6
f 610/2/6 607/2/6 611/2/6
f 612/1/6 613/1/6 616/1/6
f 616/1/6 613/1/6 617/1/6
f 614/1/6 615/1/6 618/1/6
f 618/1/6 615/1/6 619/1/6
f 620/6/6 621/6/6 624/6/6
f 624/6/6 621/6/6 625/6/6
f 622/6/6 623/6/6 626/6/6
f 626/6/6 623/6/6 627/6/6
f 628/6/6 629/6/6 632/6/6
f 632/6/6 629/6/6 633/6/6
f 630/6/6 631/6/6 634/6/6
f 634/6/6 631/6/6 635/6/6
f 636/6/6 637/6/6 639/6/6
f 639/6/6 637/6/6 640/6/6
f 638/6/6 639/6/6 643/6/6
f 643/6/6 639/6/6 644/6/6
f 640/6/6 641/6/6 645/6/6
f 645/6/6 641/6/6 646/6/6
f 642/6/6 643/6/6 649/6/6
f 649/6/6 643/6/6 650/6/6
f 646/6/6 647/6/6 651/6/6
f 651/6/6 647/6/6 652/6/6
f 648/6/6 649/6/6 654/6/6
f 654/6/6 649/6/6 655/6/6
f 652/6/6 653/6/6 657/6/6
f 657/6/6 653/6/6 658/6/6
f 655/6/6 656/6/6 659/6/6
f 659/6/6 656/6/6 660/6/6
f 661/6/6 662/6/6 663/6/6
f 663/6/6 662/6/6 664/6/6
f 665/6/6 666/6/6 670/6/6
f 670/6/6 666/6/6 671/6/6
f 667/6/6 668/6/6 672/6/6
f 672/6/6 668/6/6 673/6/6
f 669/6/6 670/6/6 675/6/6
f 675/6/6 670/6/6 676/6/6
f 671/6/6 672/6/6 677/6/6
f 677/6/6 672/6/6 678/6/6
f 674/6/6 675/6/6 680/6/6
f 680/6/6 675/6/6 681/6/6
f 678/6/6 679/6/6 685/6/6
f 685/6/6 679/6/6 686/6/6
f 682/6/6 683/6/6 687/6/6
f 687/6/6 683/6/6 688/6/6
f 684/6/6 685/6/6 689/6/6
f 689/6/6 685/6/6 690/6/6
f 688/6/6 689/6/6 691/6/6
f 691/6/6 689/6/6 692/6/6
f 693/6/6 694/6/6 696/6/6
f 696/6/6 694/6/6 697/6/6
f 695/6/6 696/6/6 699/6/6
f 699/6/6 696/6/6 700/6/6
f 697/6/6 698/6/6 701/6/6
f 701/6/6 698/6/6 702/6/6
f 700/6/6 701/6/6 703/6/6
f 703/6/6 701/6/6 704/6/6
f 705/6/6 706/6/6 707/6/6
f 707/6/6 706/6/6 708/6/6
