# MagicaVoxel @ ephtracy

# material
mtllib Slime.mtl
usemtl palette

# normals
vn -1 0 0
vn 1 0 0
vn 0 0 1
vn 0 0 -1
vn 0 -1 0
vn 0 1 0

# texcoords
vt 0.728516 0.5
vt 0.775391 0.5
vt 0.849609 0.5
vt 0.853516 0.5
vt 0.958984 0.5
vt 0.990234 0.5

# verts
v -6 0 3.5
v -6 0 -3.5
v -6 1 3.5
v -6 1 -3.5
v -6 2 3.5
v -6 2 -3.5
v -5 0 5.5
v -5 0 3.5
v -5 0 -3.5
v -5 0 -5.5
v -5 1 5.5
v -5 1 3.5
v -5 1 -3.5
v -5 1 -5.5
v -5 2 5.5
v -5 2 4.5
v -5 2 3.5
v -5 2 -3.5
v -5 2 -4.5
v -5 2 -5.5
v -5 3 4.5
v -5 3 -4.5
v -4 2 5.5
v -4 2 4.5
v -4 2 -4.5
v -4 2 -5.5
v -4 3 4.5
v -4 3 -4.5
v -4 3 -5.5
v -4 5 5.5
v -4 5 4.5
v -4 5 -3.5
v -4 5 -4.5
v -4 6 4.5
v -4 6 -3.5
v -3 0 6.5
v -3 0 5.5
v -3 0 -5.5
v -3 0 -6.5
v -3 1 6.5
v -3 1 5.5
v -3 1 -5.5
v -3 1 -6.5
v -3 2 6.5
v -3 2 5.5
v -3 2 -5.5
v -3 2 -6.5
v -3 4 6.5
v -3 4 5.5
v -3 5 6.5
v -3 5 5.5
v -3 5 4.5
v -3 5 -3.5
v -3 5 -4.5
v -3 6 5.5
v -3 6 4.5
v -3 6 -3.5
v -3 6 -4.5
v -3 7 4.5
v -3 7 -3.5
v -2 7 3.5
v -2 7 -2.5
v -2 8 3.5
v -2 8 -2.5
v 1 4 6.5
v 1 4 5.5
v 1 5 6.5
v 1 5 5.5
v -1 4 6.5
v -1 4 5.5
v -1 5 6.5
v -1 5 5.5
v 2 7 3.5
v 2 7 -2.5
v 2 8 3.5
v 2 8 -2.5
v 3 0 6.5
v 3 0 5.5
v 3 0 -5.5
v 3 0 -6.5
v 3 1 6.5
v 3 1 5.5
v 3 1 -5.5
v 3 1 -6.5
v 3 2 6.5
v 3 2 5.5
v 3 2 -5.5
v 3 2 -6.5
v 3 3 6.5
v 3 3 5.5
v 3 4 6.5
v 3 4 5.5
v 3 5 6.5
v 3 5 5.5
v 3 5 4.5
v 3 5 -3.5
v 3 5 -4.5
v 3 6 5.5
v 3 6 4.5
v 3 6 -3.5
v 3 6 -4.5
v 3 7 4.5
v 3 7 -3.5
v 4 2 5.5
v 4 2 4.5
v 4 2 -4.5
v 4 2 -5.5
v 4 3 4.5
v 4 3 -4.5
v 4 3 -5.5
v 4 5 5.5
v 4 5 4.5
v 4 5 -3.5
v 4 5 -4.5
v 4 6 4.5
v 4 6 -3.5
v 5 0 5.5
v 5 0 3.5
v 5 0 -3.5
v 5 0 -5.5
v 5 1 5.5
v 5 1 3.5
v 5 1 -3.5
v 5 1 -5.5
v 5 2 5.5
v 5 2 4.5
v 5 2 3.5
v 5 2 -3.5
v 5 2 -4.5
v 5 2 -5.5
v 5 3 4.5
v 5 3 -4.5
v 6 0 3.5
v 6 0 -3.5
v 6 1 3.5
v 6 1 -3.5
v 6 2 3.5
v 6 2 -3.5
v -3 0 6.5
v -3 1 6.5
v -3 2 6.5
v -3 4 6.5
v -3 5 6.5
v -2 3 6.5
v -2 4 6.5
v -1 0 6.5
v -1 1 6.5
v -1 2 6.5
v -1 3 6.5
v -1 4 6.5
v -1 5 6.5
v 1 0 6.5
v 1 1 6.5
v 1 2 6.5
v 1 4 6.5
v 1 5 6.5
v 2 3 6.5
v 2 4 6.5
v 3 0 6.5
v 3 1 6.5
v 3 2 6.5
v 3 3 6.5
v 3 4 6.5
v 3 5 6.5
v -5 0 5.5
v -5 1 5.5
v -5 2 5.5
v -4 2 5.5
v -4 5 5.5
v -3 0 5.5
v -3 1 5.5
v -3 2 5.5
v -3 4 5.5
v -3 5 5.5
v -3 6 5.5
v -1 4 5.5
v -1 5 5.5
v 1 4 5.5
v 1 5 5.5
v 3 0 5.5
v 3 1 5.5
v 3 2 5.5
v 3 3 5.5
v 3 4 5.5
v 3 5 5.5
v 3 6 5.5
v 4 2 5.5
v 4 5 5.5
v 5 0 5.5
v 5 1 5.5
v 5 2 5.5
v -5 2 4.5
v -5 3 4.5
v -4 2 4.5
v -4 3 4.5
v -4 5 4.5
v -4 6 4.5
v -3 5 4.5
v -3 6 4.5
v -3 7 4.5
v 3 5 4.5
v 3 6 4.5
v 3 7 4.5
v 4 2 4.5
v 4 3 4.5
v 4 5 4.5
v 4 6 4.5
v 5 2 4.5
v 5 3 4.5
v -6 0 3.5
v -6 1 3.5
v -6 2 3.5
v -5 0 3.5
v -5 1 3.5
v -5 2 3.5
v -2 7 3.5
v -2 8 3.5
v 2 7 3.5
v 2 8 3.5
v 5 0 3.5
v 5 1 3.5
v 5 2 3.5
v 6 0 3.5
v 6 1 3.5
v 6 2 3.5
v -2 7 -2.5
v -2 8 -2.5
v 2 7 -2.5
v 2 8 -2.5
v -6 0 -3.5
v -6 1 -3.5
v -6 2 -3.5
v -5 0 -3.5
v -5 1 -3.5
v -5 2 -3.5
v -4 5 -3.5
v -4 6 -3.5
v -3 5 -3.5
v -3 6 -3.5
v -3 7 -3.5
v 3 5 -3.5
v 3 6 -3.5
v 3 7 -3.5
v 4 5 -3.5
v 4 6 -3.5
v 5 0 -3.5
v 5 1 -3.5
v 5 2 -3.5
v 6 0 -3.5
v 6 1 -3.5
v 6 2 -3.5
v -5 2 -4.5
v -5 3 -4.5
v -4 2 -4.5
v -4 3 -4.5
v -4 5 -4.5
v -3 5 -4.5
v -3 6 -4.5
v 3 5 -4.5
v 3 6 -4.5
v 4 2 -4.5
v 4 3 -4.5
v 4 5 -4.5
v 5 2 -4.5
v 5 3 -4.5
v -5 0 -5.5
v -5 1 -5.5
v -5 2 -5.5
v -4 2 -5.5
v -4 3 -5.5
v -3 0 -5.5
v -3 1 -5.5
v -3 2 -5.5
v 3 0 -5.5
v 3 1 -5.5
v 3 2 -5.5
v 4 2 -5.5
v 4 3 -5.5
v 5 0 -5.5
v 5 1 -5.5
v 5 2 -5.5
v -3 0 -6.5
v -3 1 -6.5
v -3 2 -6.5
v 3 0 -6.5
v 3 1 -6.5
v 3 2 -6.5
v -3 0 6.5
v -1 0 6.5
v 1 0 6.5
v 3 0 6.5
v -5 0 5.5
v -3 0 5.5
v -1 0 5.5
v 1 0 5.5
v 3 0 5.5
v 5 0 5.5
v -6 0 3.5
v -5 0 3.5
v 5 0 3.5
v 6 0 3.5
v -6 0 -3.5
v -5 0 -3.5
v 5 0 -3.5
v 6 0 -3.5
v -5 0 -5.5
v -3 0 -5.5
v 3 0 -5.5
v 5 0 -5.5
v -3 0 -6.5
v 3 0 -6.5
v -5 2 5.5
v -4 2 5.5
v 4 2 5.5
v 5 2 5.5
v -5 2 4.5
v -4 2 4.5
v 4 2 4.5
v 5 2 4.5
v -6 2 3.5
v -5 2 3.5
v 5 2 3.5
v 6 2 3.5
v -6 2 -3.5
v -5 2 -3.5
v 5 2 -3.5
v 6 2 -3.5
v -5 2 -4.5
v -4 2 -4.5
v 4 2 -4.5
v 5 2 -4.5
v -5 2 -5.5
v -4 2 -5.5
v -3 2 -5.5
v 3 2 -5.5
v 4 2 -5.5
v 5 2 -5.5
v -3 2 -6.5
v 3 2 -6.5
v -5 3 4.5
v -4 3 4.5
v 4 3 4.5
v 5 3 4.5
v -5 3 -4.5
v -4 3 -4.5
v 4 3 -4.5
v 5 3 -4.5
v -4 3 -5.5
v 4 3 -5.5
v -1 4 6.5
v 1 4 6.5
v -1 4 5.5
v 1 4 5.5
v -3 5 6.5
v -1 5 6.5
v 1 5 6.5
v 3 5 6.5
v -4 5 5.5
v -3 5 5.5
v -1 5 5.5
v 1 5 5.5
v 3 5 5.5
v 4 5 5.5
v -4 5 4.5
v -3 5 4.5
v 3 5 4.5
v 4 5 4.5
v -4 5 -3.5
v -3 5 -3.5
v 3 5 -3.5
v 4 5 -3.5
v -4 5 -4.5
v -3 5 -4.5
v 3 5 -4.5
v 4 5 -4.5
v -3 6 5.5
v 3 6 5.5
v -4 6 4.5
v -3 6 4.5
v 3 6 4.5
v 4 6 4.5
v -4 6 -3.5
v -3 6 -3.5
v 3 6 -3.5
v 4 6 -3.5
v -3 6 -4.5
v 3 6 -4.5
v -3 7 4.5
v 3 7 4.5
v -2 7 3.5
v 2 7 3.5
v -2 7 -2.5
v 2 7 -2.5
v -3 7 -3.5
v 3 7 -3.5
v -2 8 3.5
v 2 8 3.5
v -2 8 -2.5
v 2 8 -2.5

# faces
f 3/4/1 2/4/1 1/4/1
f 4/4/1 2/4/1 3/4/1
f 5/3/1 4/3/1 3/3/1
f 6/3/1 4/3/1 5/3/1
f 11/4/1 8/4/1 7/4/1
f 12/4/1 8/4/1 11/4/1
f 13/4/1 10/4/1 9/4/1
f 14/4/1 10/4/1 13/4/1
f 15/3/1 12/3/1 11/3/1
f 16/3/1 12/3/1 15/3/1
f 17/3/1 12/3/1 16/3/1
f 18/3/1 14/3/1 13/3/1
f 19/3/1 14/3/1 18/3/1
f 20/3/1 14/3/1 19/3/1
f 21/3/1 17/3/1 16/3/1
f 21/3/1 19/3/1 18/3/1
f 21/3/1 18/3/1 17/3/1
f 22/3/1 19/3/1 21/3/1
f 27/3/1 24/3/1 23/3/1
f 28/3/1 26/3/1 25/3/1
f 29/3/1 26/3/1 28/3/1
f 30/3/1 27/3/1 23/3/1
f 30/3/1 28/3/1 27/3/1
f 31/3/1 28/3/1 30/3/1
f 32/3/1 28/3/1 31/3/1
f 33/3/1 28/3/1 32/3/1
f 34/3/1 32/3/1 31/3/1
f 35/3/1 32/3/1 34/3/1
f 40/4/1 37/4/1 36/4/1
f 41/4/1 37/4/1 40/4/1
f 42/4/1 39/4/1 38/4/1
f 43/4/1 39/4/1 42/4/1
f 44/3/1 41/3/1 40/3/1
f 45/3/1 41/3/1 44/3/1
f 46/3/1 43/3/1 42/3/1
f 47/3/1 43/3/1 46/3/1
f 48/2/1 45/2/1 44/2/1
f 49/2/1 45/2/1 48/2/1
f 50/5/1 49/5/1 48/5/1
f 51/5/1 49/5/1 50/5/1
f 55/3/1 52/3/1 51/3/1
f 56/3/1 52/3/1 55/3/1
f 57/3/1 54/3/1 53/3/1
f 58/3/1 54/3/1 57/3/1
f 59/3/1 57/3/1 56/3/1
f 60/3/1 57/3/1 59/3/1
f 63/3/1 62/3/1 61/3/1
f 64/3/1 62/3/1 63/3/1
f 67/5/1 66/5/1 65/5/1
f 68/5/1 66/5/1 67/5/1
f 69/5/2 70/5/2 71/5/2
f 71/5/2 70/5/2 72/5/2
f 73/3/2 74/3/2 75/3/2
f 75/3/2 74/3/2 76/3/2
f 77/4/2 78/4/2 81/4/2
f 81/4/2 78/4/2 82/4/2
f 79/4/2 80/4/2 83/4/2
f 83/4/2 80/4/2 84/4/2
f 81/3/2 82/3/2 85/3/2
f 85/3/2 82/3/2 86/3/2
f 83/3/2 84/3/2 87/3/2
f 87/3/2 84/3/2 88/3/2
f 85/2/2 86/2/2 89/2/2
f 89/2/2 86/2/2 90/2/2
f 89/1/2 90/1/2 91/1/2
f 91/1/2 90/1/2 92/1/2
f 91/5/2 92/5/2 93/5/2
f 93/5/2 92/5/2 94/5/2
f 94/3/2 95/3/2 98/3/2
f 98/3/2 95/3/2 99/3/2
f 96/3/2 97/3/2 100/3/2
f 100/3/2 97/3/2 101/3/2
f 99/3/2 100/3/2 102/3/2
f 102/3/2 100/3/2 103/3/2
f 104/3/2 105/3/2 108/3/2
f 106/3/2 107/3/2 109/3/2
f 109/3/2 107/3/2 110/3/2
f 104/3/2 108/3/2 111/3/2
f 108/3/2 109/3/2 111/3/2
f 111/3/2 109/3/2 112/3/2
f 112/3/2 109/3/2 113/3/2
f 113/3/2 109/3/2 114/3/2
f 112/3/2 113/3/2 115/3/2
f 115/3/2 113/3/2 116/3/2
f 117/4/2 118/4/2 121/4/2
f 121/4/2 118/4/2 122/4/2
f 119/4/2 120/4/2 123/4/2
f 123/4/2 120/4/2 124/4/2
f 121/3/2 122/3/2 125/3/2
f 125/3/2 122/3/2 126/3/2
f 126/3/2 122/3/2 127/3/2
f 123/3/2 124/3/2 128/3/2
f 128/3/2 124/3/2 129/3/2
f 129/3/2 124/3/2 130/3/2
f 126/3/2 127/3/2 131/3/2
f 128/3/2 129/3/2 131/3/2
f 127/3/2 128/3/2 131/3/2
f 131/3/2 129/3/2 132/3/2
f 133/4/2 134/4/2 135/4/2
f 135/4/2 134/4/2 136/4/2
f 135/3/2 136/3/2 137/3/2
f 137/3/2 136/3/2 138/3/2
f 144/2/3 142/2/3 141/2/3
f 145/5/3 143/5/3 142/5/3
f 145/2/3 142/2/3 144/2/3
f 146/4/3 140/4/3 139/4/3
f 147/3/3 141/3/3 140/3/3
f 147/4/3 140/4/3 146/4/3
f 148/2/3 144/2/3 141/2/3
f 148/3/3 141/3/3 147/3/3
f 149/1/3 145/1/3 144/1/3
f 149/2/3 144/2/3 148/2/3
f 150/5/3 143/5/3 145/5/3
f 150/1/3 145/1/3 149/1/3
f 151/5/3 143/5/3 150/5/3
f 152/6/3 147/6/3 146/6/3
f 153/3/3 149/3/3 148/3/3
f 153/6/3 147/6/3 152/6/3
f 153/3/3 148/3/3 147/3/3
f 153/3/3 150/3/3 149/3/3
f 154/3/3 150/3/3 153/3/3
f 155/3/3 150/3/3 154/3/3
f 157/2/3 155/2/3 154/2/3
f 158/5/3 156/5/3 155/5/3
f 158/2/3 155/2/3 157/2/3
f 159/4/3 153/4/3 152/4/3
f 160/3/3 154/3/3 153/3/3
f 160/4/3 153/4/3 159/4/3
f 161/2/3 157/2/3 154/2/3
f 161/3/3 154/3/3 160/3/3
f 162/1/3 158/1/3 157/1/3
f 162/2/3 157/2/3 161/2/3
f 163/5/3 156/5/3 158/5/3
f 163/1/3 158/1/3 162/1/3
f 164/5/3 156/5/3 163/5/3
f 168/3/3 167/3/3 166/3/3
f 170/4/3 166/4/3 165/4/3
f 171/3/3 169/3/3 168/3/3
f 171/4/3 166/4/3 170/4/3
f 171/3/3 168/3/3 166/3/3
f 172/3/3 169/3/3 171/3/3
f 173/3/3 169/3/3 172/3/3
f 174/3/3 169/3/3 173/3/3
f 177/3/3 175/3/3 174/3/3
f 178/3/3 177/3/3 176/3/3
f 179/3/3 175/3/3 177/3/3
f 179/3/3 177/3/3 178/3/3
f 185/3/3 175/3/3 179/3/3
f 186/3/3 175/3/3 185/3/3
f 187/3/3 184/3/3 183/3/3
f 187/3/3 182/3/3 181/3/3
f 187/3/3 185/3/3 184/3/3
f 187/3/3 183/3/3 182/3/3
f 188/3/3 185/3/3 187/3/3
f 189/4/3 181/4/3 180/4/3
f 190/3/3 187/3/3 181/3/3
f 190/4/3 181/4/3 189/4/3
f 191/3/3 187/3/3 190/3/3
f 194/3/3 193/3/3 192/3/3
f 195/3/3 193/3/3 194/3/3
f 198/3/3 197/3/3 196/3/3
f 199/3/3 197/3/3 198/3/3
f 202/3/3 200/3/3 199/3/3
f 203/3/3 200/3/3 202/3/3
f 206/3/3 202/3/3 201/3/3
f 207/3/3 202/3/3 206/3/3
f 208/3/3 205/3/3 204/3/3
f 209/3/3 205/3/3 208/3/3
f 213/4/3 211/4/3 210/4/3
f 214/3/3 212/3/3 211/3/3
f 214/4/3 211/4/3 213/4/3
f 215/3/3 212/3/3 214/3/3
f 218/3/3 217/3/3 216/3/3
f 219/3/3 217/3/3 218/3/3
f 223/4/3 221/4/3 220/4/3
f 224/3/3 222/3/3 221/3/3
f 224/4/3 221/4/3 223/4/3
f 225/3/3 222/3/3 224/3/3
f 226/3/4 227/3/4 228/3/4
f 228/3/4 227/3/4 229/3/4
f 230/4/4 231/4/4 233/4/4
f 231/3/4 232/3/4 234/3/4
f 233/4/4 231/4/4 234/4/4
f 234/3/4 232/3/4 235/3/4
f 236/3/4 237/3/4 238/3/4
f 238/3/4 237/3/4 239/3/4
f 239/3/4 240/3/4 242/3/4
f 242/3/4 240/3/4 243/3/4
f 241/3/4 242/3/4 244/3/4
f 244/3/4 242/3/4 245/3/4
f 246/4/4 247/4/4 249/4/4
f 247/3/4 248/3/4 250/3/4
f 249/4/4 247/4/4 250/4/4
f 250/3/4 248/3/4 251/3/4
f 252/3/4 253/3/4 254/3/4
f 254/3/4 253/3/4 255/3/4
f 255/3/4 256/3/4 257/3/4
f 255/3/4 257/3/4 259/3/4
f 257/3/4 258/3/4 259/3/4
f 259/3/4 258/3/4 260/3/4
f 255/3/4 259/3/4 262/3/4
f 262/3/4 259/3/4 263/3/4
f 261/3/4 262/3/4 264/3/4
f 264/3/4 262/3/4 265/3/4
f 267/3/4 268/3/4 269/3/4
f 266/4/4 267/4/4 271/4/4
f 269/3/4 270/3/4 272/3/4
f 271/4/4 267/4/4 272/4/4
f 267/3/4 269/3/4 272/3/4
f 272/3/4 270/3/4 273/3/4
f 273/3/4 270/3/4 276/3/4
f 276/3/4 270/3/4 277/3/4
f 275/3/4 276/3/4 277/3/4
f 277/3/4 270/3/4 278/3/4
f 274/4/4 275/4/4 279/4/4
f 275/3/4 277/3/4 280/3/4
f 279/4/4 275/4/4 280/4/4
f 280/3/4 277/3/4 281/3/4
f 282/4/4 283/4/4 285/4/4
f 283/3/4 284/3/4 286/3/4
f 285/4/4 283/4/4 286/4/4
f 286/3/4 284/3/4 287/3/4
f 293/4/5 289/4/5 288/4/5
f 294/6/5 290/6/5 289/6/5
f 294/4/5 289/4/5 293/4/5
f 295/4/5 291/4/5 290/4/5
f 295/6/5 290/6/5 294/6/5
f 296/4/5 291/4/5 295/4/5
f 299/4/5 294/4/5 293/4/5
f 299/4/5 297/4/5 296/4/5
f 299/4/5 296/4/5 295/4/5
f 299/4/5 295/4/5 294/4/5
f 299/4/5 293/4/5 292/4/5
f 300/4/5 297/4/5 299/4/5
f 302/4/5 299/4/5 298/4/5
f 302/4/5 301/4/5 300/4/5
f 302/4/5 300/4/5 299/4/5
f 303/4/5 301/4/5 302/4/5
f 304/4/5 301/4/5 303/4/5
f 305/4/5 301/4/5 304/4/5
f 306/4/5 304/4/5 303/4/5
f 307/4/5 304/4/5 306/4/5
f 308/4/5 304/4/5 307/4/5
f 309/4/5 304/4/5 308/4/5
f 310/4/5 308/4/5 307/4/5
f 311/4/5 308/4/5 310/4/5
f 312/3/6 313/3/6 316/3/6
f 316/3/6 313/3/6 317/3/6
f 314/3/6 315/3/6 318/3/6
f 318/3/6 315/3/6 319/3/6
f 320/3/6 321/3/6 324/3/6
f 324/3/6 321/3/6 325/3/6
f 322/3/6 323/3/6 326/3/6
f 326/3/6 323/3/6 327/3/6
f 328/3/6 329/3/6 332/3/6
f 332/3/6 329/3/6 333/3/6
f 330/3/6 331/3/6 336/3/6
f 336/3/6 331/3/6 337/3/6
f 334/3/6 335/3/6 338/3/6
f 338/3/6 335/3/6 339/3/6
f 340/3/6 341/3/6 344/3/6
f 344/3/6 341/3/6 345/3/6
f 342/3/6 343/3/6 346/3/6
f 346/3/6 343/3/6 347/3/6
f 345/3/6 346/3/6 348/3/6
f 348/3/6 346/3/6 349/3/6
f 350/3/6 351/3/6 352/3/6
f 352/3/6 351/3/6 353/3/6
f 354/5/6 355/5/6 359/5/6
f 359/5/6 355/5/6 360/5/6
f 356/5/6 357/5/6 361/5/6
f 361/5/6 357/5/6 362/5/6
f 358/3/6 359/3/6 364/3/6
f 364/3/6 359/3/6 365/3/6
f 362/3/6 363/3/6 366/3/6
f 366/3/6 363/3/6 367/3/6
f 368/3/6 369/3/6 372/3/6
f 372/3/6 369/3/6 373/3/6
f 370/3/6 371/3/6 374/3/6
f 374/3/6 371/3/6 375/3/6
f 376/3/6 377/3/6 379/3/6
f 379/3/6 377/3/6 380/3/6
f 378/3/6 379/3/6 382/3/6
f 382/3/6 379/3/6 383/3/6
f 380/3/6 381/3/6 384/3/6
f 384/3/6 381/3/6 385/3/6
f 383/3/6 384/3/6 386/3/6
f 386/3/6 384/3/6 387/3/6
f 388/3/6 389/3/6 390/3/6
f 390/3/6 389/3/6 391/3/6
f 388/3/6 390/3/6 392/3/6
f 391/3/6 389/3/6 393/3/6
f 388/3/6 392/3/6 394/3/6
f 392/3/6 393/3/6 394/3/6
f 393/3/6 389/3/6 395/3/6
f 394/3/6 393/3/6 395/3/6
f 396/3/6 397/3/6 398/3/6
f 398/3/6 397/3/6 399/3/6
