# MagicaVoxel @ ephtracy

# material
mtllib bush01.mtl
usemtl palette

# normals
vn -1 0 0
vn 1 0 0
vn 0 0 1
vn 0 0 -1
vn 0 -1 0
vn 0 1 0

# texcoords
vt 0.537109 0.5
vt 0.900391 0.5

# verts
v -7 4 -0
v -7 4 -3
v -7 6 -0
v -7 6 -3
v -7 7 -1
v -7 7 -3
v -7 8 -1
v -7 8 -3
v -6 3 1
v -6 3 -1
v -6 4 -0
v -6 4 -1
v -6 6 -0
v -6 6 -3
v -6 6 -4
v -6 7 1
v -6 7 -1
v -6 7 -3
v -6 8 -1
v -6 8 -3
v -6 8 -4
v -6 9 -1
v -6 9 -3
v -5 4 4
v -5 4 1
v -5 4 -3
v -5 4 -4
v -5 6 4
v -5 6 2
v -5 6 -3
v -5 6 -4
v -5 6 -5
v -5 7 2
v -5 7 1
v -5 7 -1
v -5 7 -4
v -5 7 -5
v -5 8 1
v -5 8 -1
v -4 5 -4
v -4 5 -5
v -4 6 3
v -4 6 2
v -4 6 -4
v -4 6 -5
v -4 7 4
v -4 7 3
v -4 7 2
v -4 7 1
v -4 8 4
v -4 8 3
v -4 8 2
v -4 8 1
v -4 8 -3
v -4 9 3
v -4 9 2
v -4 9 1
v -4 9 -3
v -3 0 -0
v -3 0 -3
v -3 1 -2
v -3 1 -3
v -3 3 5
v -3 3 3
v -3 3 -0
v -3 3 -1
v -3 4 4
v -3 4 3
v -3 4 -1
v -3 4 -2
v -3 4 -4
v -3 4 -5
v -3 5 -4
v -3 5 -5
v -3 6 5
v -3 6 4
v -3 6 3
v -3 7 4
v -3 7 3
v -2 0 1
v -2 0 -0
v -2 3 1
v -2 3 -0
v -2 3 -2
v -2 3 -3
v -2 4 -2
v -2 4 -3
v -2 4 -5
v -2 4 -6
v -2 6 -5
v -2 6 -6
v -2 7 -4
v -2 7 -5
v -2 8 -3
v -2 8 -4
v -2 8 -5
v -2 9 -3
v -2 9 -4
v -1 3 2
v -1 3 1
v -1 3 -3
v -1 3 -4
v -1 4 2
v -1 4 1
v -1 4 -3
v -1 4 -4
v 0 3 3
v 0 3 2
v 0 4 3
v 0 4 2
v 1 8 -1
v 1 8 -2
v 1 9 -1
v 1 9 -2
v -5 8 -1
v -5 8 -3
v -5 9 -1
v -5 9 -3
v -2 0 -2
v -2 0 -3
v -2 1 -2
v -2 1 -3
v -1 6 4
v -1 6 3
v -1 8 4
v -1 8 3
v -1 8 2
v -1 9 3
v -1 9 2
v 0 0 1
v 0 0 -2
v 0 2 -0
v 0 2 -2
v 0 3 1
v 0 3 -0
v 0 4 -4
v 0 4 -6
v 0 5 5
v 0 5 4
v 0 6 5
v 0 6 4
v 0 6 -4
v 0 6 -5
v 0 6 -6
v 0 7 3
v 0 7 2
v 0 8 3
v 0 8 2
v 0 8 -1
v 0 8 -3
v 0 9 -1
v 0 9 -3
v 1 2 -0
v 1 2 -2
v 1 3 5
v 1 3 3
v 1 3 -0
v 1 3 -2
v 1 5 5
v 1 5 4
v 1 5 3
v 1 5 2
v 1 6 4
v 1 6 3
v 1 7 3
v 1 7 2
v 1 7 -4
v 1 7 -5
v 1 8 1
v 1 8 -0
v 1 8 -3
v 1 8 -4
v 1 8 -5
v 1 9 1
v 1 9 -0
v 1 9 -3
v 1 9 -4
v 2 3 3
v 2 3 -0
v 2 3 -1
v 2 3 -2
v 2 3 -4
v 2 4 2
v 2 4 -0
v 2 4 -1
v 2 5 3
v 2 5 2
v 2 5 -2
v 2 5 -3
v 2 6 2
v 2 6 1
v 2 6 -2
v 2 6 -3
v 2 6 -4
v 2 6 -5
v 2 7 1
v 2 7 -2
v 2 7 -4
v 2 7 -5
v 2 8 2
v 2 8 -0
v 2 8 -2
v 2 8 -4
v 2 9 -0
v 2 9 -2
v 3 3 -1
v 3 3 -2
v 3 4 -1
v 3 5 -1
v 3 5 -2
v 3 5 -3
v 3 6 1
v 3 6 -2
v 3 6 -3
v 3 7 1
v 3 7 -2
v 4 4 2
v 4 4 -1
v 4 5 -1
v 4 5 -2
v 4 6 2
v 4 6 -2
v -3 3 5
v -3 6 5
v 0 5 5
v 0 6 5
v 1 3 5
v 1 5 5
v -5 4 4
v -5 6 4
v -4 7 4
v -4 8 4
v -3 4 4
v -3 6 4
v -3 7 4
v -1 6 4
v -1 8 4
v 0 5 4
v 0 6 4
v 1 5 4
v 1 6 4
v -4 6 3
v -4 7 3
v -4 8 3
v -4 9 3
v -3 6 3
v -3 7 3
v -1 6 3
v -1 8 3
v -1 9 3
v 0 7 3
v 0 8 3
v 1 3 3
v 1 5 3
v 1 6 3
v 1 7 3
v 2 3 3
v 2 5 3
v -5 6 2
v -5 7 2
v -4 6 2
v -4 7 2
v -1 3 2
v -1 4 2
v 0 3 2
v 0 4 2
v 0 7 2
v 0 8 2
v 1 5 2
v 1 7 2
v 2 4 2
v 2 5 2
v 2 6 2
v 2 8 2
v 4 4 2
v 4 6 2
v -6 3 1
v -6 7 1
v -5 4 1
v -5 7 1
v -5 8 1
v -4 7 1
v -4 8 1
v -4 9 1
v -2 0 1
v -2 3 1
v -2 4 1
v -1 3 1
v -1 4 1
v 0 0 1
v 0 3 1
v 1 8 1
v 1 9 1
v 2 6 1
v 2 7 1
v 3 6 1
v 3 7 1
v -7 4 -0
v -7 6 -0
v -6 4 -0
v -6 6 -0
v -3 0 -0
v -3 3 -0
v -2 0 -0
v -2 3 -0
v 0 2 -0
v 0 3 -0
v 1 2 -0
v 1 3 -0
v 1 8 -0
v 1 9 -0
v 2 8 -0
v 2 9 -0
v -7 7 -1
v -7 8 -1
v -6 7 -1
v -6 8 -1
v -6 9 -1
v -5 7 -1
v -5 8 -1
v -5 9 -1
v 2 3 -1
v 2 4 -1
v 3 3 -1
v 3 4 -1
v 0 8 -3
v 0 9 -3
v 1 8 -3
v 1 9 -3
v -3 3 3
v -3 4 3
v -2 4 3
v 0 3 3
v 0 4 3
v -4 8 2
v -4 9 2
v -1 8 2
v -1 9 2
v -6 3 -1
v -6 4 -1
v -5 4 -1
v -3 3 -1
v -3 4 -1
v 0 8 -1
v 0 9 -1
v 1 8 -1
v 1 9 -1
v 3 4 -1
v 3 5 -1
v 4 4 -1
v 4 5 -1
v -3 1 -2
v -3 4 -2
v -2 0 -2
v -2 1 -2
v -2 3 -2
v -2 4 -2
v 0 0 -2
v 0 2 -2
v 0 3 -2
v 1 2 -2
v 1 3 -2
v 1 8 -2
v 1 9 -2
v 2 3 -2
v 2 5 -2
v 2 6 -2
v 2 7 -2
v 2 8 -2
v 2 9 -2
v 3 3 -2
v 3 5 -2
v 3 6 -2
v 3 7 -2
v 4 5 -2
v 4 6 -2
v -7 4 -3
v -7 6 -3
v -7 7 -3
v -7 8 -3
v -6 6 -3
v -6 7 -3
v -6 8 -3
v -6 9 -3
v -5 4 -3
v -5 6 -3
v -5 8 -3
v -5 9 -3
v -4 8 -3
v -4 9 -3
v -3 0 -3
v -3 1 -3
v -2 0 -3
v -2 1 -3
v -2 3 -3
v -2 4 -3
v -2 8 -3
v -2 9 -3
v -1 3 -3
v -1 4 -3
v 2 5 -3
v 2 6 -3
v 3 5 -3
v 3 6 -3
v -6 6 -4
v -6 8 -4
v -5 4 -4
v -5 6 -4
v -5 7 -4
v -4 5 -4
v -4 6 -4
v -3 4 -4
v -3 5 -4
v -2 7 -4
v -2 8 -4
v -2 9 -4
v -1 3 -4
v -1 4 -4
v 0 4 -4
v 0 6 -4
v 1 7 -4
v 1 8 -4
v 1 9 -4
v 2 3 -4
v 2 6 -4
v 2 7 -4
v 2 8 -4
v -5 6 -5
v -5 7 -5
v -4 5 -5
v -4 6 -5
v -3 4 -5
v -3 5 -5
v -2 4 -5
v -2 6 -5
v -2 7 -5
v -2 8 -5
v 0 6 -5
v 1 7 -5
v 1 8 -5
v 2 6 -5
v 2 7 -5
v -2 4 -6
v -2 6 -6
v 0 4 -6
v 0 6 -6
v -2 0 1
v 0 0 1
v -3 0 -0
v -2 0 -0
v -2 0 -2
v 0 0 -2
v -3 0 -3
v -2 0 -3
v 0 2 -0
v 1 2 -0
v 0 2 -2
v 1 2 -2
v -3 3 5
v 1 3 5
v -3 3 3
v 0 3 3
v 1 3 3
v 2 3 3
v -1 3 2
v 0 3 2
v -6 3 1
v -2 3 1
v -1 3 1
v 0 3 1
v -3 3 -0
v -2 3 -0
v 0 3 -0
v 1 3 -0
v 2 3 -0
v -6 3 -1
v -3 3 -1
v 2 3 -1
v 3 3 -1
v -2 3 -2
v 0 3 -2
v 1 3 -2
v 2 3 -2
v 3 3 -2
v -2 3 -3
v -1 3 -3
v 0 3 -3
v -1 3 -4
v 2 3 -4
v -5 4 4
v -3 4 4
v -3 4 3
v -2 4 3
v 0 4 3
v -1 4 2
v 0 4 2
v 2 4 2
v 4 4 2
v -5 4 1
v -2 4 1
v -1 4 1
v -7 4 -0
v -6 4 -0
v 2 4 -0
v 3 4 -0
v -6 4 -1
v -5 4 -1
v -3 4 -1
v 2 4 -1
v 3 4 -1
v 4 4 -1
v -3 4 -2
v -2 4 -2
v -7 4 -3
v -5 4 -3
v -3 4 -3
v -2 4 -3
v -1 4 -3
v -5 4 -4
v -3 4 -4
v -1 4 -4
v 0 4 -4
v -3 4 -5
v -2 4 -5
v -2 4 -6
v 0 4 -6
v 3 5 -1
v 4 5 -1
v 2 5 -2
v 3 5 -2
v 4 5 -2
v 2 5 -3
v 3 5 -3
v -4 5 -4
v -3 5 -4
v -4 5 -5
v -3 5 -5
v -6 6 -3
v -5 6 -3
v -6 6 -4
v -5 6 -4
v -4 6 -4
v 0 6 -4
v 2 6 -4
v -5 6 -5
v -4 6 -5
v 0 6 -5
v 2 6 -5
v -4 7 4
v -3 7 4
v -4 7 3
v -3 7 3
v -7 7 -1
v -6 7 -1
v -7 7 -3
v -6 7 -3
v -3 1 -2
v -2 1 -2
v -3 1 -3
v -2 1 -3
v 0 5 5
v 1 5 5
v 0 5 4
v 1 5 4
v 1 5 3
v 2 5 3
v 1 5 2
v 2 5 2
v -3 6 5
v 0 6 5
v -5 6 4
v -3 6 4
v -1 6 4
v 0 6 4
v 1 6 4
v -4 6 3
v -3 6 3
v -1 6 3
v 1 6 3
v -5 6 2
v -4 6 2
v 2 6 2
v 4 6 2
v 2 6 1
v 3 6 1
v -7 6 -0
v -6 6 -0
v 2 6 -2
v 3 6 -2
v 4 6 -2
v -7 6 -3
v -6 6 -3
v 2 6 -3
v 3 6 -3
v -2 6 -5
v 0 6 -5
v -2 6 -6
v 0 6 -6
v 0 7 3
v 1 7 3
v -5 7 2
v -4 7 2
v 0 7 2
v 1 7 2
v -6 7 1
v -5 7 1
v -4 7 1
v 2 7 1
v 3 7 1
v -6 7 -1
v -5 7 -1
v 2 7 -2
v 3 7 -2
v -5 7 -4
v -2 7 -4
v 1 7 -4
v 2 7 -4
v -5 7 -5
v -2 7 -5
v 1 7 -5
v 2 7 -5
v -4 8 4
v -1 8 4
v -4 8 3
v -1 8 3
v 0 8 3
v -4 8 2
v -1 8 2
v 0 8 2
v 2 8 2
v -5 8 1
v -4 8 1
v 1 8 1
v 1 8 -0
v 2 8 -0
v -7 8 -1
v -6 8 -1
v -5 8 -1
v 0 8 -1
v 1 8 -1
v 1 8 -2
v 2 8 -2
v -7 8 -3
v -6 8 -3
v -5 8 -3
v -4 8 -3
v -2 8 -3
v 0 8 -3
v 1 8 -3
v -6 8 -4
v -2 8 -4
v 1 8 -4
v 2 8 -4
v -2 8 -5
v 1 8 -5
v -4 9 3
v -1 9 3
v -4 9 2
v -1 9 2
v -4 9 1
v 1 9 1
v 1 9 -0
v 2 9 -0
v -6 9 -1
v -5 9 -1
v 0 9 -1
v 1 9 -1
v 1 9 -2
v 2 9 -2
v -6 9 -3
v -5 9 -3
v -4 9 -3
v -2 9 -3
v 0 9 -3
v 1 9 -3
v -2 9 -4
v 1 9 -4

# faces
f 3/2/1 2/2/1 1/2/1
f 4/2/1 2/2/1 3/2/1
f 7/2/1 6/2/1 5/2/1
f 8/2/1 6/2/1 7/2/1
f 11/2/1 10/2/1 9/2/1
f 12/2/1 10/2/1 11/2/1
f 13/2/1 11/2/1 9/2/1
f 16/2/1 13/2/1 9/2/1
f 16/2/1 15/2/1 14/2/1
f 16/2/1 14/2/1 13/2/1
f 17/2/1 15/2/1 16/2/1
f 18/2/1 15/2/1 17/2/1
f 20/2/1 15/2/1 18/2/1
f 21/2/1 15/2/1 20/2/1
f 22/2/1 20/2/1 19/2/1
f 23/2/1 20/2/1 22/2/1
f 28/2/1 25/2/1 24/2/1
f 29/2/1 25/2/1 28/2/1
f 30/1/1 27/1/1 26/1/1
f 31/1/1 27/1/1 30/1/1
f 33/2/1 25/2/1 29/2/1
f 34/2/1 25/2/1 33/2/1
f 36/2/1 32/2/1 31/2/1
f 37/2/1 32/2/1 36/2/1
f 38/2/1 35/2/1 34/2/1
f 39/2/1 35/2/1 38/2/1
f 44/2/1 41/2/1 40/2/1
f 45/2/1 41/2/1 44/2/1
f 47/2/1 43/2/1 42/2/1
f 48/2/1 43/2/1 47/2/1
f 50/2/1 47/2/1 46/2/1
f 50/2/1 49/2/1 48/2/1
f 50/2/1 48/2/1 47/2/1
f 51/2/1 49/2/1 50/2/1
f 52/2/1 49/2/1 51/2/1
f 53/2/1 49/2/1 52/2/1
f 55/2/1 52/2/1 51/2/1
f 56/2/1 52/2/1 55/2/1
f 57/2/1 54/2/1 53/2/1
f 58/2/1 54/2/1 57/2/1
f 61/1/1 60/1/1 59/1/1
f 62/1/1 60/1/1 61/1/1
f 65/1/1 61/1/1 59/1/1
f 66/1/1 61/1/1 65/1/1
f 67/2/1 64/2/1 63/2/1
f 68/2/1 64/2/1 67/2/1
f 69/1/1 61/1/1 66/1/1
f 70/1/1 61/1/1 69/1/1
f 73/2/1 72/2/1 71/2/1
f 74/2/1 72/2/1 73/2/1
f 75/2/1 67/2/1 63/2/1
f 76/2/1 67/2/1 75/2/1
f 78/2/1 77/2/1 76/2/1
f 79/2/1 77/2/1 78/2/1
f 82/1/1 81/1/1 80/1/1
f 83/1/1 81/1/1 82/1/1
f 86/1/1 85/1/1 84/1/1
f 87/1/1 85/1/1 86/1/1
f 90/2/1 89/2/1 88/2/1
f 91/2/1 89/2/1 90/2/1
f 95/2/1 93/2/1 92/2/1
f 96/2/1 93/2/1 95/2/1
f 97/2/1 95/2/1 94/2/1
f 98/2/1 95/2/1 97/2/1
f 103/1/1 100/1/1 99/1/1
f 104/1/1 100/1/1 103/1/1
f 105/2/1 102/2/1 101/2/1
f 106/2/1 102/2/1 105/2/1
f 109/2/1 108/2/1 107/2/1
f 110/2/1 108/2/1 109/2/1
f 113/2/1 112/2/1 111/2/1
f 114/2/1 112/2/1 113/2/1
f 115/2/2 116/2/2 117/2/2
f 117/2/2 116/2/2 118/2/2
f 119/1/2 120/1/2 121/1/2
f 121/1/2 120/1/2 122/1/2
f 123/2/2 124/2/2 125/2/2
f 125/2/2 124/2/2 126/2/2
f 126/2/2 127/2/2 128/2/2
f 128/2/2 127/2/2 129/2/2
f 130/1/2 131/1/2 132/1/2
f 132/1/2 131/1/2 133/1/2
f 130/1/2 132/1/2 134/1/2
f 134/1/2 132/1/2 135/1/2
f 138/2/2 139/2/2 140/2/2
f 140/2/2 139/2/2 141/2/2
f 136/2/2 137/2/2 142/2/2
f 142/2/2 137/2/2 143/2/2
f 143/2/2 137/2/2 144/2/2
f 145/2/2 146/2/2 147/2/2
f 147/2/2 146/2/2 148/2/2
f 149/2/2 150/2/2 151/2/2
f 151/2/2 150/2/2 152/2/2
f 153/1/2 154/1/2 157/1/2
f 157/1/2 154/1/2 158/1/2
f 155/2/2 156/2/2 159/2/2
f 159/2/2 156/2/2 160/2/2
f 160/2/2 156/2/2 161/2/2
f 161/2/2 162/2/2 163/2/2
f 160/2/2 161/2/2 163/2/2
f 163/2/2 162/2/2 164/2/2
f 164/2/2 162/2/2 165/2/2
f 165/2/2 162/2/2 166/2/2
f 167/2/2 168/2/2 172/2/2
f 172/2/2 168/2/2 173/2/2
f 169/2/2 170/2/2 174/2/2
f 174/2/2 170/2/2 175/2/2
f 171/2/2 172/2/2 176/2/2
f 176/2/2 172/2/2 177/2/2
f 178/2/2 179/2/2 183/2/2
f 179/1/2 180/1/2 184/1/2
f 183/2/2 179/2/2 184/2/2
f 184/1/2 180/1/2 185/1/2
f 178/2/2 183/2/2 186/2/2
f 186/2/2 183/2/2 187/2/2
f 181/2/2 182/2/2 188/2/2
f 188/2/2 182/2/2 189/2/2
f 189/2/2 182/2/2 193/2/2
f 193/2/2 182/2/2 194/2/2
f 190/2/2 191/2/2 196/2/2
f 194/2/2 195/2/2 197/2/2
f 192/2/2 193/2/2 197/2/2
f 193/2/2 194/2/2 197/2/2
f 197/2/2 195/2/2 198/2/2
f 198/2/2 195/2/2 199/2/2
f 190/2/2 196/2/2 200/2/2
f 196/2/2 197/2/2 200/2/2
f 197/2/2 198/2/2 200/2/2
f 200/2/2 198/2/2 201/2/2
f 201/2/2 198/2/2 202/2/2
f 202/2/2 198/2/2 203/2/2
f 201/2/2 202/2/2 204/2/2
f 204/2/2 202/2/2 205/2/2
f 206/1/2 207/1/2 208/1/2
f 208/1/2 207/1/2 209/1/2
f 209/1/2 207/1/2 210/1/2
f 210/2/2 211/2/2 213/2/2
f 213/2/2 211/2/2 214/2/2
f 212/2/2 213/2/2 215/2/2
f 215/2/2 213/2/2 216/2/2
f 217/2/2 218/2/2 219/2/2
f 217/2/2 219/2/2 221/2/2
f 219/2/2 220/2/2 221/2/2
f 221/2/2 220/2/2 222/2/2
f 225/2/3 224/2/3 223/2/3
f 226/2/3 224/2/3 225/2/3
f 227/2/3 225/2/3 223/2/3
f 228/2/3 225/2/3 227/2/3
f 233/2/3 230/2/3 229/2/3
f 234/2/3 230/2/3 233/2/3
f 235/2/3 232/2/3 231/2/3
f 236/2/3 235/2/3 234/2/3
f 237/2/3 232/2/3 235/2/3
f 237/2/3 235/2/3 236/2/3
f 240/2/3 239/2/3 238/2/3
f 241/2/3 239/2/3 240/2/3
f 246/2/3 243/2/3 242/2/3
f 247/2/3 243/2/3 246/2/3
f 249/2/3 245/2/3 244/2/3
f 250/2/3 245/2/3 249/2/3
f 251/2/3 249/2/3 248/2/3
f 252/2/3 249/2/3 251/2/3
f 255/2/3 251/2/3 248/2/3
f 256/2/3 251/2/3 255/2/3
f 257/2/3 254/2/3 253/2/3
f 258/2/3 254/2/3 257/2/3
f 261/2/3 260/2/3 259/2/3
f 262/2/3 260/2/3 261/2/3
f 265/1/3 264/1/3 263/1/3
f 266/1/3 264/1/3 265/1/3
f 270/2/3 268/2/3 267/2/3
f 272/2/3 270/2/3 269/2/3
f 273/2/3 270/2/3 272/2/3
f 274/2/3 268/2/3 270/2/3
f 274/2/3 270/2/3 273/2/3
f 275/2/3 273/2/3 272/2/3
f 275/2/3 272/2/3 271/2/3
f 276/2/3 273/2/3 275/2/3
f 279/2/3 278/2/3 277/2/3
f 280/2/3 278/2/3 279/2/3
f 282/2/3 281/2/3 280/2/3
f 283/2/3 281/2/3 282/2/3
f 286/2/3 279/2/3 277/2/3
f 287/2/3 279/2/3 286/2/3
f 288/1/3 286/1/3 285/1/3
f 288/1/3 287/1/3 286/1/3
f 289/1/3 287/1/3 288/1/3
f 290/1/3 288/1/3 285/1/3
f 291/1/3 288/1/3 290/1/3
f 292/2/3 284/2/3 283/2/3
f 293/2/3 284/2/3 292/2/3
f 296/2/3 295/2/3 294/2/3
f 297/2/3 295/2/3 296/2/3
f 300/2/3 299/2/3 298/2/3
f 301/2/3 299/2/3 300/2/3
f 304/1/3 303/1/3 302/1/3
f 305/1/3 303/1/3 304/1/3
f 308/1/3 307/1/3 306/1/3
f 309/1/3 307/1/3 308/1/3
f 312/2/3 311/2/3 310/2/3
f 313/2/3 311/2/3 312/2/3
f 316/2/3 315/2/3 314/2/3
f 317/2/3 315/2/3 316/2/3
f 319/2/3 317/2/3 316/2/3
f 319/2/3 318/2/3 317/2/3
f 320/2/3 318/2/3 319/2/3
f 321/2/3 318/2/3 320/2/3
f 324/1/3 323/1/3 322/1/3
f 325/1/3 323/1/3 324/1/3
f 328/2/3 327/2/3 326/2/3
f 329/2/3 327/2/3 328/2/3
f 330/2/4 331/2/4 332/2/4
f 330/2/4 332/2/4 333/2/4
f 333/2/4 332/2/4 334/2/4
f 335/2/4 336/2/4 337/2/4
f 337/2/4 336/2/4 338/2/4
f 339/2/4 340/2/4 341/2/4
f 339/2/4 341/2/4 342/2/4
f 342/2/4 341/2/4 343/2/4
f 344/2/4 345/2/4 346/2/4
f 346/2/4 345/2/4 347/2/4
f 348/2/4 349/2/4 350/2/4
f 350/2/4 349/2/4 351/2/4
f 352/1/4 353/1/4 355/1/4
f 355/1/4 353/1/4 356/1/4
f 356/1/4 353/1/4 357/1/4
f 354/1/4 355/1/4 358/1/4
f 355/1/4 356/1/4 358/1/4
f 358/1/4 356/1/4 359/1/4
f 359/1/4 356/1/4 360/1/4
f 359/1/4 360/1/4 361/1/4
f 361/1/4 360/1/4 362/1/4
f 363/2/4 364/2/4 369/2/4
f 369/2/4 364/2/4 370/2/4
f 365/1/4 366/1/4 371/1/4
f 371/1/4 366/1/4 372/1/4
f 367/2/4 368/2/4 373/2/4
f 373/2/4 368/2/4 374/2/4
f 372/2/4 373/2/4 375/2/4
f 375/2/4 373/2/4 376/2/4
f 377/2/4 378/2/4 381/2/4
f 379/2/4 380/2/4 382/2/4
f 382/2/4 380/2/4 383/2/4
f 377/2/4 381/2/4 385/2/4
f 385/2/4 381/2/4 386/2/4
f 383/2/4 384/2/4 387/2/4
f 387/2/4 384/2/4 388/2/4
f 391/1/4 392/1/4 393/1/4
f 393/1/4 392/1/4 394/1/4
f 389/2/4 390/2/4 397/2/4
f 397/2/4 390/2/4 398/2/4
f 395/1/4 396/1/4 399/1/4
f 399/1/4 396/1/4 400/1/4
f 401/2/4 402/2/4 403/2/4
f 403/2/4 402/2/4 404/2/4
f 405/2/4 406/2/4 408/2/4
f 408/2/4 406/2/4 409/2/4
f 407/1/4 408/1/4 410/1/4
f 410/1/4 408/1/4 411/1/4
f 407/1/4 410/1/4 412/1/4
f 412/1/4 410/1/4 413/1/4
f 409/2/4 406/2/4 414/2/4
f 414/2/4 406/2/4 415/2/4
f 417/2/4 418/2/4 419/2/4
f 415/2/4 416/2/4 422/2/4
f 422/2/4 416/2/4 423/2/4
f 419/2/4 420/2/4 424/2/4
f 417/2/4 419/2/4 424/2/4
f 424/2/4 420/2/4 425/2/4
f 421/2/4 422/2/4 426/2/4
f 426/2/4 422/2/4 427/2/4
f 428/2/4 429/2/4 431/2/4
f 430/2/4 431/2/4 433/2/4
f 432/2/4 433/2/4 434/2/4
f 431/2/4 429/2/4 435/2/4
f 434/2/4 433/2/4 435/2/4
f 433/2/4 431/2/4 435/2/4
f 435/2/4 429/2/4 436/2/4
f 436/2/4 437/2/4 438/2/4
f 435/2/4 436/2/4 438/2/4
f 438/2/4 437/2/4 439/2/4
f 439/2/4 437/2/4 440/2/4
f 438/2/4 439/2/4 441/2/4
f 441/2/4 439/2/4 442/2/4
f 443/2/4 444/2/4 445/2/4
f 445/2/4 444/2/4 446/2/4
f 450/1/5 448/1/5 447/1/5
f 451/1/5 448/1/5 450/1/5
f 451/1/5 450/1/5 449/1/5
f 452/1/5 448/1/5 451/1/5
f 453/1/5 451/1/5 449/1/5
f 454/1/5 451/1/5 453/1/5
f 457/1/5 456/1/5 455/1/5
f 458/1/5 456/1/5 457/1/5
f 461/2/5 460/2/5 459/2/5
f 462/2/5 460/2/5 461/2/5
f 463/2/5 460/2/5 462/2/5
f 466/2/5 464/2/5 463/2/5
f 466/2/5 463/2/5 462/2/5
f 469/1/5 466/1/5 465/1/5
f 470/2/5 464/2/5 466/2/5
f 470/1/5 466/1/5 469/1/5
f 471/2/5 468/2/5 467/2/5
f 472/2/5 468/2/5 471/2/5
f 473/2/5 464/2/5 470/2/5
f 474/2/5 464/2/5 473/2/5
f 475/2/5 464/2/5 474/2/5
f 476/2/5 471/2/5 467/2/5
f 477/2/5 471/2/5 476/2/5
f 478/1/5 475/1/5 474/1/5
f 482/1/5 478/1/5 474/1/5
f 482/1/5 479/1/5 478/1/5
f 483/1/5 479/1/5 482/1/5
f 484/1/5 479/1/5 483/1/5
f 485/1/5 481/1/5 480/1/5
f 486/1/5 481/1/5 485/1/5
f 487/2/5 482/2/5 481/2/5
f 487/1/5 481/1/5 486/1/5
f 487/2/5 483/2/5 482/2/5
f 488/2/5 487/2/5 486/2/5
f 489/2/5 483/2/5 487/2/5
f 489/2/5 487/2/5 488/2/5
f 492/2/5 491/2/5 490/2/5
f 495/1/5 494/1/5 493/1/5
f 496/1/5 494/1/5 495/1/5
f 499/2/5 492/2/5 490/2/5
f 499/2/5 493/2/5 492/2/5
f 500/1/5 495/1/5 493/1/5
f 500/2/5 493/2/5 499/2/5
f 501/1/5 495/1/5 500/1/5
f 504/2/5 498/2/5 497/2/5
f 505/2/5 498/2/5 504/2/5
f 506/2/5 503/2/5 502/2/5
f 509/1/5 505/1/5 504/1/5
f 510/2/5 498/2/5 505/2/5
f 510/1/5 505/1/5 509/1/5
f 511/2/5 498/2/5 510/2/5
f 512/1/5 508/1/5 507/1/5
f 514/2/5 506/2/5 502/2/5
f 514/2/5 507/2/5 506/2/5
f 515/1/5 513/1/5 512/1/5
f 515/2/5 507/2/5 514/2/5
f 515/1/5 512/1/5 507/1/5
f 516/1/5 513/1/5 515/1/5
f 517/1/5 513/1/5 516/1/5
f 519/1/5 516/1/5 515/1/5
f 520/2/5 518/2/5 517/2/5
f 520/1/5 516/1/5 519/1/5
f 520/2/5 517/2/5 516/2/5
f 521/2/5 518/2/5 520/2/5
f 523/2/5 522/2/5 521/2/5
f 523/2/5 521/2/5 520/2/5
f 524/2/5 522/2/5 523/2/5
f 525/2/5 522/2/5 524/2/5
f 526/2/5 522/2/5 525/2/5
f 530/2/5 528/2/5 527/2/5
f 531/2/5 528/2/5 530/2/5
f 532/2/5 530/2/5 529/2/5
f 533/2/5 530/2/5 532/2/5
f 536/2/5 535/2/5 534/2/5
f 537/2/5 535/2/5 536/2/5
f 540/2/5 539/2/5 538/2/5
f 541/2/5 539/2/5 540/2/5
f 545/2/5 542/2/5 541/2/5
f 546/2/5 542/2/5 545/2/5
f 547/2/5 544/2/5 543/2/5
f 548/2/5 544/2/5 547/2/5
f 551/2/5 550/2/5 549/2/5
f 552/2/5 550/2/5 551/2/5
f 555/2/5 554/2/5 553/2/5
f 556/2/5 554/2/5 555/2/5
f 557/1/6 558/1/6 559/1/6
f 559/1/6 558/1/6 560/1/6
f 561/2/6 562/2/6 563/2/6
f 563/2/6 562/2/6 564/2/6
f 565/2/6 566/2/6 567/2/6
f 567/2/6 566/2/6 568/2/6
f 569/2/6 570/2/6 572/2/6
f 572/2/6 570/2/6 573/2/6
f 573/2/6 570/2/6 574/2/6
f 571/2/6 572/2/6 576/2/6
f 576/2/6 572/2/6 577/2/6
f 574/2/6 575/2/6 578/2/6
f 573/2/6 574/2/6 578/2/6
f 578/2/6 575/2/6 579/2/6
f 571/2/6 576/2/6 580/2/6
f 580/2/6 576/2/6 581/2/6
f 582/2/6 583/2/6 584/2/6
f 584/2/6 583/2/6 585/2/6
f 585/2/6 583/2/6 589/2/6
f 589/2/6 583/2/6 590/2/6
f 586/2/6 587/2/6 591/2/6
f 591/2/6 587/2/6 592/2/6
f 588/2/6 589/2/6 593/2/6
f 593/2/6 589/2/6 594/2/6
f 595/2/6 596/2/6 597/2/6
f 597/2/6 596/2/6 598/2/6
f 599/2/6 600/2/6 603/2/6
f 603/2/6 600/2/6 604/2/6
f 601/2/6 602/2/6 606/2/6
f 606/2/6 602/2/6 607/2/6
f 605/2/6 606/2/6 610/2/6
f 610/2/6 606/2/6 611/2/6
f 608/2/6 609/2/6 612/2/6
f 612/2/6 609/2/6 613/2/6
f 614/2/6 615/2/6 618/2/6
f 618/2/6 615/2/6 619/2/6
f 616/2/6 617/2/6 620/2/6
f 620/2/6 617/2/6 621/2/6
f 622/2/6 623/2/6 624/2/6
f 624/2/6 623/2/6 625/2/6
f 625/2/6 626/2/6 628/2/6
f 628/2/6 626/2/6 629/2/6
f 627/2/6 628/2/6 632/2/6
f 629/2/6 630/2/6 632/2/6
f 628/2/6 629/2/6 632/2/6
f 632/2/6 630/2/6 633/2/6
f 633/2/6 630/2/6 634/2/6
f 634/2/6 630/2/6 635/2/6
f 631/2/6 632/2/6 638/2/6
f 639/2/6 640/2/6 641/2/6
f 636/2/6 637/2/6 643/2/6
f 643/2/6 637/2/6 644/2/6
f 638/2/6 632/2/6 645/2/6
f 645/2/6 632/2/6 646/2/6
f 641/2/6 642/2/6 648/2/6
f 639/2/6 641/2/6 648/2/6
f 648/2/6 642/2/6 649/2/6
f 646/2/6 647/2/6 650/2/6
f 645/2/6 646/2/6 650/2/6
f 644/2/6 645/2/6 650/2/6
f 650/2/6 647/2/6 651/2/6
f 649/2/6 642/2/6 652/2/6
f 652/2/6 642/2/6 653/2/6
f 651/2/6 652/2/6 654/2/6
f 654/2/6 652/2/6 655/2/6
f 656/2/6 657/2/6 658/2/6
f 658/2/6 657/2/6 659/2/6
f 660/2/6 661/2/6 662/2/6
f 660/2/6 662/2/6 666/2/6
f 662/2/6 663/2/6 666/2/6
f 666/2/6 663/2/6 667/2/6
f 667/2/6 663/2/6 668/2/6
f 668/2/6 663/2/6 669/2/6
f 664/2/6 665/2/6 670/2/6
f 670/2/6 665/2/6 671/2/6
f 660/2/6 666/2/6 672/2/6
f 672/2/6 666/2/6 673/2/6
f 673/2/6 666/2/6 674/2/6
f 674/2/6 675/2/6 676/2/6
f 673/2/6 674/2/6 676/2/6
f 676/2/6 675/2/6 677/2/6
