# MagicaVoxel @ ephtracy

# material
mtllib Barrel.mtl
usemtl palette

# normals
vn -1 0 0
vn 1 0 0
vn 0 0 1
vn 0 0 -1
vn 0 -1 0
vn 0 1 0

# texcoords
vt 0.369141 0.5
vt 0.373047 0.5
vt 0.962891 0.5

# verts
v -6 2 2
v -6 2 -2
v -6 3 2
v -6 3 -2
v -6 9 2
v -6 9 -2
v -6 10 2
v -6 10 -2
v -5 0 2
v -5 0 -2
v -5 2 4
v -5 2 2
v -5 2 -2
v -5 2 -4
v -5 3 4
v -5 3 2
v -5 3 -2
v -5 3 -4
v -5 9 4
v -5 9 2
v -5 9 -2
v -5 9 -4
v -5 10 4
v -5 10 2
v -5 10 -2
v -5 10 -4
v -5 12 2
v -5 12 -2
v -4 0 4
v -4 0 2
v -4 0 -2
v -4 0 -4
v -4 2 5
v -4 2 4
v -4 2 2
v -4 2 -2
v -4 2 -4
v -4 2 -5
v -4 3 5
v -4 3 4
v -4 3 -4
v -4 3 -5
v -4 9 5
v -4 9 4
v -4 9 -4
v -4 9 -5
v -4 10 5
v -4 10 4
v -4 10 2
v -4 10 -2
v -4 10 -4
v -4 10 -5
v -4 12 4
v -4 12 2
v -4 12 -2
v -4 12 -4
v -2 0 5
v -2 0 4
v -2 0 -4
v -2 0 -5
v -2 2 6
v -2 2 5
v -2 2 4
v -2 2 -4
v -2 2 -5
v -2 2 -6
v -2 3 6
v -2 3 5
v -2 3 -5
v -2 3 -6
v -2 9 6
v -2 9 5
v -2 9 -5
v -2 9 -6
v -2 10 6
v -2 10 5
v -2 10 4
v -2 10 -4
v -2 10 -5
v -2 10 -6
v -2 12 5
v -2 12 4
v -2 12 -4
v -2 12 -5
v 2 0 5
v 2 0 4
v 2 0 -4
v 2 0 -5
v 2 2 6
v 2 2 5
v 2 2 4
v 2 2 -4
v 2 2 -5
v 2 2 -6
v 2 3 6
v 2 3 5
v 2 3 -5
v 2 3 -6
v 2 9 6
v 2 9 5
v 2 9 -5
v 2 9 -6
v 2 10 6
v 2 10 5
v 2 10 4
v 2 10 -4
v 2 10 -5
v 2 10 -6
v 2 12 5
v 2 12 4
v 2 12 -4
v 2 12 -5
v 4 0 4
v 4 0 2
v 4 0 -2
v 4 0 -4
v 4 2 5
v 4 2 4
v 4 2 2
v 4 2 -2
v 4 2 -4
v 4 2 -5
v 4 3 5
v 4 3 4
v 4 3 -4
v 4 3 -5
v 4 9 5
v 4 9 4
v 4 9 -4
v 4 9 -5
v 4 10 5
v 4 10 4
v 4 10 2
v 4 10 -2
v 4 10 -4
v 4 10 -5
v 4 12 4
v 4 12 2
v 4 12 -2
v 4 12 -4
v 5 0 2
v 5 0 -2
v 5 2 4
v 5 2 2
v 5 2 -2
v 5 2 -4
v 5 3 4
v 5 3 2
v 5 3 -2
v 5 3 -4
v 5 9 4
v 5 9 2
v 5 9 -2
v 5 9 -4
v 5 10 4
v 5 10 2
v 5 10 -2
v 5 10 -4
v 5 12 2
v 5 12 -2
v 6 2 2
v 6 2 -2
v 6 3 2
v 6 3 -2
v 6 9 2
v 6 9 -2
v 6 10 2
v 6 10 -2
v -2 2 6
v -2 3 6
v -2 9 6
v -2 10 6
v 2 2 6
v 2 3 6
v 2 9 6
v 2 10 6
v -4 2 5
v -4 3 5
v -4 9 5
v -4 10 5
v -2 0 5
v -2 2 5
v -2 3 5
v -2 9 5
v -2 10 5
v -2 12 5
v 2 0 5
v 2 2 5
v 2 3 5
v 2 9 5
v 2 10 5
v 2 12 5
v 4 2 5
v 4 3 5
v 4 9 5
v 4 10 5
v -5 2 4
v -5 3 4
v -5 9 4
v -5 10 4
v -4 0 4
v -4 2 4
v -4 3 4
v -4 9 4
v -4 10 4
v -4 12 4
v -2 0 4
v -2 2 4
v -2 10 4
v -2 12 4
v 2 0 4
v 2 2 4
v 2 10 4
v 2 12 4
v 4 0 4
v 4 2 4
v 4 3 4
v 4 9 4
v 4 10 4
v 4 12 4
v 5 2 4
v 5 3 4
v 5 9 4
v 5 10 4
v -6 2 2
v -6 3 2
v -6 9 2
v -6 10 2
v -5 0 2
v -5 2 2
v -5 3 2
v -5 9 2
v -5 10 2
v -5 12 2
v -4 0 2
v -4 2 2
v -4 10 2
v -4 12 2
v 4 0 2
v 4 2 2
v 4 10 2
v 4 12 2
v 5 0 2
v 5 2 2
v 5 3 2
v 5 9 2
v 5 10 2
v 5 12 2
v 6 2 2
v 6 3 2
v 6 9 2
v 6 10 2
v -6 2 -2
v -6 3 -2
v -6 9 -2
v -6 10 -2
v -5 0 -2
v -5 2 -2
v -5 3 -2
v -5 9 -2
v -5 10 -2
v -5 12 -2
v -4 0 -2
v -4 2 -2
v -4 10 -2
v -4 12 -2
v 4 0 -2
v 4 2 -2
v 4 10 -2
v 4 12 -2
v 5 0 -2
v 5 2 -2
v 5 3 -2
v 5 9 -2
v 5 10 -2
v 5 12 -2
v 6 2 -2
v 6 3 -2
v 6 9 -2
v 6 10 -2
v -5 2 -4
v -5 3 -4
v -5 9 -4
v -5 10 -4
v -4 0 -4
v -4 2 -4
v -4 3 -4
v -4 9 -4
v -4 10 -4
v -4 12 -4
v -2 0 -4
v -2 2 -4
v -2 10 -4
v -2 12 -4
v 2 0 -4
v 2 2 -4
v 2 10 -4
v 2 12 -4
v 4 0 -4
v 4 2 -4
v 4 3 -4
v 4 9 -4
v 4 10 -4
v 4 12 -4
v 5 2 -4
v 5 3 -4
v 5 9 -4
v 5 10 -4
v -4 2 -5
v -4 3 -5
v -4 9 -5
v -4 10 -5
v -2 0 -5
v -2 2 -5
v -2 3 -5
v -2 9 -5
v -2 10 -5
v -2 12 -5
v 2 0 -5
v 2 2 -5
v 2 3 -5
v 2 9 -5
v 2 10 -5
v 2 12 -5
v 4 2 -5
v 4 3 -5
v 4 9 -5
v 4 10 -5
v -2 2 -6
v -2 3 -6
v -2 9 -6
v -2 10 -6
v 2 2 -6
v 2 3 -6
v 2 9 -6
v 2 10 -6
v -2 0 5
v 2 0 5
v -4 0 4
v -2 0 4
v 2 0 4
v 4 0 4
v -5 0 2
v -4 0 2
v 4 0 2
v 5 0 2
v -5 0 -2
v -4 0 -2
v 4 0 -2
v 5 0 -2
v -4 0 -4
v -2 0 -4
v 2 0 -4
v 4 0 -4
v -2 0 -5
v 2 0 -5
v -2 2 6
v 2 2 6
v -4 2 5
v -2 2 5
v 2 2 5
v 4 2 5
v -5 2 4
v -4 2 4
v -2 2 4
v 2 2 4
v 4 2 4
v 5 2 4
v -6 2 2
v -5 2 2
v -4 2 2
v 4 2 2
v 5 2 2
v 6 2 2
v -6 2 -2
v -5 2 -2
v -4 2 -2
v 4 2 -2
v 5 2 -2
v 6 2 -2
v -5 2 -4
v -4 2 -4
v -2 2 -4
v 2 2 -4
v 4 2 -4
v 5 2 -4
v -4 2 -5
v -2 2 -5
v 2 2 -5
v 4 2 -5
v -2 2 -6
v 2 2 -6
v -2 10 6
v 2 10 6
v -4 10 5
v -2 10 5
v 2 10 5
v 4 10 5
v -5 10 4
v -4 10 4
v -2 10 4
v 2 10 4
v 4 10 4
v 5 10 4
v -6 10 2
v -5 10 2
v -4 10 2
v 4 10 2
v 5 10 2
v 6 10 2
v -6 10 -2
v -5 10 -2
v -4 10 -2
v 4 10 -2
v 5 10 -2
v 6 10 -2
v -5 10 -4
v -4 10 -4
v -2 10 -4
v 2 10 -4
v 4 10 -4
v 5 10 -4
v -4 10 -5
v -2 10 -5
v 2 10 -5
v 4 10 -5
v -2 10 -6
v 2 10 -6
v -2 12 5
v 2 12 5
v -4 12 4
v -2 12 4
v 2 12 4
v 4 12 4
v -5 12 2
v -4 12 2
v 4 12 2
v 5 12 2
v -5 12 -2
v -4 12 -2
v 4 12 -2
v 5 12 -2
v -4 12 -4
v -2 12 -4
v 2 12 -4
v 4 12 -4
v -2 12 -5
v 2 12 -5

# faces
f 3/3/1 2/3/1 1/3/1
f 4/3/1 2/3/1 3/3/1
f 5/1/1 4/1/1 3/1/1
f 6/1/1 4/1/1 5/1/1
f 7/3/1 6/3/1 5/3/1
f 8/3/1 6/3/1 7/3/1
f 12/1/1 10/1/1 9/1/1
f 13/1/1 10/1/1 12/1/1
f 15/3/1 12/3/1 11/3/1
f 16/3/1 12/3/1 15/3/1
f 17/3/1 14/3/1 13/3/1
f 18/3/1 14/3/1 17/3/1
f 19/1/1 16/1/1 15/1/1
f 20/1/1 16/1/1 19/1/1
f 21/1/1 18/1/1 17/1/1
f 22/1/1 18/1/1 21/1/1
f 23/3/1 20/3/1 19/3/1
f 24/3/1 20/3/1 23/3/1
f 25/3/1 22/3/1 21/3/1
f 26/3/1 22/3/1 25/3/1
f 27/1/1 25/1/1 24/1/1
f 28/1/1 25/1/1 27/1/1
f 34/1/1 30/1/1 29/1/1
f 35/1/1 30/1/1 34/1/1
f 36/1/1 32/1/1 31/1/1
f 37/1/1 32/1/1 36/1/1
f 39/3/1 34/3/1 33/3/1
f 40/3/1 34/3/1 39/3/1
f 41/3/1 38/3/1 37/3/1
f 42/3/1 38/3/1 41/3/1
f 43/1/1 40/1/1 39/1/1
f 44/1/1 40/1/1 43/1/1
f 45/1/1 42/1/1 41/1/1
f 46/1/1 42/1/1 45/1/1
f 47/3/1 44/3/1 43/3/1
f 48/3/1 44/3/1 47/3/1
f 51/3/1 46/3/1 45/3/1
f 52/3/1 46/3/1 51/3/1
f 53/1/1 49/1/1 48/1/1
f 54/1/1 49/1/1 53/1/1
f 55/1/1 51/1/1 50/1/1
f 56/1/1 51/1/1 55/1/1
f 62/1/1 58/1/1 57/1/1
f 63/1/1 58/1/1 62/1/1
f 64/1/1 60/1/1 59/1/1
f 65/1/1 60/1/1 64/1/1
f 67/3/1 62/3/1 61/3/1
f 68/3/1 62/3/1 67/3/1
f 69/3/1 66/3/1 65/3/1
f 70/3/1 66/3/1 69/3/1
f 71/1/1 68/1/1 67/1/1
f 72/1/1 68/1/1 71/1/1
f 73/1/1 70/1/1 69/1/1
f 74/1/1 70/1/1 73/1/1
f 75/3/1 72/3/1 71/3/1
f 76/3/1 72/3/1 75/3/1
f 79/3/1 74/3/1 73/3/1
f 80/3/1 74/3/1 79/3/1
f 81/1/1 77/1/1 76/1/1
f 82/1/1 77/1/1 81/1/1
f 83/1/1 79/1/1 78/1/1
f 84/1/1 79/1/1 83/1/1
f 85/1/2 86/1/2 90/1/2
f 90/1/2 86/1/2 91/1/2
f 87/1/2 88/1/2 92/1/2
f 92/1/2 88/1/2 93/1/2
f 89/3/2 90/3/2 95/3/2
f 95/3/2 90/3/2 96/3/2
f 93/3/2 94/3/2 97/3/2
f 97/3/2 94/3/2 98/3/2
f 95/1/2 96/1/2 99/1/2
f 99/1/2 96/1/2 100/1/2
f 97/1/2 98/1/2 101/1/2
f 101/1/2 98/1/2 102/1/2
f 99/3/2 100/3/2 103/3/2
f 103/3/2 100/3/2 104/3/2
f 101/3/2 102/3/2 107/3/2
f 107/3/2 102/3/2 108/3/2
f 104/1/2 105/1/2 109/1/2
f 109/1/2 105/1/2 110/1/2
f 106/1/2 107/1/2 111/1/2
f 111/1/2 107/1/2 112/1/2
f 113/1/2 114/1/2 118/1/2
f 118/1/2 114/1/2 119/1/2
f 115/1/2 116/1/2 120/1/2
f 120/1/2 116/1/2 121/1/2
f 117/3/2 118/3/2 123/3/2
f 123/3/2 118/3/2 124/3/2
f 121/3/2 122/3/2 125/3/2
f 125/3/2 122/3/2 126/3/2
f 123/1/2 124/1/2 127/1/2
f 127/1/2 124/1/2 128/1/2
f 125/1/2 126/1/2 129/1/2
f 129/1/2 126/1/2 130/1/2
f 127/3/2 128/3/2 131/3/2
f 131/3/2 128/3/2 132/3/2
f 129/3/2 130/3/2 135/3/2
f 135/3/2 130/3/2 136/3/2
f 132/1/2 133/1/2 137/1/2
f 137/1/2 133/1/2 138/1/2
f 134/1/2 135/1/2 139/1/2
f 139/1/2 135/1/2 140/1/2
f 141/1/2 142/1/2 144/1/2
f 144/1/2 142/1/2 145/1/2
f 143/3/2 144/3/2 147/3/2
f 147/3/2 144/3/2 148/3/2
f 145/3/2 146/3/2 149/3/2
f 149/3/2 146/3/2 150/3/2
f 147/1/2 148/1/2 151/1/2
f 151/1/2 148/1/2 152/1/2
f 149/1/2 150/1/2 153/1/2
f 153/1/2 150/1/2 154/1/2
f 151/3/2 152/3/2 155/3/2
f 155/3/2 152/3/2 156/3/2
f 153/3/2 154/3/2 157/3/2
f 157/3/2 154/3/2 158/3/2
f 156/1/2 157/1/2 159/1/2
f 159/1/2 157/1/2 160/1/2
f 161/3/2 162/3/2 163/3/2
f 163/3/2 162/3/2 164/3/2
f 163/1/2 164/1/2 165/1/2
f 165/1/2 164/1/2 166/1/2
f 165/3/2 166/3/2 167/3/2
f 167/3/2 166/3/2 168/3/2
f 173/3/3 170/3/3 169/3/3
f 174/1/3 171/1/3 170/1/3
f 174/3/3 170/3/3 173/3/3
f 175/3/3 172/3/3 171/3/3
f 175/1/3 171/1/3 174/1/3
f 176/3/3 172/3/3 175/3/3
f 182/3/3 178/3/3 177/3/3
f 183/1/3 179/1/3 178/1/3
f 183/3/3 178/3/3 182/3/3
f 184/3/3 180/3/3 179/3/3
f 184/1/3 179/1/3 183/1/3
f 185/3/3 180/3/3 184/3/3
f 187/1/3 182/1/3 181/1/3
f 188/1/3 182/1/3 187/1/3
f 191/1/3 186/1/3 185/1/3
f 192/1/3 186/1/3 191/1/3
f 193/3/3 189/3/3 188/3/3
f 194/1/3 190/1/3 189/1/3
f 194/3/3 189/3/3 193/3/3
f 195/3/3 191/3/3 190/3/3
f 195/1/3 190/1/3 194/1/3
f 196/3/3 191/3/3 195/3/3
f 202/3/3 198/3/3 197/3/3
f 203/1/3 199/1/3 198/1/3
f 203/3/3 198/3/3 202/3/3
f 204/3/3 200/3/3 199/3/3
f 204/1/3 199/1/3 203/1/3
f 205/3/3 200/3/3 204/3/3
f 207/1/3 202/1/3 201/1/3
f 208/1/3 202/1/3 207/1/3
f 209/1/3 206/1/3 205/1/3
f 210/1/3 206/1/3 209/1/3
f 215/1/3 212/1/3 211/1/3
f 216/1/3 212/1/3 215/1/3
f 219/1/3 214/1/3 213/1/3
f 220/1/3 214/1/3 219/1/3
f 221/3/3 217/3/3 216/3/3
f 222/1/3 218/1/3 217/1/3
f 222/3/3 217/3/3 221/3/3
f 223/3/3 219/3/3 218/3/3
f 223/1/3 218/1/3 222/1/3
f 224/3/3 219/3/3 223/3/3
f 230/3/3 226/3/3 225/3/3
f 231/1/3 227/1/3 226/1/3
f 231/3/3 226/3/3 230/3/3
f 232/3/3 228/3/3 227/3/3
f 232/1/3 227/1/3 231/1/3
f 233/3/3 228/3/3 232/3/3
f 235/1/3 230/1/3 229/1/3
f 236/1/3 230/1/3 235/1/3
f 237/1/3 234/1/3 233/1/3
f 238/1/3 234/1/3 237/1/3
f 243/1/3 240/1/3 239/1/3
f 244/1/3 240/1/3 243/1/3
f 247/1/3 242/1/3 241/1/3
f 248/1/3 242/1/3 247/1/3
f 249/3/3 245/3/3 244/3/3
f 250/1/3 246/1/3 245/1/3
f 250/3/3 245/3/3 249/3/3
f 251/3/3 247/3/3 246/3/3
f 251/1/3 246/1/3 250/1/3
f 252/3/3 247/3/3 251/3/3
f 253/3/4 254/3/4 258/3/4
f 254/1/4 255/1/4 259/1/4
f 258/3/4 254/3/4 259/3/4
f 255/3/4 256/3/4 260/3/4
f 259/1/4 255/1/4 260/1/4
f 260/3/4 256/3/4 261/3/4
f 257/1/4 258/1/4 263/1/4
f 263/1/4 258/1/4 264/1/4
f 261/1/4 262/1/4 265/1/4
f 265/1/4 262/1/4 266/1/4
f 267/1/4 268/1/4 271/1/4
f 271/1/4 268/1/4 272/1/4
f 269/1/4 270/1/4 275/1/4
f 275/1/4 270/1/4 276/1/4
f 272/3/4 273/3/4 277/3/4
f 273/1/4 274/1/4 278/1/4
f 277/3/4 273/3/4 278/3/4
f 274/3/4 275/3/4 279/3/4
f 278/1/4 274/1/4 279/1/4
f 279/3/4 275/3/4 280/3/4
f 281/3/4 282/3/4 286/3/4
f 282/1/4 283/1/4 287/1/4
f 286/3/4 282/3/4 287/3/4
f 283/3/4 284/3/4 288/3/4
f 287/1/4 283/1/4 288/1/4
f 288/3/4 284/3/4 289/3/4
f 285/1/4 286/1/4 291/1/4
f 291/1/4 286/1/4 292/1/4
f 289/1/4 290/1/4 293/1/4
f 293/1/4 290/1/4 294/1/4
f 295/1/4 296/1/4 299/1/4
f 299/1/4 296/1/4 300/1/4
f 297/1/4 298/1/4 303/1/4
f 303/1/4 298/1/4 304/1/4
f 300/3/4 301/3/4 305/3/4
f 301/1/4 302/1/4 306/1/4
f 305/3/4 301/3/4 306/3/4
f 302/3/4 303/3/4 307/3/4
f 306/1/4 302/1/4 307/1/4
f 307/3/4 303/3/4 308/3/4
f 309/3/4 310/3/4 314/3/4
f 310/1/4 311/1/4 315/1/4
f 314/3/4 310/3/4 315/3/4
f 311/3/4 312/3/4 316/3/4
f 315/1/4 311/1/4 316/1/4
f 316/3/4 312/3/4 317/3/4
f 313/1/4 314/1/4 319/1/4
f 319/1/4 314/1/4 320/1/4
f 317/1/4 318/1/4 323/1/4
f 323/1/4 318/1/4 324/1/4
f 320/3/4 321/3/4 325/3/4
f 321/1/4 322/1/4 326/1/4
f 325/3/4 321/3/4 326/3/4
f 322/3/4 323/3/4 327/3/4
f 326/1/4 322/1/4 327/1/4
f 327/3/4 323/3/4 328/3/4
f 329/3/4 330/3/4 333/3/4
f 330/1/4 331/1/4 334/1/4
f 333/3/4 330/3/4 334/3/4
f 331/3/4 332/3/4 335/3/4
f 334/1/4 331/1/4 335/1/4
f 335/3/4 332/3/4 336/3/4
f 340/1/5 338/1/5 337/1/5
f 341/1/5 338/1/5 340/1/5
f 344/1/5 340/1/5 339/1/5
f 344/1/5 342/1/5 341/1/5
f 344/1/5 341/1/5 340/1/5
f 345/1/5 342/1/5 344/1/5
f 347/1/5 344/1/5 343/1/5
f 347/1/5 346/1/5 345/1/5
f 347/1/5 345/1/5 344/1/5
f 348/1/5 346/1/5 347/1/5
f 349/1/5 346/1/5 348/1/5
f 350/1/5 346/1/5 349/1/5
f 351/1/5 349/1/5 348/1/5
f 352/1/5 349/1/5 351/1/5
f 353/1/5 349/1/5 352/1/5
f 354/1/5 349/1/5 353/1/5
f 355/1/5 353/1/5 352/1/5
f 356/1/5 353/1/5 355/1/5
f 360/3/5 358/3/5 357/3/5
f 361/3/5 358/3/5 360/3/5
f 364/3/5 360/3/5 359/3/5
f 365/3/5 360/3/5 364/3/5
f 366/3/5 362/3/5 361/3/5
f 367/3/5 362/3/5 366/3/5
f 370/3/5 364/3/5 363/3/5
f 371/3/5 364/3/5 370/3/5
f 372/3/5 368/3/5 367/3/5
f 373/3/5 368/3/5 372/3/5
f 375/3/5 370/3/5 369/3/5
f 376/3/5 370/3/5 375/3/5
f 379/3/5 374/3/5 373/3/5
f 380/3/5 374/3/5 379/3/5
f 381/3/5 377/3/5 376/3/5
f 382/3/5 377/3/5 381/3/5
f 385/3/5 379/3/5 378/3/5
f 386/3/5 379/3/5 385/3/5
f 387/3/5 383/3/5 382/3/5
f 388/3/5 383/3/5 387/3/5
f 389/3/5 385/3/5 384/3/5
f 390/3/5 385/3/5 389/3/5
f 391/3/5 389/3/5 388/3/5
f 392/3/5 389/3/5 391/3/5
f 393/3/6 394/3/6 396/3/6
f 396/3/6 394/3/6 397/3/6
f 395/3/6 396/3/6 400/3/6
f 400/3/6 396/3/6 401/3/6
f 397/3/6 398/3/6 402/3/6
f 402/3/6 398/3/6 403/3/6
f 399/3/6 400/3/6 406/3/6
f 406/3/6 400/3/6 407/3/6
f 403/3/6 404/3/6 408/3/6
f 408/3/6 404/3/6 409/3/6
f 405/3/6 406/3/6 411/3/6
f 411/3/6 406/3/6 412/3/6
f 409/3/6 410/3/6 415/3/6
f 415/3/6 410/3/6 416/3/6
f 412/3/6 413/3/6 417/3/6
f 417/3/6 413/3/6 418/3/6
f 414/3/6 415/3/6 421/3/6
f 421/3/6 415/3/6 422/3/6
f 418/3/6 419/3/6 423/3/6
f 423/3/6 419/3/6 424/3/6
f 420/3/6 421/3/6 425/3/6
f 425/3/6 421/3/6 426/3/6
f 424/3/6 425/3/6 427/3/6
f 427/3/6 425/3/6 428/3/6
f 429/1/6 430/1/6 432/1/6
f 432/1/6 430/1/6 433/1/6
f 431/1/6 432/1/6 436/1/6
f 433/1/6 434/1/6 436/1/6
f 432/1/6 433/1/6 436/1/6
f 436/1/6 434/1/6 437/1/6
f 435/1/6 436/1/6 439/1/6
f 437/1/6 438/1/6 439/1/6
f 436/1/6 437/1/6 439/1/6
f 439/1/6 438/1/6 440/1/6
f 440/1/6 438/1/6 441/1/6
f 441/1/6 438/1/6 442/1/6
f 440/1/6 441/1/6 443/1/6
f 443/1/6 441/1/6 444/1/6
f 444/1/6 441/1/6 445/1/6
f 445/1/6 441/1/6 446/1/6
f 444/1/6 445/1/6 447/1/6
f 447/1/6 445/1/6 448/1/6
