# MagicaVoxel @ ephtracy

# material
mtllib dagger.mtl
usemtl palette

# normals
vn -1 0 0
vn 1 0 0
vn 0 0 1
vn 0 0 -1
vn 0 -1 0
vn 0 1 0

# texcoords
vt 0.958984 0.5
vt 0.962891 0.5
vt 0.978516 0.5
vt 0.982422 0.5
vt 0.986328 0.5

# verts
v -2 1 0.5
v -2 1 -0.5
v -2 2 0.5
v -2 2 -0.5
v -2 3 0.5
v -2 3 -0.5
v -2 9 0.5
v -2 9 -0.5
v -2 10 0.5
v -2 10 -0.5
v -1 0 0.5
v -1 0 -0.5
v -1 1 0.5
v -1 1 -0.5
v 0 4 0.5
v 0 4 -0.5
v 0 5 0.5
v 0 5 -0.5
v 0 6 0.5
v 0 6 -0.5
v 0 7 0.5
v 0 7 -0.5
v -1 4 0.5
v -1 4 -0.5
v -1 5 0.5
v -1 5 -0.5
v -1 6 0.5
v -1 6 -0.5
v -1 7 0.5
v -1 7 -0.5
v -1 9 0.5
v -1 9 -0.5
v -1 10 0.5
v -1 10 -0.5
v 0 0 0.5
v 0 0 -0.5
v 0 1 0.5
v 0 1 -0.5
v 0 8 0.5
v 0 8 -0.5
v 0 9 0.5
v 0 9 -0.5
v 1 1 0.5
v 1 1 -0.5
v 1 2 0.5
v 1 2 -0.5
v 1 3 0.5
v 1 3 -0.5
v 1 8 0.5
v 1 8 -0.5
v -2 1 0.5
v -2 2 0.5
v -2 3 0.5
v -2 9 0.5
v -2 10 0.5
v -1 0 0.5
v -1 1 0.5
v -1 2 0.5
v -1 3 0.5
v -1 4 0.5
v -1 5 0.5
v -1 6 0.5
v -1 7 0.5
v -1 8 0.5
v -1 9 0.5
v -1 10 0.5
v 0 0 0.5
v 0 1 0.5
v 0 2 0.5
v 0 3 0.5
v 0 4 0.5
v 0 5 0.5
v 0 6 0.5
v 0 7 0.5
v 0 8 0.5
v 0 9 0.5
v 1 1 0.5
v 1 2 0.5
v 1 3 0.5
v 1 8 0.5
v -2 1 -0.5
v -2 2 -0.5
v -2 3 -0.5
v -2 9 -0.5
v -2 10 -0.5
v -1 0 -0.5
v -1 1 -0.5
v -1 2 -0.5
v -1 3 -0.5
v -1 4 -0.5
v -1 5 -0.5
v -1 6 -0.5
v -1 7 -0.5
v -1 8 -0.5
v -1 9 -0.5
v -1 10 -0.5
v 0 0 -0.5
v 0 1 -0.5
v 0 2 -0.5
v 0 3 -0.5
v 0 4 -0.5
v 0 5 -0.5
v 0 6 -0.5
v 0 7 -0.5
v 0 8 -0.5
v 0 9 -0.5
v 1 1 -0.5
v 1 2 -0.5
v 1 3 -0.5
v 1 8 -0.5
v -1 0 0.5
v 0 0 0.5
v -1 0 -0.5
v 0 0 -0.5
v -2 1 0.5
v -1 1 0.5
v 0 1 0.5
v 1 1 0.5
v -2 1 -0.5
v -1 1 -0.5
v 0 1 -0.5
v 1 1 -0.5
v -1 5 0.5
v 0 5 0.5
v -1 5 -0.5
v 0 5 -0.5
v -1 7 0.5
v 0 7 0.5
v -1 7 -0.5
v 0 7 -0.5
v -1 4 0.5
v 0 4 0.5
v -1 4 -0.5
v 0 4 -0.5
v -1 6 0.5
v 0 6 0.5
v -1 6 -0.5
v 0 6 -0.5
v 0 8 0.5
v 1 8 0.5
v 0 8 -0.5
v 1 8 -0.5
v -1 9 0.5
v 0 9 0.5
v -1 9 -0.5
v 0 9 -0.5
v -2 10 0.5
v -1 10 0.5
v -2 10 -0.5
v -1 10 -0.5

# faces
f 3/3/1 2/3/1 1/3/1
f 4/3/1 2/3/1 3/3/1
f 5/4/1 4/4/1 3/4/1
f 6/4/1 4/4/1 5/4/1
f 7/2/1 6/2/1 5/2/1
f 8/2/1 6/2/1 7/2/1
f 9/1/1 8/1/1 7/1/1
f 10/1/1 8/1/1 9/1/1
f 13/5/1 12/5/1 11/5/1
f 14/5/1 12/5/1 13/5/1
f 17/1/1 16/1/1 15/1/1
f 18/1/1 16/1/1 17/1/1
f 21/1/1 20/1/1 19/1/1
f 22/1/1 20/1/1 21/1/1
f 23/2/2 24/2/2 25/2/2
f 25/2/2 24/2/2 26/2/2
f 27/2/2 28/2/2 29/2/2
f 29/2/2 28/2/2 30/2/2
f 31/1/2 32/1/2 33/1/2
f 33/1/2 32/1/2 34/1/2
f 35/5/2 36/5/2 37/5/2
f 37/5/2 36/5/2 38/5/2
f 39/1/2 40/1/2 41/1/2
f 41/1/2 40/1/2 42/1/2
f 43/3/2 44/3/2 45/3/2
f 45/3/2 44/3/2 46/3/2
f 45/4/2 46/4/2 47/4/2
f 47/4/2 46/4/2 48/4/2
f 47/1/2 48/1/2 49/1/2
f 49/1/2 48/1/2 50/1/2
f 57/3/3 52/3/3 51/3/3
f 58/4/3 53/4/3 52/4/3
f 58/3/3 52/3/3 57/3/3
f 59/2/3 54/2/3 53/2/3
f 59/4/3 53/4/3 58/4/3
f 60/2/3 54/2/3 59/2/3
f 61/2/3 54/2/3 60/2/3
f 62/2/3 54/2/3 61/2/3
f 63/2/3 54/2/3 62/2/3
f 64/2/3 54/2/3 63/2/3
f 65/1/3 55/1/3 54/1/3
f 65/2/3 54/2/3 64/2/3
f 66/1/3 55/1/3 65/1/3
f 67/5/3 57/5/3 56/5/3
f 68/3/3 58/3/3 57/3/3
f 68/5/3 57/5/3 67/5/3
f 69/2/3 59/2/3 58/2/3
f 69/3/3 58/3/3 68/3/3
f 69/2/3 60/2/3 59/2/3
f 70/2/3 60/2/3 69/2/3
f 71/2/3 60/2/3 70/2/3
f 72/2/3 62/2/3 61/2/3
f 73/2/3 62/2/3 72/2/3
f 74/2/3 64/2/3 63/2/3
f 75/1/3 65/1/3 64/1/3
f 75/2/3 64/2/3 74/2/3
f 76/1/3 65/1/3 75/1/3
f 77/3/3 69/3/3 68/3/3
f 78/4/3 70/4/3 69/4/3
f 78/3/3 69/3/3 77/3/3
f 79/1/3 73/1/3 72/1/3
f 79/4/3 70/4/3 78/4/3
f 79/1/3 71/1/3 70/1/3
f 79/1/3 74/1/3 73/1/3
f 79/1/3 72/1/3 71/1/3
f 79/1/3 75/1/3 74/1/3
f 80/1/3 75/1/3 79/1/3
f 81/3/4 82/3/4 87/3/4
f 82/4/4 83/4/4 88/4/4
f 87/3/4 82/3/4 88/3/4
f 83/2/4 84/2/4 89/2/4
f 88/4/4 83/4/4 89/4/4
f 89/2/4 84/2/4 90/2/4
f 90/2/4 84/2/4 91/2/4
f 91/2/4 84/2/4 92/2/4
f 92/2/4 84/2/4 93/2/4
f 93/2/4 84/2/4 94/2/4
f 84/1/4 85/1/4 95/1/4
f 94/2/4 84/2/4 95/2/4
f 95/1/4 85/1/4 96/1/4
f 86/5/4 87/5/4 97/5/4
f 87/3/4 88/3/4 98/3/4
f 97/5/4 87/5/4 98/5/4
f 88/2/4 89/2/4 99/2/4
f 98/3/4 88/3/4 99/3/4
f 89/2/4 90/2/4 99/2/4
f 99/2/4 90/2/4 100/2/4
f 100/2/4 90/2/4 101/2/4
f 91/2/4 92/2/4 102/2/4
f 102/2/4 92/2/4 103/2/4
f 93/2/4 94/2/4 104/2/4
f 94/1/4 95/1/4 105/1/4
f 104/2/4 94/2/4 105/2/4
f 105/1/4 95/1/4 106/1/4
f 98/3/4 99/3/4 107/3/4
f 99/4/4 100/4/4 108/4/4
f 107/3/4 99/3/4 108/3/4
f 102/1/4 103/1/4 109/1/4
f 108/4/4 100/4/4 109/4/4
f 100/1/4 101/1/4 109/1/4
f 103/1/4 104/1/4 109/1/4
f 101/1/4 102/1/4 109/1/4
f 104/1/4 105/1/4 109/1/4
f 109/1/4 105/1/4 110/1/4
f 113/5/5 112/5/5 111/5/5
f 114/5/5 112/5/5 113/5/5
f 119/3/5 116/3/5 115/3/5
f 120/3/5 116/3/5 119/3/5
f 121/3/5 118/3/5 117/3/5
f 122/3/5 118/3/5 121/3/5
f 125/2/5 124/2/5 123/2/5
f 126/2/5 124/2/5 125/2/5
f 129/2/5 128/2/5 127/2/5
f 130/2/5 128/2/5 129/2/5
f 131/2/6 132/2/6 133/2/6
f 133/2/6 132/2/6 134/2/6
f 135/2/6 136/2/6 137/2/6
f 137/2/6 136/2/6 138/2/6
f 139/1/6 140/1/6 141/1/6
f 141/1/6 140/1/6 142/1/6
f 143/1/6 144/1/6 145/1/6
f 145/1/6 144/1/6 146/1/6
f 147/1/6 148/1/6 149/1/6
f 149/1/6 148/1/6 150/1/6
