# MagicaVoxel @ ephtracy

# material
mtllib girlHead.mtl
usemtl palette

# normals
vn -1 0 0
vn 1 0 0
vn 0 0 1
vn 0 0 -1
vn 0 -1 0
vn 0 1 0

# texcoords
vt 0.0332031 0.5
vt 0.634766 0.5
vt 0.853516 0.5
vt 0.857422 0.5
vt 0.994141 0.5

# verts
v -4 8 0.5
v -4 8 -0.5
v -4 8 -1.5
v -4 8 -2.5
v -4 9 0.5
v -4 9 -0.5
v -4 9 -1.5
v -4 11 0.5
v -4 11 -2.5
v -3 7 0.5
v -3 7 -0.5
v -3 7 -2.5
v -3 8 1.5
v -3 8 0.5
v -3 8 -0.5
v -3 8 -1.5
v -3 8 -2.5
v -3 8 -3.5
v -3 9 0.5
v -3 9 -0.5
v -3 9 -1.5
v -3 10 1.5
v -3 10 0.5
v -3 11 0.5
v -3 11 -2.5
v -3 11 -3.5
v -3 12 1.5
v -3 12 -2.5
v -2 7 1.5
v -2 7 0.5
v -2 7 -2.5
v -2 7 -3.5
v -2 8 1.5
v -2 8 0.5
v -2 8 -2.5
v -2 8 -3.5
v -2 9 -3.5
v -2 9 -4.5
v -2 10 2.5
v -2 10 1.5
v -2 11 2.5
v -2 11 1.5
v -2 11 -2.5
v -2 11 -3.5
v -2 11 -4.5
v -2 12 1.5
v -2 12 -2.5
v -2 12 -3.5
v -2 13 1.5
v -2 13 -2.5
v -1 6 -2.5
v -1 6 -3.5
v -1 7 -2.5
v -1 7 -3.5
v -1 8 -3.5
v -1 8 -4.5
v -1 9 -3.5
v -1 9 -4.5
v -1 11 2.5
v -1 11 1.5
v -1 11 -3.5
v -1 11 -4.5
v -1 12 2.5
v -1 12 1.5
v -1 12 -2.5
v -1 12 -3.5
v -1 12 -4.5
v -1 13 -2.5
v -1 13 -3.5
v 0 10 3.5
v 0 10 2.5
v 0 11 3.5
v 0 11 2.5
v 0 12 2.5
v 0 12 1.5
v 0 13 2.5
v 0 13 1.5
v 1 5 -2.5
v 1 5 -3.5
v 1 6 -2.5
v 1 6 -3.5
v 1 11 -3.5
v 1 11 -4.5
v 1 12 2.5
v 1 12 1.5
v 1 12 -2.5
v 1 12 -3.5
v 1 12 -4.5
v 1 13 2.5
v 1 13 1.5
v 1 13 -2.5
v 1 13 -3.5
v 2 5 -2.5
v 2 5 -3.5
v 2 7 1.5
v 2 7 0.5
v 2 7 -2.5
v 2 7 -3.5
v 2 8 1.5
v 2 8 0.5
v 2 8 -3.5
v 2 8 -4.5
v 2 10 3.5
v 2 10 2.5
v 2 11 3.5
v 2 11 2.5
v 2 11 -2.5
v 2 11 -3.5
v 2 11 -4.5
v 2 12 1.5
v 2 12 -2.5
v 2 12 -3.5
v 2 13 1.5
v 2 13 -2.5
v 3 7 0.5
v 3 7 -0.5
v 3 7 -2.5
v 3 7 -3.5
v 3 8 1.5
v 3 8 0.5
v 3 8 -0.5
v 3 8 -2.5
v 3 9 0.5
v 3 9 -0.5
v 3 10 1.5
v 3 10 0.5
v 3 10 -0.5
v 3 11 2.5
v 3 11 0.5
v 3 11 -2.5
v 3 11 -3.5
v 3 12 2.5
v 3 12 -2.5
v 4 8 0.5
v 4 8 -0.5
v 4 9 0.5
v 4 9 -0.5
v 4 10 2.5
v 4 10 0.5
v 4 10 -0.5
v 4 11 2.5
v 4 11 0.5
v 0 10 3.5
v 0 11 3.5
v 2 10 3.5
v 2 11 3.5
v -2 10 2.5
v -2 11 2.5
v -1 11 2.5
v -1 12 2.5
v 0 10 2.5
v 0 11 2.5
v 0 12 2.5
v 0 13 2.5
v 1 12 2.5
v 1 13 2.5
v 2 10 2.5
v 2 11 2.5
v 2 12 2.5
v 3 10 2.5
v 3 11 2.5
v 3 12 2.5
v 4 10 2.5
v 4 11 2.5
v -3 8 1.5
v -3 10 1.5
v -3 12 1.5
v -2 7 1.5
v -2 8 1.5
v -2 9 1.5
v -2 10 1.5
v -2 11 1.5
v -2 12 1.5
v -2 13 1.5
v -1 8 1.5
v -1 9 1.5
v -1 11 1.5
v -1 12 1.5
v 0 10 1.5
v 0 12 1.5
v 0 13 1.5
v 1 8 1.5
v 1 9 1.5
v 1 12 1.5
v 1 13 1.5
v 2 7 1.5
v 2 8 1.5
v 2 9 1.5
v 2 10 1.5
v 2 12 1.5
v 2 13 1.5
v 3 8 1.5
v 3 10 1.5
v -4 8 0.5
v -4 9 0.5
v -4 11 0.5
v -3 7 0.5
v -3 8 0.5
v -3 9 0.5
v -3 10 0.5
v -3 11 0.5
v -2 7 0.5
v -2 8 0.5
v 2 7 0.5
v 2 8 0.5
v 3 7 0.5
v 3 8 0.5
v 3 9 0.5
v 3 10 0.5
v 4 8 0.5
v 4 9 0.5
v 4 10 0.5
v -4 8 -1.5
v -4 9 -1.5
v -3 8 -1.5
v -3 9 -1.5
v -1 6 -2.5
v -1 7 -2.5
v 1 5 -2.5
v 1 6 -2.5
v 2 5 -2.5
v 2 7 -2.5
v 3 10 0.5
v 3 11 0.5
v 4 10 0.5
v 4 11 0.5
v -4 8 -0.5
v -4 9 -0.5
v -3 8 -0.5
v -3 9 -0.5
v 3 8 -0.5
v 3 9 -0.5
v 3 10 -0.5
v 4 8 -0.5
v 4 9 -0.5
v 4 10 -0.5
v -4 8 -2.5
v -4 11 -2.5
v -3 7 -2.5
v -3 8 -2.5
v -3 11 -2.5
v -3 12 -2.5
v -2 7 -2.5
v -2 8 -2.5
v -2 11 -2.5
v -2 12 -2.5
v -2 13 -2.5
v -1 12 -2.5
v -1 13 -2.5
v 1 12 -2.5
v 1 13 -2.5
v 2 11 -2.5
v 2 12 -2.5
v 2 13 -2.5
v 3 11 -2.5
v 3 12 -2.5
v -3 8 -3.5
v -3 11 -3.5
v -2 7 -3.5
v -2 8 -3.5
v -2 9 -3.5
v -2 11 -3.5
v -2 12 -3.5
v -1 6 -3.5
v -1 7 -3.5
v -1 8 -3.5
v -1 9 -3.5
v -1 11 -3.5
v -1 12 -3.5
v -1 13 -3.5
v 1 5 -3.5
v 1 6 -3.5
v 1 8 -3.5
v 1 11 -3.5
v 1 12 -3.5
v 1 13 -3.5
v 2 5 -3.5
v 2 7 -3.5
v 2 8 -3.5
v 2 11 -3.5
v 2 12 -3.5
v 3 7 -3.5
v 3 11 -3.5
v -2 9 -4.5
v -2 11 -4.5
v -1 8 -4.5
v -1 9 -4.5
v -1 11 -4.5
v -1 12 -4.5
v 1 8 -4.5
v 1 11 -4.5
v 1 12 -4.5
v 2 8 -4.5
v 2 11 -4.5
v 1 5 -2.5
v 2 5 -2.5
v 1 5 -3.5
v 2 5 -3.5
v -1 6 -2.5
v 1 6 -2.5
v -1 6 -3.5
v 1 6 -3.5
v -2 7 1.5
v 2 7 1.5
v -3 7 0.5
v -2 7 0.5
v 2 7 0.5
v 3 7 0.5
v -3 7 -0.5
v -2 7 -0.5
v 2 7 -0.5
v 3 7 -0.5
v -3 7 -2.5
v -2 7 -2.5
v -1 7 -2.5
v 2 7 -2.5
v 3 7 -2.5
v -2 7 -3.5
v -1 7 -3.5
v 2 7 -3.5
v 3 7 -3.5
v -3 8 1.5
v -2 8 1.5
v 2 8 1.5
v 3 8 1.5
v -4 8 0.5
v -3 8 0.5
v -2 8 0.5
v 2 8 0.5
v 3 8 0.5
v 4 8 0.5
v -4 8 -0.5
v -3 8 -0.5
v 3 8 -0.5
v 4 8 -0.5
v -4 8 -1.5
v -3 8 -1.5
v -4 8 -2.5
v -3 8 -2.5
v -2 8 -2.5
v -3 8 -3.5
v -2 8 -3.5
v -1 8 -3.5
v 1 8 -3.5
v 2 8 -3.5
v -1 8 -4.5
v 1 8 -4.5
v 2 8 -4.5
v -4 9 -0.5
v -3 9 -0.5
v -4 9 -1.5
v -3 9 -1.5
v -2 9 -3.5
v -1 9 -3.5
v -2 9 -4.5
v -1 9 -4.5
v 0 10 3.5
v 2 10 3.5
v -2 10 2.5
v 0 10 2.5
v 2 10 2.5
v 3 10 2.5
v 4 10 2.5
v -2 10 1.5
v 0 10 1.5
v 2 10 1.5
v 3 10 1.5
v 3 10 0.5
v 4 10 0.5
v 3 10 0.5
v 4 10 0.5
v 3 10 -0.5
v 4 10 -0.5
v 0 11 3.5
v 2 11 3.5
v -2 11 2.5
v -1 11 2.5
v 0 11 2.5
v 2 11 2.5
v 3 11 2.5
v 4 11 2.5
v -2 11 1.5
v -1 11 1.5
v -4 11 0.5
v -3 11 0.5
v 3 11 0.5
v 4 11 0.5
v -4 11 -2.5
v -3 11 -2.5
v -2 11 -2.5
v 2 11 -2.5
v 3 11 -2.5
v -3 11 -3.5
v -2 11 -3.5
v -1 11 -3.5
v 1 11 -3.5
v 2 11 -3.5
v 3 11 -3.5
v -2 11 -4.5
v -1 11 -4.5
v 1 11 -4.5
v 2 11 -4.5
v -1 12 2.5
v 0 12 2.5
v 1 12 2.5
v 2 12 2.5
v 3 12 2.5
v -3 12 1.5
v -2 12 1.5
v -1 12 1.5
v 0 12 1.5
v 1 12 1.5
v 2 12 1.5
v -3 12 -2.5
v -2 12 -2.5
v -1 12 -2.5
v 1 12 -2.5
v 2 12 -2.5
v 3 12 -2.5
v -2 12 -3.5
v -1 12 -3.5
v 1 12 -3.5
v 2 12 -3.5
v -1 12 -4.5
v 1 12 -4.5
v 0 13 2.5
v 1 13 2.5
v -2 13 1.5
v 0 13 1.5
v 1 13 1.5
v 2 13 1.5
v -2 13 -2.5
v -1 13 -2.5
v 1 13 -2.5
v 2 13 -2.5
v -1 13 -3.5
v 1 13 -3.5

# faces
f 5/1/1 2/1/1 1/1/1
f 6/1/1 2/1/1 5/1/1
f 7/4/1 4/4/1 3/4/1
f 8/4/1 6/4/1 5/4/1
f 8/4/1 7/4/1 6/4/1
f 9/4/1 4/4/1 7/4/1
f 9/4/1 7/4/1 8/4/1
f 14/1/1 11/1/1 10/1/1
f 15/3/1 12/3/1 11/3/1
f 15/1/1 11/1/1 14/1/1
f 16/3/1 12/3/1 15/3/1
f 17/3/1 12/3/1 16/3/1
f 19/3/1 14/3/1 13/3/1
f 20/4/1 16/4/1 15/4/1
f 21/4/1 16/4/1 20/4/1
f 22/3/1 19/3/1 13/3/1
f 23/3/1 19/3/1 22/3/1
f 24/4/1 23/4/1 22/4/1
f 25/4/1 18/4/1 17/4/1
f 26/4/1 18/4/1 25/4/1
f 27/4/1 24/4/1 22/4/1
f 27/4/1 25/4/1 24/4/1
f 28/4/1 25/4/1 27/4/1
f 33/1/1 30/1/1 29/1/1
f 34/1/1 30/1/1 33/1/1
f 35/4/1 32/4/1 31/4/1
f 36/4/1 32/4/1 35/4/1
f 41/3/1 40/3/1 39/3/1
f 42/3/1 40/3/1 41/3/1
f 44/3/1 38/3/1 37/3/1
f 45/3/1 38/3/1 44/3/1
f 47/4/1 44/4/1 43/4/1
f 48/4/1 44/4/1 47/4/1
f 49/4/1 47/4/1 46/4/1
f 50/4/1 47/4/1 49/4/1
f 53/4/1 52/4/1 51/4/1
f 54/4/1 52/4/1 53/4/1
f 57/4/1 56/4/1 55/4/1
f 58/4/1 56/4/1 57/4/1
f 63/3/1 60/3/1 59/3/1
f 64/3/1 60/3/1 63/3/1
f 66/4/1 62/4/1 61/4/1
f 67/4/1 62/4/1 66/4/1
f 68/4/1 66/4/1 65/4/1
f 69/4/1 66/4/1 68/4/1
f 72/3/1 71/3/1 70/3/1
f 73/3/1 71/3/1 72/3/1
f 76/4/1 75/4/1 74/4/1
f 77/4/1 75/4/1 76/4/1
f 80/4/1 79/4/1 78/4/1
f 81/4/1 79/4/1 80/4/1
f 82/4/2 83/4/2 87/4/2
f 87/4/2 83/4/2 88/4/2
f 84/4/2 85/4/2 89/4/2
f 89/4/2 85/4/2 90/4/2
f 86/4/2 87/4/2 91/4/2
f 91/4/2 87/4/2 92/4/2
f 93/4/2 94/4/2 97/4/2
f 97/4/2 94/4/2 98/4/2
f 95/1/2 96/1/2 99/1/2
f 99/1/2 96/1/2 100/1/2
f 103/3/2 104/3/2 105/3/2
f 105/3/2 104/3/2 106/3/2
f 101/3/2 102/3/2 108/3/2
f 108/3/2 102/3/2 109/3/2
f 107/4/2 108/4/2 111/4/2
f 111/4/2 108/4/2 112/4/2
f 110/4/2 111/4/2 113/4/2
f 113/4/2 111/4/2 114/4/2
f 115/1/2 116/1/2 120/1/2
f 116/3/2 117/3/2 121/3/2
f 120/1/2 116/1/2 121/1/2
f 117/4/2 118/4/2 122/4/2
f 121/3/2 117/3/2 122/3/2
f 119/3/2 120/3/2 123/3/2
f 121/4/2 122/4/2 124/4/2
f 119/3/2 123/3/2 125/3/2
f 125/3/2 123/3/2 126/3/2
f 124/4/2 122/4/2 127/4/2
f 126/4/2 127/4/2 129/4/2
f 122/4/2 118/4/2 130/4/2
f 127/4/2 122/4/2 130/4/2
f 129/4/2 127/4/2 130/4/2
f 130/4/2 118/4/2 131/4/2
f 128/4/2 129/4/2 132/4/2
f 129/4/2 130/4/2 132/4/2
f 132/4/2 130/4/2 133/4/2
f 134/1/2 135/1/2 136/1/2
f 136/1/2 135/1/2 137/1/2
f 136/4/2 137/4/2 139/4/2
f 139/4/2 137/4/2 140/4/2
f 138/4/2 139/4/2 141/4/2
f 141/4/2 139/4/2 142/4/2
f 145/3/3 144/3/3 143/3/3
f 146/3/3 144/3/3 145/3/3
f 149/3/3 148/3/3 147/3/3
f 151/3/3 149/3/3 147/3/3
f 151/3/3 150/3/3 149/3/3
f 152/3/3 150/3/3 151/3/3
f 153/3/3 150/3/3 152/3/3
f 155/4/3 154/4/3 153/4/3
f 155/3/3 153/3/3 152/3/3
f 156/4/3 154/4/3 155/4/3
f 158/3/3 155/3/3 152/3/3
f 159/3/3 155/3/3 158/3/3
f 160/3/3 158/3/3 157/3/3
f 161/4/3 159/4/3 158/4/3
f 161/3/3 158/3/3 160/3/3
f 162/4/3 159/4/3 161/4/3
f 163/4/3 161/4/3 160/4/3
f 164/4/3 161/4/3 163/4/3
f 169/3/3 166/3/3 165/3/3
f 170/3/3 166/3/3 169/3/3
f 171/4/3 167/4/3 166/4/3
f 171/3/3 166/3/3 170/3/3
f 172/4/3 167/4/3 171/4/3
f 173/4/3 167/4/3 172/4/3
f 175/5/3 170/5/3 169/5/3
f 175/1/3 169/1/3 168/1/3
f 176/1/3 171/1/3 170/1/3
f 176/5/3 170/5/3 175/5/3
f 177/4/3 174/4/3 173/4/3
f 177/4/3 173/4/3 172/4/3
f 178/4/3 174/4/3 177/4/3
f 179/1/3 171/1/3 176/1/3
f 179/1/3 176/1/3 175/1/3
f 180/4/3 174/4/3 178/4/3
f 181/4/3 174/4/3 180/4/3
f 182/1/3 179/1/3 175/1/3
f 182/1/3 175/1/3 168/1/3
f 183/1/3 179/1/3 182/1/3
f 186/1/3 182/1/3 168/1/3
f 187/5/3 183/5/3 182/5/3
f 187/1/3 182/1/3 186/1/3
f 188/1/3 179/1/3 183/1/3
f 188/5/3 183/5/3 187/5/3
f 189/1/3 179/1/3 188/1/3
f 190/4/3 185/4/3 184/4/3
f 191/4/3 185/4/3 190/4/3
f 192/3/3 189/3/3 188/3/3
f 192/3/3 188/3/3 187/3/3
f 193/3/3 189/3/3 192/3/3
f 198/1/3 195/1/3 194/1/3
f 199/4/3 196/4/3 195/4/3
f 199/1/3 195/1/3 198/1/3
f 200/4/3 196/4/3 199/4/3
f 201/4/3 196/4/3 200/4/3
f 202/1/3 198/1/3 197/1/3
f 203/1/3 198/1/3 202/1/3
f 206/1/3 205/1/3 204/1/3
f 207/1/3 205/1/3 206/1/3
f 210/1/3 208/1/3 207/1/3
f 211/4/3 209/4/3 208/4/3
f 211/1/3 208/1/3 210/1/3
f 212/4/3 209/4/3 211/4/3
f 215/4/3 214/4/3 213/4/3
f 216/4/3 214/4/3 215/4/3
f 220/4/3 218/4/3 217/4/3
f 221/4/3 220/4/3 219/4/3
f 222/4/3 218/4/3 220/4/3
f 222/4/3 220/4/3 221/4/3
f 223/4/4 224/4/4 225/4/4
f 225/4/4 224/4/4 226/4/4
f 227/1/4 228/1/4 229/1/4
f 229/1/4 228/1/4 230/1/4
f 231/1/4 232/1/4 234/1/4
f 232/4/4 233/4/4 235/4/4
f 234/1/4 232/1/4 235/1/4
f 235/4/4 233/4/4 236/4/4
f 237/4/4 238/4/4 240/4/4
f 240/4/4 238/4/4 241/4/4
f 239/3/4 240/3/4 243/3/4
f 243/3/4 240/3/4 244/3/4
f 241/4/4 242/4/4 245/4/4
f 245/4/4 242/4/4 246/4/4
f 246/4/4 247/4/4 248/4/4
f 248/4/4 247/4/4 249/4/4
f 250/4/4 251/4/4 253/4/4
f 253/4/4 251/4/4 254/4/4
f 252/4/4 253/4/4 255/4/4
f 255/4/4 253/4/4 256/4/4
f 257/4/4 258/4/4 260/4/4
f 260/4/4 258/4/4 261/4/4
f 261/4/4 258/4/4 262/4/4
f 259/4/4 260/4/4 265/4/4
f 260/4/4 261/4/4 265/4/4
f 265/4/4 261/4/4 266/4/4
f 266/4/4 261/4/4 267/4/4
f 262/4/4 263/4/4 268/4/4
f 268/4/4 263/4/4 269/4/4
f 264/4/4 265/4/4 272/4/4
f 265/4/4 266/4/4 272/4/4
f 272/4/4 266/4/4 273/4/4
f 269/4/4 270/4/4 275/4/4
f 275/4/4 270/4/4 276/4/4
f 272/4/4 273/4/4 277/4/4
f 271/4/4 272/4/4 277/4/4
f 277/4/4 273/4/4 278/4/4
f 278/4/4 273/4/4 279/4/4
f 274/4/4 275/4/4 280/4/4
f 280/4/4 275/4/4 281/4/4
f 278/4/4 279/4/4 282/4/4
f 279/4/4 280/4/4 282/4/4
f 282/4/4 280/4/4 283/4/4
f 284/3/4 285/3/4 287/3/4
f 287/3/4 285/3/4 288/3/4
f 286/4/4 287/4/4 290/4/4
f 288/4/4 289/4/4 290/4/4
f 287/4/4 288/4/4 290/4/4
f 290/4/4 289/4/4 291/4/4
f 291/4/4 289/4/4 292/4/4
f 290/3/4 291/3/4 293/3/4
f 293/3/4 291/3/4 294/3/4
f 297/4/5 296/4/5 295/4/5
f 298/4/5 296/4/5 297/4/5
f 301/4/5 300/4/5 299/4/5
f 302/4/5 300/4/5 301/4/5
f 306/1/5 304/1/5 303/1/5
f 307/1/5 304/1/5 306/1/5
f 309/1/5 306/1/5 305/1/5
f 309/1/5 308/1/5 307/1/5
f 309/1/5 307/1/5 306/1/5
f 310/1/5 308/1/5 309/1/5
f 311/1/5 308/1/5 310/1/5
f 312/1/5 308/1/5 311/1/5
f 313/3/5 310/3/5 309/3/5
f 314/1/5 311/1/5 310/1/5
f 314/3/5 310/3/5 313/3/5
f 315/1/5 311/1/5 314/1/5
f 316/3/5 312/3/5 311/3/5
f 316/1/5 311/1/5 315/1/5
f 317/3/5 312/3/5 316/3/5
f 318/4/5 315/4/5 314/4/5
f 319/4/5 315/4/5 318/4/5
f 320/4/5 317/4/5 316/4/5
f 321/4/5 317/4/5 320/4/5
f 327/3/5 323/3/5 322/3/5
f 328/3/5 323/3/5 327/3/5
f 329/3/5 325/3/5 324/3/5
f 330/3/5 325/3/5 329/3/5
f 332/1/5 327/1/5 326/1/5
f 333/1/5 327/1/5 332/1/5
f 334/1/5 331/1/5 330/1/5
f 335/1/5 331/1/5 334/1/5
f 338/4/5 337/4/5 336/4/5
f 339/4/5 337/4/5 338/4/5
f 341/4/5 340/4/5 339/4/5
f 342/4/5 340/4/5 341/4/5
f 346/4/5 344/4/5 343/4/5
f 347/3/5 345/3/5 344/3/5
f 347/4/5 344/4/5 346/4/5
f 348/3/5 345/3/5 347/3/5
f 351/4/5 350/4/5 349/4/5
f 352/4/5 350/4/5 351/4/5
f 355/3/5 354/3/5 353/3/5
f 356/3/5 354/3/5 355/3/5
f 360/3/5 358/3/5 357/3/5
f 361/3/5 358/3/5 360/3/5
f 364/3/5 360/3/5 359/3/5
f 365/4/5 361/4/5 360/4/5
f 365/3/5 360/3/5 364/3/5
f 366/3/5 362/3/5 361/3/5
f 366/4/5 361/4/5 365/4/5
f 367/4/5 363/4/5 362/4/5
f 367/3/5 362/3/5 366/3/5
f 368/4/5 363/4/5 367/4/5
f 369/4/5 363/4/5 368/4/5
f 370/4/6 371/4/6 372/4/6
f 372/4/6 371/4/6 373/4/6
f 374/3/6 375/3/6 378/3/6
f 378/3/6 375/3/6 379/3/6
f 376/3/6 377/3/6 382/3/6
f 382/3/6 377/3/6 383/3/6
f 380/4/6 381/4/6 386/4/6
f 386/4/6 381/4/6 387/4/6
f 384/4/6 385/4/6 388/4/6
f 388/4/6 385/4/6 389/4/6
f 389/4/6 390/4/6 393/4/6
f 393/4/6 390/4/6 394/4/6
f 391/4/6 392/4/6 397/4/6
f 397/4/6 392/4/6 398/4/6
f 394/3/6 395/3/6 399/3/6
f 399/3/6 395/3/6 400/3/6
f 396/3/6 397/3/6 401/3/6
f 401/3/6 397/3/6 402/3/6
f 403/3/6 404/3/6 410/3/6
f 410/3/6 404/3/6 411/3/6
f 405/3/6 406/3/6 412/3/6
f 406/4/6 407/4/6 413/4/6
f 412/3/6 406/3/6 413/3/6
f 408/4/6 409/4/6 414/4/6
f 414/4/6 409/4/6 415/4/6
f 413/4/6 407/4/6 418/4/6
f 418/4/6 407/4/6 419/4/6
f 415/4/6 416/4/6 420/4/6
f 420/4/6 416/4/6 421/4/6
f 417/4/6 418/4/6 422/4/6
f 422/4/6 418/4/6 423/4/6
f 421/4/6 422/4/6 424/4/6
f 424/4/6 422/4/6 425/4/6
f 426/4/6 427/4/6 429/4/6
f 429/4/6 427/4/6 430/4/6
f 428/4/6 429/4/6 432/4/6
f 430/4/6 431/4/6 432/4/6
f 429/4/6 430/4/6 432/4/6
f 432/4/6 431/4/6 433/4/6
f 433/4/6 431/4/6 434/4/6
f 434/4/6 431/4/6 435/4/6
f 433/4/6 434/4/6 436/4/6
f 436/4/6 434/4/6 437/4/6
