# MagicaVoxel @ ephtracy

# material
mtllib weedBush.mtl
usemtl palette

# normals
vn -1 0 0
vn 1 0 0
vn 0 0 1
vn 0 0 -1
vn 0 -1 0
vn 0 1 0

# texcoords
vt 0.892578 0.5
vt 0.896484 0.5
vt 0.900391 0.5

# verts
v -5 3 -0
v -5 3 -1
v -5 5 -0
v -5 5 -1
v -4 1 1
v -4 1 -0
v -4 3 1
v -4 3 -0
v -4 3 -1
v -4 3 -2
v -4 4 1
v -4 4 -0
v -4 5 1
v -4 5 -0
v -4 5 -1
v -4 5 -2
v -3 1 2
v -3 1 1
v -3 1 -0
v -3 1 -1
v -3 2 -2
v -3 2 -3
v -3 3 2
v -3 3 1
v -3 3 -0
v -3 3 -1
v -3 3 -2
v -3 3 -3
v -2 1 -4
v -2 1 -5
v -2 2 -3
v -2 2 -4
v -2 3 -3
v -2 3 -5
v -2 4 2
v -2 4 1
v -2 4 -2
v -2 4 -3
v -2 5 2
v -2 5 1
v -2 5 -2
v -2 5 -3
v -1 0 1
v -1 0 -1
v -1 1 4
v -1 1 3
v -1 1 2
v -1 1 -5
v -1 1 -6
v -1 2 4
v -1 2 3
v -1 2 2
v -1 2 1
v -1 2 -0
v -1 2 -1
v -1 2 -2
v -1 3 -0
v -1 3 -1
v -1 3 -2
v -1 3 -5
v -1 3 -6
v -1 4 -0
v -1 4 -1
v 0 0 2
v 0 0 1
v 0 0 -1
v 0 0 -2
v 0 1 5
v 0 1 4
v 0 1 2
v 0 1 -4
v 0 1 -5
v 0 2 5
v 0 2 4
v 0 2 2
v 0 2 1
v 0 2 -1
v 0 2 -2
v 0 2 -4
v 0 2 -5
v 0 5 -0
v 0 5 -1
v 0 6 -0
v 0 6 -1
v 0 7 -0
v 0 7 -1
v 1 3 1
v 1 3 -0
v 1 3 -1
v 1 3 -2
v 1 4 1
v 1 4 -0
v 1 4 -1
v 1 4 -2
v 1 7 -0
v 1 7 -1
v 1 8 -0
v 1 8 -1
v 2 8 -0
v 2 8 -1
v 2 9 -0
v 2 9 -1
v 3 4 -0
v 3 4 -1
v 3 4 -2
v 3 5 -0
v 3 5 -2
v -4 3 -0
v -4 3 -1
v -4 4 -0
v -4 4 -1
v -3 1 1
v -3 1 -0
v -3 2 1
v -3 2 -0
v -3 3 -1
v -3 3 -2
v -3 4 -1
v -3 4 -2
v -2 1 2
v -2 1 1
v -2 1 -0
v -2 1 -1
v -2 2 2
v -2 2 1
v -2 2 -0
v -2 2 -1
v -1 1 -4
v -1 1 -5
v -1 2 2
v -1 2 1
v -1 2 -4
v -1 2 -5
v -1 3 2
v -1 3 1
v 0 1 1
v 0 1 -0
v 0 1 -5
v 0 1 -6
v 0 2 1
v 0 3 1
v 0 3 -0
v 0 3 -5
v 0 3 -6
v 0 4 2
v 0 4 1
v 0 4 -0
v 0 4 -1
v 0 4 -2
v 0 4 -3
v 0 5 2
v 0 5 1
v 0 5 -0
v 0 5 -1
v 0 5 -2
v 0 5 -3
v 1 0 2
v 1 0 -0
v 1 1 5
v 1 1 4
v 1 1 2
v 1 1 1
v 1 1 -0
v 1 1 -1
v 1 1 -2
v 1 1 -4
v 1 1 -5
v 1 2 5
v 1 2 4
v 1 2 2
v 1 2 1
v 1 2 -2
v 1 2 -3
v 1 2 -4
v 1 3 -1
v 1 3 -2
v 1 3 -3
v 1 3 -5
v 1 4 -0
v 1 4 -1
v 1 5 -0
v 1 5 -1
v 2 0 -0
v 2 0 -2
v 2 1 4
v 2 1 3
v 2 1 2
v 2 1 -1
v 2 1 -2
v 2 2 4
v 2 2 3
v 2 2 2
v 2 2 -2
v 2 2 -3
v 2 3 -0
v 2 3 -1
v 2 3 -2
v 2 3 -3
v 2 5 -0
v 2 5 -1
v 2 6 -0
v 2 6 -1
v 3 6 -0
v 3 6 -1
v 3 9 -0
v 3 9 -1
v 4 3 -1
v 4 3 -2
v 4 4 -1
v 4 4 -2
v 5 3 1
v 5 3 -0
v 5 4 1
v 5 4 -0
v 5 4 -1
v 5 4 -2
v 5 5 -0
v 5 5 -2
v 6 3 -0
v 6 3 -1
v 6 4 -0
v 6 4 -1
v 0 1 5
v 0 2 5
v 1 1 5
v 1 2 5
v -1 1 4
v -1 2 4
v 0 1 4
v 0 2 4
v 1 1 4
v 1 2 4
v 2 1 4
v 2 2 4
v -3 1 2
v -3 3 2
v -2 1 2
v -2 2 2
v -2 3 2
v -2 4 2
v -2 5 2
v -1 2 2
v -1 3 2
v 0 0 2
v 0 1 2
v 0 4 2
v 0 5 2
v 1 0 2
v 1 1 2
v -4 1 1
v -4 3 1
v -4 4 1
v -4 5 1
v -3 1 1
v -3 3 1
v -2 4 1
v -2 5 1
v -1 0 1
v -1 2 1
v -1 3 1
v 0 0 1
v 0 2 1
v 0 3 1
v 1 3 1
v 1 4 1
v 3 3 1
v 3 4 1
v 5 3 1
v 5 4 1
v -5 3 -0
v -5 5 -0
v -4 3 -0
v -4 4 -0
v -4 5 -0
v -3 1 -0
v -3 2 -0
v -2 1 -0
v -2 2 -0
v -1 3 -0
v -1 4 -0
v 0 1 -0
v 0 3 -0
v 0 4 -0
v 0 5 -0
v 0 6 -0
v 0 7 -0
v 1 0 -0
v 1 1 -0
v 1 3 -0
v 1 4 -0
v 1 5 -0
v 1 6 -0
v 1 7 -0
v 1 8 -0
v 2 0 -0
v 2 3 -0
v 2 5 -0
v 2 6 -0
v 2 8 -0
v 2 9 -0
v 3 4 -0
v 3 5 -0
v 3 6 -0
v 3 9 -0
v 5 3 -0
v 5 4 -0
v 5 5 -0
v 6 3 -0
v 6 4 -0
v -4 3 -1
v -4 4 -1
v -3 3 -1
v -3 4 -1
v -3 2 -2
v -3 3 -2
v -2 2 -2
v -2 3 -2
v -1 2 -2
v -1 3 -2
v 1 2 -2
v 1 3 -2
v 2 2 -2
v 2 3 -2
v -2 1 -4
v -2 2 -4
v -1 1 -4
v -1 2 -4
v 0 1 -4
v 0 2 -4
v 1 1 -4
v 1 2 -4
v -1 1 -5
v -1 2 -5
v 0 1 -5
v 0 2 -5
v -1 1 2
v -1 2 2
v 0 1 2
v 0 2 2
v 1 1 2
v 1 2 2
v 2 1 2
v 2 2 2
v -3 1 1
v -3 2 1
v -2 1 1
v -2 2 1
v 0 1 1
v 0 2 1
v 1 1 1
v 1 2 1
v -4 1 -0
v -4 3 -0
v -3 1 -0
v -3 3 -0
v -5 3 -1
v -5 5 -1
v -4 3 -1
v -4 5 -1
v -3 1 -1
v -3 3 -1
v -2 1 -1
v -2 2 -1
v -2 3 -1
v -1 0 -1
v -1 2 -1
v -1 3 -1
v -1 4 -1
v 0 0 -1
v 0 2 -1
v 0 4 -1
v 0 5 -1
v 0 6 -1
v 0 7 -1
v 1 1 -1
v 1 3 -1
v 1 4 -1
v 1 5 -1
v 1 6 -1
v 1 7 -1
v 1 8 -1
v 2 1 -1
v 2 3 -1
v 2 5 -1
v 2 6 -1
v 2 8 -1
v 2 9 -1
v 3 6 -1
v 3 9 -1
v 4 3 -1
v 4 4 -1
v 5 4 -1
v 6 3 -1
v 6 4 -1
v -4 3 -2
v -4 5 -2
v -3 3 -2
v -3 4 -2
v -2 4 -2
v -2 5 -2
v 0 0 -2
v 0 2 -2
v 1 1 -2
v 1 2 -2
v 1 3 -2
v 1 4 -2
v 2 0 -2
v 2 1 -2
v 2 3 -2
v 3 3 -2
v 3 4 -2
v 3 5 -2
v 4 3 -2
v 4 4 -2
v 5 4 -2
v 5 5 -2
v -3 2 -3
v -3 3 -3
v -2 2 -3
v -2 3 -3
v -2 4 -3
v -2 5 -3
v 0 4 -3
v 0 5 -3
v 1 2 -3
v 1 3 -3
v 2 2 -3
v 2 3 -3
v -2 1 -5
v -2 3 -5
v -1 1 -5
v -1 3 -5
v 0 1 -5
v 0 3 -5
v 1 1 -5
v 1 3 -5
v -1 1 -6
v -1 3 -6
v 0 1 -6
v 0 3 -6
v 0 0 2
v 1 0 2
v -1 0 1
v 0 0 1
v 1 0 -0
v 2 0 -0
v -1 0 -1
v 0 0 -1
v 0 0 -2
v 2 0 -2
v 0 1 5
v 1 1 5
v -1 1 4
v 0 1 4
v 1 1 4
v 2 1 4
v -1 1 3
v 0 1 3
v 1 1 3
v 2 1 3
v -3 1 2
v -2 1 2
v -1 1 2
v 0 1 2
v 1 1 2
v 2 1 2
v -4 1 1
v -3 1 1
v -2 1 1
v -4 1 -0
v -3 1 -0
v -2 1 -0
v -3 1 -1
v -2 1 -1
v -2 1 -4
v -1 1 -4
v 0 1 -4
v 1 1 -4
v -2 1 -5
v -1 1 -5
v 0 1 -5
v 1 1 -5
v -1 1 -6
v 0 1 -6
v -2 2 2
v -1 2 2
v -3 2 1
v -2 2 1
v -1 2 1
v -3 2 -0
v -2 2 -0
v -1 2 -0
v -2 2 -1
v -1 2 -1
v 0 2 -1
v -3 2 -2
v -2 2 -2
v -1 2 -2
v 0 2 -2
v 1 2 -2
v 2 2 -2
v -3 2 -3
v -2 2 -3
v -1 2 -3
v 0 2 -3
v 1 2 -3
v 2 2 -3
v -2 2 -4
v -1 2 -4
v 0 2 -4
v 1 2 -4
v -1 2 -5
v 0 2 -5
v 1 3 1
v 3 3 1
v 5 3 1
v -5 3 -0
v -4 3 -0
v 1 3 -0
v 2 3 -0
v 3 3 -0
v 4 3 -0
v 5 3 -0
v 6 3 -0
v -5 3 -1
v -4 3 -1
v -3 3 -1
v 1 3 -1
v 2 3 -1
v 3 3 -1
v 4 3 -1
v 6 3 -1
v -4 3 -2
v -3 3 -2
v 1 3 -2
v 2 3 -2
v 3 3 -2
v 4 3 -2
v -2 4 2
v 0 4 2
v -4 4 1
v -2 4 1
v 0 4 1
v -4 4 -0
v -3 4 -0
v -2 4 -0
v -1 4 -0
v 0 4 -0
v -4 4 -1
v -3 4 -1
v -2 4 -1
v -1 4 -1
v 0 4 -1
v 4 4 -1
v 5 4 -1
v -3 4 -2
v -2 4 -2
v 0 4 -2
v 4 4 -2
v 5 4 -2
v -2 4 -3
v 0 4 -3
v 1 5 -0
v 2 5 -0
v 1 5 -1
v 2 5 -1
v 2 6 -0
v 3 6 -0
v 2 6 -1
v 3 6 -1
v 0 1 1
v 1 1 1
v 0 1 -0
v 1 1 -0
v 1 1 -1
v 2 1 -1
v 1 1 -2
v 2 1 -2
v 0 2 5
v 1 2 5
v -1 2 4
v 0 2 4
v 1 2 4
v 2 2 4
v -1 2 3
v 0 2 3
v 1 2 3
v 2 2 3
v -1 2 2
v 0 2 2
v 1 2 2
v 2 2 2
v 0 2 1
v 1 2 1
v -3 3 2
v -2 3 2
v -1 3 2
v -4 3 1
v -3 3 1
v -2 3 1
v -1 3 1
v 0 3 1
v -4 3 -0
v -3 3 -0
v -2 3 -0
v -1 3 -0
v 0 3 -0
v -3 3 -1
v -2 3 -1
v -1 3 -1
v 1 3 -1
v -3 3 -2
v -2 3 -2
v -1 3 -2
v 0 3 -2
v 1 3 -2
v 2 3 -2
v -3 3 -3
v -2 3 -3
v -1 3 -3
v 0 3 -3
v 1 3 -3
v 2 3 -3
v -1 3 -4
v 0 3 -4
v -2 3 -5
v -1 3 -5
v 0 3 -5
v 1 3 -5
v -1 3 -6
v 0 3 -6
v 1 4 1
v 3 4 1
v 5 4 1
v 1 4 -0
v 3 4 -0
v 5 4 -0
v 6 4 -0
v 1 4 -1
v 3 4 -1
v 5 4 -1
v 6 4 -1
v 1 4 -2
v 3 4 -2
v -2 5 2
v 0 5 2
v -4 5 1
v -2 5 1
v 0 5 1
v -5 5 -0
v -4 5 -0
v -3 5 -0
v -2 5 -0
v 0 5 -0
v 3 5 -0
v 5 5 -0
v -5 5 -1
v -4 5 -1
v -3 5 -1
v -2 5 -1
v 0 5 -1
v -4 5 -2
v -2 5 -2
v 0 5 -2
v 3 5 -2
v 5 5 -2
v -2 5 -3
v 0 5 -3
v 0 7 -0
v 1 7 -0
v 0 7 -1
v 1 7 -1
v 1 8 -0
v 2 8 -0
v 1 8 -1
v 2 8 -1
v 2 9 -0
v 3 9 -0
v 2 9 -1
v 3 9 -1

# faces
f 3/1/1 2/1/1 1/1/1
f 4/1/1 2/1/1 3/1/1
f 7/1/1 6/1/1 5/1/1
f 8/1/1 6/1/1 7/1/1
f 13/1/1 12/1/1 11/1/1
f 14/1/1 12/1/1 13/1/1
f 15/1/1 10/1/1 9/1/1
f 16/1/1 10/1/1 15/1/1
f 23/1/1 18/1/1 17/1/1
f 24/1/1 18/1/1 23/1/1
f 25/1/1 20/1/1 19/1/1
f 26/1/1 20/1/1 25/1/1
f 27/1/1 22/1/1 21/1/1
f 28/1/1 22/1/1 27/1/1
f 32/1/1 30/1/1 29/1/1
f 33/1/1 32/1/1 31/1/1
f 34/1/1 30/1/1 32/1/1
f 34/1/1 32/1/1 33/1/1
f 39/1/1 36/1/1 35/1/1
f 40/1/1 36/1/1 39/1/1
f 41/1/1 38/1/1 37/1/1
f 42/1/1 38/1/1 41/1/1
f 50/1/1 46/1/1 45/1/1
f 51/2/1 47/2/1 46/2/1
f 51/1/1 46/1/1 50/1/1
f 52/2/1 47/2/1 51/2/1
f 53/3/1 44/3/1 43/3/1
f 54/3/1 44/3/1 53/3/1
f 55/3/1 44/3/1 54/3/1
f 58/3/1 56/3/1 55/3/1
f 59/3/1 56/3/1 58/3/1
f 60/1/1 49/1/1 48/1/1
f 61/1/1 49/1/1 60/1/1
f 62/3/1 58/3/1 57/3/1
f 63/3/1 58/3/1 62/3/1
f 70/3/1 65/3/1 64/3/1
f 73/1/1 69/1/1 68/1/1
f 74/1/1 69/1/1 73/1/1
f 75/3/1 65/3/1 70/3/1
f 76/3/1 65/3/1 75/3/1
f 77/3/1 67/3/1 66/3/1
f 78/3/1 67/3/1 77/3/1
f 79/1/1 72/1/1 71/1/1
f 80/1/1 72/1/1 79/1/1
f 83/3/1 82/3/1 81/3/1
f 84/3/1 82/3/1 83/3/1
f 85/2/1 84/2/1 83/2/1
f 86/2/1 84/2/1 85/2/1
f 91/2/1 88/2/1 87/2/1
f 92/2/1 88/2/1 91/2/1
f 93/2/1 90/2/1 89/2/1
f 94/2/1 90/2/1 93/2/1
f 97/1/1 96/1/1 95/1/1
f 98/1/1 96/1/1 97/1/1
f 101/1/1 100/1/1 99/1/1
f 102/1/1 100/1/1 101/1/1
f 106/1/1 104/1/1 103/1/1
f 106/1/1 105/1/1 104/1/1
f 107/1/1 105/1/1 106/1/1
f 108/1/2 109/1/2 110/1/2
f 110/1/2 109/1/2 111/1/2
f 112/1/2 113/1/2 114/1/2
f 114/1/2 113/1/2 115/1/2
f 116/1/2 117/1/2 118/1/2
f 118/1/2 117/1/2 119/1/2
f 120/1/2 121/1/2 124/1/2
f 124/1/2 121/1/2 125/1/2
f 122/1/2 123/1/2 126/1/2
f 126/1/2 123/1/2 127/1/2
f 128/1/2 129/1/2 132/1/2
f 132/1/2 129/1/2 133/1/2
f 130/2/2 131/2/2 134/2/2
f 134/2/2 131/2/2 135/2/2
f 136/3/2 137/3/2 140/3/2
f 140/3/2 137/3/2 141/3/2
f 141/3/2 137/3/2 142/3/2
f 138/1/2 139/1/2 143/1/2
f 143/1/2 139/1/2 144/1/2
f 145/1/2 146/1/2 151/1/2
f 146/2/2 147/2/2 152/2/2
f 151/1/2 146/1/2 152/1/2
f 152/2/2 147/2/2 153/2/2
f 148/2/2 149/2/2 154/2/2
f 149/1/2 150/1/2 155/1/2
f 154/2/2 149/2/2 155/2/2
f 155/1/2 150/1/2 156/1/2
f 157/3/2 158/3/2 161/3/2
f 161/3/2 158/3/2 162/3/2
f 162/3/2 158/3/2 163/3/2
f 159/1/2 160/1/2 168/1/2
f 168/1/2 160/1/2 169/1/2
f 161/3/2 162/3/2 170/3/2
f 170/3/2 162/3/2 171/3/2
f 164/3/2 165/3/2 172/3/2
f 166/1/2 167/1/2 174/1/2
f 164/3/2 172/3/2 175/3/2
f 175/3/2 172/3/2 176/3/2
f 173/1/2 174/1/2 177/1/2
f 174/1/2 167/1/2 178/1/2
f 177/1/2 174/1/2 178/1/2
f 179/3/2 180/3/2 181/3/2
f 181/3/2 180/3/2 182/3/2
f 183/3/2 184/3/2 188/3/2
f 188/3/2 184/3/2 189/3/2
f 185/1/2 186/1/2 190/1/2
f 186/2/2 187/2/2 191/2/2
f 190/1/2 186/1/2 191/1/2
f 191/2/2 187/2/2 192/2/2
f 183/3/2 188/3/2 195/3/2
f 195/3/2 188/3/2 196/3/2
f 193/1/2 194/1/2 197/1/2
f 197/1/2 194/1/2 198/1/2
f 199/2/2 200/2/2 201/2/2
f 201/2/2 200/2/2 202/2/2
f 203/1/2 204/1/2 205/1/2
f 205/1/2 204/1/2 206/1/2
f 207/1/2 208/1/2 209/1/2
f 209/1/2 208/1/2 210/1/2
f 211/1/2 212/1/2 213/1/2
f 213/1/2 212/1/2 214/1/2
f 215/1/2 216/1/2 217/1/2
f 214/1/2 215/1/2 217/1/2
f 217/1/2 216/1/2 218/1/2
f 219/1/2 220/1/2 221/1/2
f 221/1/2 220/1/2 222/1/2
f 225/1/3 224/1/3 223/1/3
f 226/1/3 224/1/3 225/1/3
f 229/1/3 228/1/3 227/1/3
f 230/1/3 228/1/3 229/1/3
f 233/1/3 232/1/3 231/1/3
f 234/1/3 232/1/3 233/1/3
f 237/1/3 236/1/3 235/1/3
f 238/1/3 236/1/3 237/1/3
f 239/1/3 236/1/3 238/1/3
f 242/2/3 239/2/3 238/2/3
f 243/2/3 239/2/3 242/2/3
f 246/1/3 241/1/3 240/1/3
f 247/1/3 241/1/3 246/1/3
f 248/3/3 245/3/3 244/3/3
f 249/3/3 245/3/3 248/3/3
f 254/1/3 251/1/3 250/1/3
f 255/1/3 251/1/3 254/1/3
f 256/1/3 253/1/3 252/1/3
f 257/1/3 253/1/3 256/1/3
f 261/3/3 259/3/3 258/3/3
f 261/3/3 260/3/3 259/3/3
f 262/3/3 260/3/3 261/3/3
f 263/3/3 260/3/3 262/3/3
f 266/2/3 265/2/3 264/2/3
f 267/2/3 265/2/3 266/2/3
f 268/1/3 267/1/3 266/1/3
f 269/1/3 267/1/3 268/1/3
f 272/1/3 271/1/3 270/1/3
f 273/1/3 271/1/3 272/1/3
f 274/1/3 271/1/3 273/1/3
f 277/1/3 276/1/3 275/1/3
f 278/1/3 276/1/3 277/1/3
f 282/3/3 280/3/3 279/3/3
f 283/3/3 280/3/3 282/3/3
f 288/3/3 284/3/3 283/3/3
f 288/3/3 282/3/3 281/3/3
f 288/3/3 285/3/3 284/3/3
f 288/3/3 283/3/3 282/3/3
f 289/3/3 285/3/3 288/3/3
f 290/3/3 285/3/3 289/3/3
f 291/3/3 285/3/3 290/3/3
f 292/2/3 286/2/3 285/2/3
f 292/3/3 285/3/3 291/3/3
f 293/2/3 286/2/3 292/2/3
f 295/3/3 288/3/3 287/3/3
f 295/3/3 289/3/3 288/3/3
f 296/3/3 289/3/3 295/3/3
f 297/2/3 292/2/3 291/2/3
f 298/1/3 294/1/3 293/1/3
f 298/2/3 292/2/3 297/2/3
f 298/1/3 293/1/3 292/1/3
f 299/1/3 294/1/3 298/1/3
f 303/1/3 300/1/3 299/1/3
f 303/1/3 299/1/3 298/1/3
f 304/1/3 300/1/3 303/1/3
f 306/1/3 302/1/3 301/1/3
f 307/1/3 302/1/3 306/1/3
f 308/1/3 306/1/3 305/1/3
f 309/1/3 306/1/3 308/1/3
f 312/1/3 311/1/3 310/1/3
f 313/1/3 311/1/3 312/1/3
f 316/1/3 315/1/3 314/1/3
f 317/1/3 315/1/3 316/1/3
f 318/2/3 317/2/3 316/2/3
f 319/2/3 317/2/3 318/2/3
f 322/1/3 321/1/3 320/1/3
f 323/1/3 321/1/3 322/1/3
f 326/1/3 325/1/3 324/1/3
f 327/1/3 325/1/3 326/1/3
f 330/1/3 329/1/3 328/1/3
f 331/1/3 329/1/3 330/1/3
f 334/1/3 333/1/3 332/1/3
f 335/1/3 333/1/3 334/1/3
f 336/2/4 337/2/4 338/2/4
f 338/2/4 337/2/4 339/2/4
f 340/2/4 341/2/4 342/2/4
f 342/2/4 341/2/4 343/2/4
f 344/1/4 345/1/4 346/1/4
f 346/1/4 345/1/4 347/1/4
f 348/3/4 349/3/4 350/3/4
f 350/3/4 349/3/4 351/3/4
f 352/1/4 353/1/4 354/1/4
f 354/1/4 353/1/4 355/1/4
f 356/1/4 357/1/4 358/1/4
f 358/1/4 357/1/4 359/1/4
f 360/1/4 361/1/4 362/1/4
f 362/1/4 361/1/4 363/1/4
f 363/1/4 361/1/4 364/1/4
f 363/2/4 364/2/4 366/2/4
f 366/2/4 364/2/4 367/2/4
f 365/3/4 366/3/4 369/3/4
f 369/3/4 366/3/4 370/3/4
f 367/3/4 368/3/4 371/3/4
f 371/3/4 372/3/4 376/3/4
f 372/3/4 373/3/4 376/3/4
f 367/3/4 371/3/4 376/3/4
f 376/3/4 373/3/4 377/3/4
f 377/3/4 373/3/4 378/3/4
f 373/2/4 374/2/4 379/2/4
f 378/3/4 373/3/4 379/3/4
f 379/2/4 374/2/4 380/2/4
f 375/3/4 376/3/4 382/3/4
f 382/3/4 376/3/4 383/3/4
f 378/2/4 379/2/4 384/2/4
f 380/1/4 381/1/4 385/1/4
f 384/2/4 379/2/4 385/2/4
f 379/1/4 380/1/4 385/1/4
f 385/1/4 381/1/4 386/1/4
f 386/1/4 387/1/4 388/1/4
f 385/1/4 386/1/4 388/1/4
f 388/1/4 387/1/4 389/1/4
f 390/1/4 391/1/4 392/1/4
f 390/1/4 392/1/4 393/1/4
f 393/1/4 392/1/4 394/1/4
f 395/1/4 396/1/4 397/1/4
f 397/1/4 396/1/4 398/1/4
f 398/1/4 396/1/4 399/1/4
f 399/1/4 396/1/4 400/1/4
f 401/3/4 402/3/4 403/3/4
f 403/3/4 402/3/4 404/3/4
f 401/3/4 403/3/4 407/3/4
f 407/3/4 403/3/4 408/3/4
f 405/2/4 406/2/4 409/2/4
f 409/2/4 406/2/4 410/2/4
f 410/2/4 406/2/4 411/2/4
f 410/1/4 411/1/4 413/1/4
f 411/1/4 412/1/4 413/1/4
f 413/1/4 412/1/4 414/1/4
f 414/1/4 412/1/4 415/1/4
f 415/1/4 412/1/4 416/1/4
f 417/1/4 418/1/4 419/1/4
f 419/1/4 418/1/4 420/1/4
f 421/1/4 422/1/4 423/1/4
f 423/1/4 422/1/4 424/1/4
f 425/1/4 426/1/4 427/1/4
f 427/1/4 426/1/4 428/1/4
f 429/1/4 430/1/4 431/1/4
f 431/1/4 430/1/4 432/1/4
f 433/1/4 434/1/4 435/1/4
f 435/1/4 434/1/4 436/1/4
f 437/1/4 438/1/4 439/1/4
f 439/1/4 438/1/4 440/1/4
f 444/3/5 442/3/5 441/3/5
f 445/3/5 442/3/5 444/3/5
f 445/3/5 444/3/5 443/3/5
f 447/3/5 445/3/5 443/3/5
f 447/3/5 446/3/5 445/3/5
f 448/3/5 446/3/5 447/3/5
f 449/3/5 446/3/5 448/3/5
f 450/3/5 446/3/5 449/3/5
f 454/1/5 452/1/5 451/1/5
f 455/1/5 452/1/5 454/1/5
f 457/1/5 454/1/5 453/1/5
f 458/2/5 455/2/5 454/2/5
f 458/1/5 454/1/5 457/1/5
f 459/1/5 456/1/5 455/1/5
f 459/2/5 455/2/5 458/2/5
f 460/1/5 456/1/5 459/1/5
f 463/2/5 458/2/5 457/2/5
f 464/3/5 459/3/5 458/3/5
f 464/2/5 458/2/5 463/2/5
f 465/2/5 460/2/5 459/2/5
f 465/3/5 459/3/5 464/3/5
f 466/2/5 460/2/5 465/2/5
f 468/1/5 462/1/5 461/1/5
f 469/1/5 462/1/5 468/1/5
f 470/1/5 468/1/5 467/1/5
f 471/1/5 468/1/5 470/1/5
f 473/1/5 472/1/5 471/1/5
f 474/1/5 472/1/5 473/1/5
f 479/1/5 476/1/5 475/1/5
f 480/1/5 476/1/5 479/1/5
f 481/1/5 478/1/5 477/1/5
f 482/1/5 478/1/5 481/1/5
f 483/1/5 481/1/5 480/1/5
f 484/1/5 481/1/5 483/1/5
f 488/2/5 486/2/5 485/2/5
f 489/2/5 486/2/5 488/2/5
f 490/2/5 488/2/5 487/2/5
f 491/3/5 489/3/5 488/3/5
f 491/2/5 488/2/5 490/2/5
f 492/3/5 489/3/5 491/3/5
f 493/2/5 492/2/5 491/2/5
f 494/2/5 492/2/5 493/2/5
f 498/3/5 495/3/5 494/3/5
f 499/3/5 495/3/5 498/3/5
f 502/1/5 497/1/5 496/1/5
f 503/2/5 498/2/5 497/2/5
f 503/1/5 497/1/5 502/1/5
f 504/3/5 499/3/5 498/3/5
f 504/2/5 498/2/5 503/2/5
f 505/2/5 500/2/5 499/2/5
f 505/3/5 499/3/5 504/3/5
f 506/1/5 501/1/5 500/1/5
f 506/2/5 500/2/5 505/2/5
f 507/1/5 501/1/5 506/1/5
f 508/1/5 504/1/5 503/1/5
f 509/2/5 505/2/5 504/2/5
f 509/1/5 504/1/5 508/1/5
f 510/1/5 506/1/5 505/1/5
f 510/2/5 505/2/5 509/2/5
f 511/1/5 506/1/5 510/1/5
f 512/1/5 510/1/5 509/1/5
f 513/1/5 510/1/5 512/1/5
f 519/2/5 515/2/5 514/2/5
f 520/2/5 515/2/5 519/2/5
f 521/1/5 516/1/5 515/1/5
f 521/2/5 515/2/5 520/2/5
f 522/1/5 516/1/5 521/1/5
f 523/1/5 516/1/5 522/1/5
f 525/1/5 518/1/5 517/1/5
f 526/1/5 518/1/5 525/1/5
f 529/3/5 521/3/5 520/3/5
f 530/2/5 522/2/5 521/2/5
f 530/3/5 521/3/5 529/3/5
f 531/1/5 524/1/5 523/1/5
f 531/2/5 522/2/5 530/2/5
f 531/1/5 523/1/5 522/1/5
f 532/1/5 524/1/5 531/1/5
f 533/1/5 527/1/5 526/1/5
f 534/1/5 527/1/5 533/1/5
f 535/2/5 530/2/5 529/2/5
f 535/2/5 529/2/5 528/2/5
f 536/2/5 530/2/5 535/2/5
f 537/1/5 531/1/5 530/1/5
f 537/2/5 530/2/5 536/2/5
f 538/1/5 531/1/5 537/1/5
f 542/1/5 540/1/5 539/1/5
f 543/1/5 540/1/5 542/1/5
f 544/1/5 542/1/5 541/1/5
f 545/1/5 542/1/5 544/1/5
f 546/2/5 543/2/5 542/2/5
f 546/1/5 542/1/5 545/1/5
f 547/2/5 543/2/5 546/2/5
f 548/2/5 543/2/5 547/2/5
f 549/1/5 545/1/5 544/1/5
f 550/2/5 546/2/5 545/2/5
f 550/1/5 545/1/5 549/1/5
f 551/3/5 547/3/5 546/3/5
f 551/2/5 546/2/5 550/2/5
f 552/3/5 547/3/5 551/3/5
f 556/1/5 551/1/5 550/1/5
f 557/2/5 553/2/5 552/2/5
f 557/1/5 551/1/5 556/1/5
f 557/2/5 552/2/5 551/2/5
f 558/2/5 553/2/5 557/2/5
f 559/1/5 555/1/5 554/1/5
f 560/1/5 555/1/5 559/1/5
f 561/1/5 558/1/5 557/1/5
f 562/1/5 558/1/5 561/1/5
f 565/2/5 564/2/5 563/2/5
f 566/2/5 564/2/5 565/2/5
f 569/1/5 568/1/5 567/1/5
f 570/1/5 568/1/5 569/1/5
f 571/3/6 572/3/6 573/3/6
f 573/3/6 572/3/6 574/3/6
f 575/3/6 576/3/6 577/3/6
f 577/3/6 576/3/6 578/3/6
f 579/1/6 580/1/6 582/1/6
f 582/1/6 580/1/6 583/1/6
f 581/1/6 582/1/6 585/1/6
f 582/2/6 583/2/6 586/2/6
f 585/1/6 582/1/6 586/1/6
f 583/1/6 584/1/6 587/1/6
f 586/2/6 583/2/6 587/2/6
f 587/1/6 584/1/6 588/1/6
f 585/2/6 586/2/6 589/2/6
f 586/3/6 587/3/6 590/3/6
f 589/2/6 586/2/6 590/2/6
f 587/2/6 588/2/6 591/2/6
f 590/3/6 587/3/6 591/3/6
f 591/2/6 588/2/6 592/2/6
f 590/3/6 591/3/6 593/3/6
f 593/3/6 591/3/6 594/3/6
f 595/1/6 596/1/6 599/1/6
f 596/2/6 597/2/6 600/2/6
f 599/1/6 596/1/6 600/1/6
f 600/2/6 597/2/6 601/2/6
f 598/1/6 599/1/6 603/1/6
f 599/2/6 600/2/6 604/2/6
f 603/1/6 599/1/6 604/1/6
f 601/3/6 602/3/6 605/3/6
f 604/2/6 600/2/6 605/2/6
f 600/3/6 601/3/6 605/3/6
f 605/3/6 602/3/6 606/3/6
f 606/3/6 602/3/6 607/3/6
f 604/1/6 605/1/6 608/1/6
f 605/2/6 606/2/6 609/2/6
f 608/1/6 605/1/6 609/1/6
f 609/2/6 606/2/6 610/2/6
f 610/3/6 611/3/6 614/3/6
f 614/3/6 611/3/6 615/3/6
f 615/3/6 611/3/6 616/3/6
f 612/1/6 613/1/6 618/1/6
f 613/2/6 614/2/6 619/2/6
f 618/1/6 613/1/6 619/1/6
f 614/3/6 615/3/6 620/3/6
f 619/2/6 614/2/6 620/2/6
f 615/2/6 616/2/6 621/2/6
f 620/3/6 615/3/6 621/3/6
f 616/1/6 617/1/6 622/1/6
f 621/2/6 616/2/6 622/2/6
f 622/1/6 617/1/6 623/1/6
f 620/2/6 621/2/6 624/2/6
f 619/1/6 620/1/6 624/1/6
f 621/1/6 622/1/6 625/1/6
f 624/2/6 621/2/6 625/2/6
f 619/1/6 624/1/6 626/1/6
f 624/1/6 625/1/6 626/1/6
f 626/1/6 625/1/6 627/1/6
f 625/1/6 622/1/6 628/1/6
f 627/1/6 625/1/6 628/1/6
f 628/1/6 622/1/6 629/1/6
f 627/1/6 628/1/6 630/1/6
f 630/1/6 628/1/6 631/1/6
f 632/2/6 633/2/6 635/2/6
f 633/1/6 634/1/6 636/1/6
f 635/2/6 633/2/6 636/2/6
f 636/1/6 634/1/6 637/1/6
f 635/3/6 636/3/6 639/3/6
f 639/3/6 636/3/6 640/3/6
f 637/1/6 638/1/6 641/1/6
f 641/1/6 638/1/6 642/1/6
f 639/2/6 640/2/6 643/2/6
f 643/2/6 640/2/6 644/2/6
f 645/1/6 646/1/6 648/1/6
f 648/1/6 646/1/6 649/1/6
f 647/1/6 648/1/6 651/1/6
f 651/1/6 648/1/6 652/1/6
f 648/2/6 649/2/6 653/2/6
f 652/1/6 648/1/6 653/1/6
f 653/2/6 649/2/6 654/2/6
f 651/1/6 652/1/6 657/1/6
f 650/1/6 651/1/6 657/1/6
f 657/1/6 652/1/6 658/1/6
f 652/2/6 653/2/6 659/2/6
f 658/1/6 652/1/6 659/1/6
f 653/3/6 654/3/6 660/3/6
f 659/2/6 653/2/6 660/2/6
f 660/3/6 654/3/6 661/3/6
f 658/1/6 659/1/6 662/1/6
f 659/1/6 660/1/6 662/1/6
f 660/2/6 661/2/6 663/2/6
f 662/1/6 660/1/6 663/1/6
f 663/2/6 661/2/6 664/2/6
f 655/1/6 656/1/6 665/1/6
f 665/1/6 656/1/6 666/1/6
f 663/1/6 664/1/6 667/1/6
f 667/1/6 664/1/6 668/1/6
f 669/2/6 670/2/6 671/2/6
f 671/2/6 670/2/6 672/2/6
f 673/1/6 674/1/6 675/1/6
f 675/1/6 674/1/6 676/1/6
f 677/1/6 678/1/6 679/1/6
f 679/1/6 678/1/6 680/1/6
